<svg width="87" height="47" viewBox="0 0 87 47" fill="none" xmlns="http://www.w3.org/2000/svg">
<g clip-path="url(#clip0)">
<path d="M34.585 16.516C34.0328 17.174 33.153 17.6954 32.2747 17.619C32.1586 16.7319 32.5963 15.7816 33.1016 15.1926C33.6524 14.5214 34.6159 14.0397 35.3972 14C35.4898 14.9268 35.1285 15.8374 34.5865 16.516H34.585ZM35.3884 17.7938C34.1121 17.7159 33.0164 18.5267 32.4113 18.5267C31.7929 18.5267 30.8661 17.832 29.8571 17.8555C28.5485 17.8716 27.325 18.6192 26.6596 19.8221C25.2746 22.2147 26.2998 25.7573 27.6305 27.7078C28.2811 28.6713 29.0596 29.7274 30.0862 29.698C31.0571 29.6583 31.4478 29.0562 32.6184 29.0562C33.8036 29.0562 34.14 29.698 35.174 29.6745C36.2359 29.6583 36.9086 28.711 37.5592 27.7475C38.301 26.6533 38.6065 25.5811 38.6226 25.5282C38.6065 25.5047 36.5649 24.7175 36.5502 22.3454C36.534 20.3553 38.1555 19.4079 38.2246 19.3536C37.314 17.9774 35.876 17.832 35.387 17.7952L35.3884 17.7938ZM42.7557 15.1001V29.5746H44.9808V24.6264H48.0579C50.8646 24.6264 52.8386 22.6759 52.8386 19.8603C52.8386 17.0388 50.9043 15.1016 48.1342 15.1016L42.7557 15.1001ZM44.9808 16.9977H47.5438C49.4708 16.9977 50.5738 18.0376 50.5738 19.8662C50.5738 21.6948 49.4708 22.7435 47.5291 22.7435H44.9808V16.9977ZM56.8909 29.6818C58.2906 29.6818 59.5831 28.971 60.1736 27.8371H60.2206V29.5746H62.2768V22.3675C62.2768 20.2877 60.6259 18.935 58.0777 18.935C55.7218 18.935 53.9769 20.3039 53.9167 22.178H55.9127C56.0816 21.2835 56.8924 20.7019 58.0174 20.7019C59.379 20.7019 60.1369 21.3437 60.1369 22.5232V23.3177L57.3683 23.4867C54.7818 23.6467 53.3894 24.7101 53.3894 26.5696C53.3894 28.4437 54.8288 29.6833 56.8924 29.6833L56.8909 29.6818ZM57.496 27.9678C56.3093 27.9678 55.5529 27.3935 55.5529 26.5152C55.5529 25.6046 56.2799 25.0685 57.6635 24.9833L60.1354 24.8306V25.6487C60.1354 27.0043 58.9956 27.9678 57.4872 27.9678H57.496ZM65.0234 33.5138C67.1869 33.5138 68.2062 32.6722 69.0933 30.1401L72.9943 19.0789H70.7383L68.1224 27.6227H68.0754L65.4596 19.0789H63.1346L66.899 29.6128L66.6992 30.2547C66.3541 31.3342 65.8048 31.7528 64.8251 31.7528C64.6489 31.7528 64.3125 31.7307 64.1744 31.7161V33.4536C64.3037 33.4903 64.8559 33.5065 65.016 33.5065L65.0234 33.5138Z" fill="#BFBFBF"/>
</g>
<g clip-path="url(#clip1)">
<path d="M18.2265 12.344C16.8045 12.344 14.604 10.727 12.2865 10.784C9.22646 10.8245 6.42146 12.5585 4.84496 15.305C1.66946 20.8175 4.02596 28.9595 7.12346 33.44C8.64296 35.621 10.4355 38.075 12.8115 37.9985C15.0915 37.901 15.9465 36.518 18.714 36.518C21.4605 36.518 22.239 37.9985 24.654 37.94C27.1095 37.901 28.668 35.72 30.168 33.518C31.902 30.986 32.622 28.5305 32.661 28.3955C32.6025 28.376 27.888 26.564 27.831 21.11C27.792 16.55 31.551 14.369 31.7265 14.2715C29.583 11.1365 26.292 10.7855 25.1415 10.7075C22.1415 10.4735 19.629 12.3425 18.2265 12.3425V12.344ZM23.2935 7.745C24.558 6.227 25.3935 4.1045 25.161 2C23.3505 2.078 21.168 3.2075 19.863 4.727C18.693 6.071 17.682 8.234 17.9535 10.298C19.9605 10.454 22.026 9.266 23.292 7.7465" fill="#BFBFBF"/>
</g>
<defs>
<clipPath id="clip0">
<rect width="47" height="47" fill="white" transform="translate(40)"/>
</clipPath>
<clipPath id="clip1">
<rect width="36" height="36" fill="white" transform="translate(0 2)"/>
</clipPath>
</defs>
</svg>
