<svg width="40" height="40" viewBox="0 0 40 40" fill="none" xmlns="http://www.w3.org/2000/svg">
<path d="M33.7513 6.25H11.2513C10.5884 6.25074 9.95299 6.51438 9.48431 6.98306C9.01563 7.45174 8.75199 8.08719 8.75125 8.75V11.25H6.25125C5.58844 11.2507 4.95298 11.5144 4.48431 11.9831C4.01563 12.4517 3.75199 13.0872 3.75125 13.75V17.4758C3.75109 17.4839 3.75 17.4919 3.75 17.5C3.75 17.5081 3.75109 17.5161 3.75125 17.5242V31.25C3.75199 31.9128 4.01563 32.5483 4.48431 33.0169C4.95298 33.4856 5.58844 33.7493 6.25125 33.75H28.7513C29.4141 33.7493 30.0495 33.4856 30.5182 33.0169C30.9869 32.5483 31.2505 31.9128 31.2513 31.25V28.75H33.7513C34.4141 28.7493 35.0495 28.4856 35.5182 28.0169C35.9869 27.5483 36.2505 26.9128 36.2513 26.25V8.75C36.2505 8.08719 35.9869 7.45174 35.5182 6.98306C35.0495 6.51438 34.4141 6.25074 33.7513 6.25ZM28.7513 13.75L28.7514 16.25H6.25125V13.75H28.7513ZM33.7513 26.25H31.2513V13.75C31.2505 13.0872 30.9869 12.4517 30.5182 11.9831C30.0495 11.5144 29.4141 11.2507 28.7513 11.25H11.2513V8.75H33.7513V26.25Z" fill="#F8F8F8"/>
</svg>
