<svg width="642" height="536" viewBox="0 0 642 536" fill="none" xmlns="http://www.w3.org/2000/svg">
<line x1="148.5" y1="453" x2="148.5" y2="491" stroke="#FAC704"/>
<line x1="148.5" y1="76" x2="148.5" y2="93" stroke="#FAC704"/>
<line x1="239" y1="525.5" x2="194" y2="525.5" stroke="#FAC704"/>
<line x1="273" y1="2.5" x2="184" y2="2.5" stroke="#FAC704"/>
<line x1="367" y1="2.5" x2="458" y2="2.50001" stroke="#FAC704"/>
<line x1="275" y1="0.5" x2="46" y2="0.5" stroke="#FAC704"/>
<line x1="364" y1="0.5" x2="596" y2="0.50002" stroke="#FAC704"/>
<line y1="-0.5" x2="57.8014" y2="-0.5" transform="matrix(0.795829 0.605522 -0.795829 0.605522 148 491)" stroke="#FAC704"/>
<line x1="146.749" y1="24.5673" x2="184.749" y2="2.56729" stroke="#FAC704"/>
<line y1="-0.5" x2="43.909" y2="-0.5" transform="matrix(-0.865426 -0.501036 -0.501036 0.865426 495 25)" stroke="#FAC704"/>
<line y1="-0.5" x2="51.8845" y2="-0.5" transform="matrix(0.886585 -0.462566 -0.886585 -0.462566 0 24)" stroke="#FAC704"/>
<line y1="-0.5" x2="51.8845" y2="-0.5" transform="matrix(-0.886585 -0.462566 0.886585 -0.462566 642 24)" stroke="#FAC704"/>
<line x1="197.5" y1="453" x2="197.5" y2="503" stroke="#FAC704"/>
<line x1="197.5" y1="76" x2="197.5" y2="93" stroke="#FAC704"/>
<line x1="239" y1="521.993" x2="218.231" y2="521.993" stroke="#FAC704"/>
<line x1="271" y1="5.5" x2="218" y2="5.5" stroke="#FAC704"/>
<line x1="368" y1="5.5" x2="424" y2="5.5" stroke="#FAC704"/>
<line y1="-0.5" x2="28.4273" y2="-0.5" transform="matrix(0.746845 0.664999 -0.746845 0.664999 197 503)" stroke="#FAC704"/>
<line y1="-0.5" x2="28.4273" y2="-0.5" transform="matrix(0.746845 -0.664999 -0.746845 -0.664999 197 23.9043)" stroke="#FAC704"/>
<line y1="-0.5" x2="28.4273" y2="-0.5" transform="matrix(-0.746845 -0.664999 0.746845 -0.664999 445 23.9043)" stroke="#FAC704"/>
<line y1="-0.5" x2="50" y2="-0.5" transform="matrix(4.37114e-08 1 1 -4.37114e-08 445 453)" stroke="#FAC704"/>
<line y1="-0.5" x2="17" y2="-0.5" transform="matrix(4.37114e-08 1 1 -4.37114e-08 445 76)" stroke="#FAC704"/>
<line y1="-0.5" x2="20.7692" y2="-0.5" transform="matrix(1 0 0 -1 403 521.493)" stroke="#FAC704"/>
<line y1="-0.5" x2="28.4273" y2="-0.5" transform="matrix(-0.746845 0.664999 0.746845 0.664999 445 503)" stroke="#FAC704"/>
<line x1="0.5" y1="453" x2="0.499999" y2="483.384" stroke="#FAC704"/>
<line x1="0.5" y1="76" x2="0.499999" y2="93" stroke="#FAC704"/>
<line x1="239" y1="534.523" x2="120.813" y2="534.523" stroke="#FAC704"/>
<line y1="-0.5" x2="131.432" y2="-0.5" transform="matrix(0.919218 0.39375 -0.919218 0.39375 0 483.384)" stroke="#FAC704"/>
<line y1="-0.5" x2="30.3837" y2="-0.5" transform="matrix(4.37114e-08 1 1 -4.37114e-08 642 453)" stroke="#FAC704"/>
<line y1="-0.5" x2="17" y2="-0.5" transform="matrix(4.37114e-08 1 1 -4.37114e-08 642 76)" stroke="#FAC704"/>
<line y1="-0.5" x2="118.187" y2="-0.5" transform="matrix(1 0 0 -1 403 534.023)" stroke="#FAC704"/>
<line y1="-0.5" x2="131.432" y2="-0.5" transform="matrix(-0.919218 0.39375 0.919218 0.39375 642 483.384)" stroke="#FAC704"/>
<line y1="-0.5" x2="38" y2="-0.5" transform="matrix(4.37114e-08 1 1 -4.37114e-08 494 453)" stroke="#FAC704"/>
<line y1="-0.5" x2="17" y2="-0.5" transform="matrix(4.37114e-08 1 1 -4.37114e-08 494 76)" stroke="#FAC704"/>
<line y1="-0.5" x2="45" y2="-0.5" transform="matrix(1 0 0 -1 403 525)" stroke="#FAC704"/>
<line y1="-0.5" x2="57.8014" y2="-0.5" transform="matrix(-0.795829 0.605522 0.795829 0.605522 494 491)" stroke="#FAC704"/>
</svg>
