<svg width="135" height="24" viewBox="0 0 135 24" fill="none" xmlns="http://www.w3.org/2000/svg">
<g clip-path="url(#clip0)">
<path d="M127.27 9.57545L130.156 16.3971H130.19L133.008 9.57519H135L128.924 23.2686H127.034L129.296 18.4784L125.296 9.57519H127.27L127.27 9.57545ZM120.722 9.26164C122.072 9.26164 123.135 9.60848 123.911 10.3187C124.688 11.0291 125.076 11.9871 125.076 13.226V19.0898H123.337V17.7685H123.254C122.494 18.8585 121.498 19.4036 120.249 19.4036C119.186 19.4036 118.291 19.0898 117.566 18.4787C116.84 17.8511 116.485 17.0748 116.485 16.1496C116.485 15.1749 116.857 14.3822 117.633 13.8038C118.393 13.2258 119.405 12.9285 120.671 12.9285C121.751 12.9285 122.646 13.1269 123.355 13.5065V13.0936C123.355 12.466 123.101 11.954 122.595 11.5081C122.089 11.0784 121.498 10.8637 120.823 10.8637C119.811 10.8637 119.001 11.2766 118.409 12.1192L116.806 11.1282C117.684 9.88925 119.001 9.26164 120.722 9.26164H120.722ZM111.507 5.18164C112.739 5.18164 113.785 5.57803 114.646 6.38758C115.523 7.19687 115.945 8.17132 115.945 9.31119C115.945 10.4838 115.506 11.4751 114.646 12.2513C113.802 13.0443 112.756 13.4407 111.507 13.4407H108.503V19.0733H106.68V5.18164H111.507ZM120.958 14.3326C120.216 14.3326 119.608 14.5143 119.101 14.8611C118.612 15.2245 118.359 15.6542 118.359 16.1662C118.359 16.6286 118.561 17.025 118.966 17.3223C119.371 17.6363 119.844 17.785 120.384 17.785C121.143 17.785 121.836 17.5042 122.443 16.9592C123.051 16.3974 123.337 15.7533 123.337 14.9933C122.764 14.5473 121.971 14.3326 120.958 14.3326ZM111.557 6.91583H108.502V11.7558H111.557C112.283 11.7558 112.89 11.5246 113.363 11.0456C113.853 10.5667 114.089 10.0049 114.089 9.34422C114.089 8.70009 113.853 8.13829 113.363 7.65932C112.89 7.16383 112.283 6.91609 111.557 6.91609V6.91583Z" fill="#BFBFBF"/>
<path d="M80.9247 9.27828C82.1566 9.27828 83.1359 9.8068 83.6424 10.4014H83.7263V9.57557H85.8868V18.6605C85.8868 22.3936 83.6424 23.9299 80.9759 23.9299C78.4776 23.9299 76.9757 22.278 76.4017 20.94L78.3766 20.1307C78.7307 20.9565 79.5916 21.9312 80.9759 21.9312C82.6803 21.9312 83.7263 20.8904 83.7263 18.9578V18.2311H83.6424C83.1359 18.8421 82.1566 19.3872 80.9247 19.3872C78.3426 19.3872 75.9801 17.1903 75.9801 14.3492C75.9801 11.4917 78.3426 9.27828 80.9247 9.27828ZM95.7771 9.2948C98.4608 9.2948 99.7602 11.3761 100.199 12.5157L100.435 13.0938L93.5325 15.8855C94.0556 16.8932 94.8825 17.4218 96.03 17.4218C97.1783 17.3887 97.9883 16.8437 98.5786 16.0011L100.334 17.1572C99.7602 17.9833 98.393 19.404 96.03 19.404C93.0935 19.404 90.9166 17.1905 90.9166 14.3492C90.9166 11.3428 93.1275 9.2948 95.7771 9.2948ZM45.2481 3.69531C47.695 3.69531 49.4334 4.63673 50.733 5.85918L49.1802 7.37867C48.2352 6.51983 46.9693 5.84267 45.2309 5.84267C42.0076 5.84267 39.476 8.38641 39.476 11.5415C39.476 14.6963 41.9907 17.2401 45.2309 17.2401C47.3237 17.2401 48.5221 16.4143 49.2815 15.6711C49.9061 15.0597 50.3111 14.1843 50.4799 12.9784H45.1806V10.8313H52.6064C52.6908 11.2109 52.7245 11.6736 52.7245 12.1691C52.7245 13.7714 52.2689 15.7699 50.834 17.1905C49.4165 18.6277 47.6277 19.3874 45.2481 19.3874C40.8263 19.3874 37.1133 15.869 37.1133 11.5415C37.1133 7.21376 40.826 3.69531 45.2481 3.69531ZM58.6658 9.27828C61.5182 9.27828 63.847 11.4091 63.847 14.3327C63.847 17.2401 61.5182 19.3872 58.6658 19.3872C55.8137 19.3872 53.4847 17.2401 53.4847 14.3327C53.4847 11.4089 55.8137 9.27828 58.6658 9.27828ZM69.9391 9.27828C72.7913 9.27828 75.1203 11.4091 75.1203 14.3327C75.1203 17.2401 72.7913 19.3872 69.9391 19.3872C67.0867 19.3872 64.7574 17.2401 64.7574 14.3327C64.7574 11.4089 67.0867 9.27828 69.9391 9.27828ZM89.786 4.22383V19.0736H87.5245V4.22383H89.786ZM58.6827 11.2767C57.1302 11.2767 55.7797 12.5157 55.7797 14.3327C55.7797 16.1332 57.1302 17.3887 58.6827 17.3887C60.2355 17.3887 61.5857 16.1332 61.5857 14.3327C61.5857 12.516 60.2355 11.277 58.6827 11.277V11.2767ZM69.9391 11.2767C68.3861 11.2767 67.0361 12.5157 67.0361 14.3327C67.0361 16.1332 68.3861 17.3887 69.9391 17.3887C71.4916 17.3887 72.8416 16.1332 72.8416 14.3327C72.8416 12.516 71.4916 11.277 69.9391 11.277V11.2767ZM81.1441 11.2605C79.5747 11.2605 78.2754 12.5652 78.2754 14.3495C78.2754 16.1167 79.5916 17.3887 81.1441 17.3887C82.6803 17.3887 83.8953 16.1167 83.8953 14.3492C83.8953 12.5652 82.6803 11.2602 81.1441 11.2602V11.2605ZM95.8446 11.2274C94.6971 11.2274 93.0935 12.2349 93.161 14.1841L97.7686 12.301C97.5155 11.6734 96.7561 11.2274 95.8446 11.2274Z" fill="#BFBFBF"/>
<path d="M25.1436 4.46345C22.4127 2.92074 18.9209 3.83739 17.3431 6.5099L13.3651 13.2544C12.2142 15.2018 13.696 15.8823 15.3482 16.8518L19.1759 19.0144C20.4721 19.746 22.1277 19.3115 22.8752 18.0446L26.9648 11.1135C28.3385 8.78448 27.5232 5.80797 25.1436 4.46319V4.46345Z" fill="#EA4335"/>
<path d="M20.6416 7.25491L16.8141 5.09258C14.7011 3.94471 13.5045 3.86858 12.637 5.21826L6.99183 14.787C5.41507 17.458 6.35374 20.8737 9.08274 22.4134C11.4624 23.7579 14.5036 22.9599 15.8776 20.6309L21.6309 10.8771C22.3818 9.60845 21.9378 7.98626 20.6416 7.25465V7.25491Z" fill="#FBBC04"/>
<path d="M21.3819 2.33641L18.6935 0.816408C15.7198 -0.863076 11.9173 0.133053 10.2011 3.04376L5.08218 11.7199C4.32597 12.9999 4.775 14.6386 6.08308 15.3772L9.09395 17.0783C10.5808 17.9194 12.4811 17.4203 13.3401 15.9651L19.1881 6.05279C20.3997 3.99938 23.0815 3.29563 25.1793 4.4817L21.3819 2.33641Z" fill="#34A853"/>
<path d="M10.9266 5.52556L8.02015 3.88685C6.72394 3.15704 5.06834 3.58956 4.32083 4.85485L0.834035 10.7519C-0.882469 13.6543 0.135305 17.3674 3.10873 19.0427L5.32147 20.2897L8.00486 21.8027L9.16923 22.4585C7.10204 21.1041 6.4455 18.3901 7.70954 16.2528L8.61236 14.7263L11.9188 9.13511C12.6645 7.87317 12.2207 6.25588 10.9261 5.52582L10.9266 5.52556Z" fill="#4285F4"/>
</g>
<defs>
<clipPath id="clip0">
<rect width="135" height="24" fill="white"/>
</clipPath>
</defs>
</svg>
