<svg width="65" height="69" viewBox="0 0 65 69" fill="none" xmlns="http://www.w3.org/2000/svg">
<path d="M20.8125 6.3418L36.0406 19.8046L33.4043 26.1117L27.2378 18.6254L27.4045 19.4218L23.3759 23.1174L20.8125 6.3418Z" fill="#FAC704"/>
<path d="M27.6051 20.418L31.3436 25.1536L18.1358 39.6351L7.07031 39.6953L27.6051 20.418Z" fill="#FAC704"/>
<path d="M38.2386 17.627L36.6154 19.0953L32.7296 15.5349L49.3575 0L28.7276 57.049L25.0664 33.4188L29.2171 29.1047L30.5545 35.3972L38.2386 17.627Z" fill="#FAC704"/>
<path d="M41.6414 24.9639L38.9219 32.5678L44.7076 39.5375L58.091 39.5535L41.6414 24.9639Z" fill="#FAC704"/>
<path d="M0.28125 67.647V62.541H5.41284L6.19284 63.3041V67.647H0.28125ZM4.32084 65.8043H2.05473V66.2751H4.44399V63.9129H2.04652V64.4081H4.32084V65.8043ZM6.73583 63.3771V67.647H8.49288V65.8043H10.759V64.4162H8.49288V63.9129H10.8821V67.647H12.6392V63.3771L11.7935 62.541H7.58151L6.73583 63.3771ZM13.1824 63.3365L14.0363 62.541H19.1104V63.9129H17.0495V67.647H15.2925V63.9129H13.1824V63.3365ZM19.653 63.3365L20.5069 62.541H25.5809V63.9129H23.52V67.647H21.7631V63.9129H19.653V63.3365ZM26.1235 62.541H27.8887V66.2751H31.8708V67.647H26.9774L26.1235 66.8515V62.541ZM32.4098 66.8271L33.239 67.647H38.3378V66.2751H34.175V65.78H36.4329V64.4H34.175V63.9129H38.3378V62.541H33.2636L32.4098 63.3365V66.8271ZM38.8803 65.8043V63.369L39.726 62.541H44.8083V63.9129H40.6374V64.4H42.9199V65.8043H38.8803ZM44.8083 66.8271L43.9791 67.647H38.8803V66.2751H43.0431V64.4H44.8083V66.8271ZM45.3509 63.3365L46.2048 62.541H51.2789V63.9129H49.2181V67.647H47.461V63.9129H45.3509V63.3365ZM51.8215 63.3771V67.647H53.5785V65.8043H55.8446V64.4162H53.5785V63.9129H55.9678V67.647H57.7249V63.3771L56.8792 62.541H52.6672L51.8215 63.3771ZM58.2681 62.541V67.647H60.0252V65.8043H62.2995V64.4081H60.0334V63.9129H62.4226V65.715L63.178 67.647H64.9433L64.1797 65.6176V63.3041L63.3997 62.541H58.2681Z" fill="#FAC704"/>
</svg>
