<svg width="109" height="117" viewBox="0 0 109 117" fill="none" xmlns="http://www.w3.org/2000/svg">
<g filter="url(#filter0_i)">
<path d="M34.8984 10.7539L60.4348 33.5822L56.014 44.2767L45.6731 31.5826L45.9527 32.9331L39.197 39.1994L34.8984 10.7539Z" fill="#F8F8F8" fill-opacity="0.8"/>
<path d="M46.2917 34.6216L52.5609 42.6516L30.4124 67.2071L11.8564 67.3092L46.2917 34.6216Z" fill="#F8F8F8" fill-opacity="0.8"/>
<path d="M64.1239 29.8892L61.402 32.379L54.8857 26.3417L82.7694 0L48.1747 96.7353L42.0352 56.6666L48.9955 49.3514L51.2382 60.0214L64.1239 29.8892Z" fill="#F8F8F8" fill-opacity="0.8"/>
<path d="M69.827 42.3296L65.2666 55.2233L74.9688 67.0414L97.4117 67.0686L69.827 42.3296Z" fill="#F8F8F8" fill-opacity="0.8"/>
<path d="M0.472656 114.706V106.048H9.07793L10.3859 107.342V114.706H0.472656ZM7.24673 111.581H3.44664V112.38H7.45326V108.374H3.43287V109.214H7.24673V111.581ZM11.2965 107.466V114.706H14.2429V111.581H18.043V109.228H14.2429V108.374H18.2495V114.706H21.196V107.466L19.7778 106.048H12.7146L11.2965 107.466ZM22.1068 107.397L23.5387 106.048H32.0476V108.374H28.5918V114.706H25.6453V108.374H22.1068V107.397ZM32.9575 107.397L34.3895 106.048H42.8982V108.374H39.4423V114.706H36.496V108.374H32.9575V107.397ZM43.808 106.048H46.7683V112.38H53.4459V114.706H45.24L43.808 113.357V106.048ZM54.3497 113.316L55.7403 114.706H64.2905V112.38H57.3099V111.54H61.0962V109.2H57.3099V108.374H64.2905V106.048H55.7816L54.3497 107.397V113.316ZM65.2003 111.581V107.452L66.6185 106.048H75.1411V108.374H68.1468V109.2H71.9744V111.581H65.2003ZM75.1411 113.316L73.7505 114.706H65.2003V112.38H72.1809V109.2H75.1411V113.316ZM76.051 107.397L77.4829 106.048H85.9918V108.374H82.5359V114.706H79.5895V108.374H76.051V107.397ZM86.9017 107.466V114.706H89.8481V111.581H93.6482V109.228H89.8481V108.374H93.8547V114.706H96.8012V107.466L95.383 106.048H88.3198L86.9017 107.466ZM97.7122 106.048V114.706H100.659V111.581H104.472V109.214H100.672V108.374H104.679V111.43L105.946 114.706H108.906L107.625 111.265V107.342L106.317 106.048H97.7122Z" fill="#F8F8F8" fill-opacity="0.8"/>
</g>
<defs>
<filter id="filter0_i" x="0" y="0" width="109" height="121" filterUnits="userSpaceOnUse" color-interpolation-filters="sRGB">
<feFlood flood-opacity="0" result="BackgroundImageFix"/>
<feBlend mode="normal" in="SourceGraphic" in2="BackgroundImageFix" result="shape"/>
<feColorMatrix in="SourceAlpha" type="matrix" values="0 0 0 0 0 0 0 0 0 0 0 0 0 0 0 0 0 0 127 0" result="hardAlpha"/>
<feOffset dy="4"/>
<feGaussianBlur stdDeviation="2"/>
<feComposite in2="hardAlpha" operator="arithmetic" k2="-1" k3="1"/>
<feColorMatrix type="matrix" values="0 0 0 0 0 0 0 0 0 0 0 0 0 0 0 0 0 0 0.25 0"/>
<feBlend mode="normal" in2="shape" result="effect1_innerShadow"/>
</filter>
</defs>
</svg>
