<svg width="1157" height="278" viewBox="0 0 1157 278" fill="none" xmlns="http://www.w3.org/2000/svg">
<path d="M0 218.322V241L1079 240.546V31C1073.5 36.2916 954.658 70.3017 902.535 70.3017C836.875 70.3017 765.462 99.8761 695.797 99.8761C626.133 99.8761 482.895 151.576 456.954 153.916C323 166 310.5 35.1061 263.072 35.1061C215.643 35.1061 157.5 181 125.589 191.562C94.0823 201.989 20.8332 210.006 0 218.322Z" fill="url(#paint0_linear)"/>
<path d="M1156.17 239.211C1156.17 240.846 1155.86 242.081 1155.25 242.914C1154.64 243.742 1153.71 244.156 1152.46 244.156C1151.23 244.156 1150.3 243.753 1149.68 242.945C1149.06 242.133 1148.74 240.932 1148.73 239.344V237.375C1148.73 235.74 1149.03 234.513 1149.64 233.695C1150.26 232.878 1151.19 232.469 1152.45 232.469C1153.69 232.469 1154.62 232.867 1155.23 233.664C1155.84 234.461 1156.16 235.654 1156.17 237.242V239.211ZM1154.27 237.086C1154.27 236.018 1154.13 235.237 1153.84 234.742C1153.54 234.242 1153.08 233.992 1152.45 233.992C1151.83 233.992 1151.37 234.229 1151.08 234.703C1150.79 235.172 1150.63 235.906 1150.62 236.906V239.484C1150.62 240.547 1150.77 241.339 1151.06 241.859C1151.36 242.38 1151.83 242.641 1152.46 242.641C1153.07 242.641 1153.52 242.401 1153.81 241.922C1154.1 241.438 1154.26 240.682 1154.27 239.656V237.086Z" fill="#F8F8F8" fill-opacity="0.6"/>
<path d="M20.0703 274H18.1797V264.867L15.3906 265.82V264.219L19.8281 262.586H20.0703V274ZM31.5938 263.68L27.0469 274H25.0547L29.5938 264.148H23.7109V262.625H31.5938V263.68ZM34.4219 272C34.776 272 35.0495 272.102 35.2422 272.305C35.4349 272.503 35.5312 272.753 35.5312 273.055C35.5312 273.352 35.4349 273.599 35.2422 273.797C35.0495 273.99 34.776 274.086 34.4219 274.086C34.0833 274.086 33.8151 273.99 33.6172 273.797C33.4193 273.604 33.3203 273.357 33.3203 273.055C33.3203 272.753 33.4167 272.503 33.6094 272.305C33.8021 272.102 34.0729 272 34.4219 272ZM45 269.211C45 270.846 44.6927 272.081 44.0781 272.914C43.4688 273.742 42.5391 274.156 41.2891 274.156C40.0599 274.156 39.1328 273.753 38.5078 272.945C37.888 272.133 37.5703 270.932 37.5547 269.344V267.375C37.5547 265.74 37.8594 264.513 38.4688 263.695C39.0833 262.878 40.0182 262.469 41.2734 262.469C42.5182 262.469 43.4453 262.867 44.0547 263.664C44.6693 264.461 44.9844 265.654 45 267.242V269.211ZM43.1016 267.086C43.1016 266.018 42.9557 265.237 42.6641 264.742C42.3724 264.242 41.9089 263.992 41.2734 263.992C40.6536 263.992 40.1979 264.229 39.9062 264.703C39.6146 265.172 39.4609 265.906 39.4453 266.906V269.484C39.4453 270.547 39.5938 271.339 39.8906 271.859C40.1875 272.38 40.6536 272.641 41.2891 272.641C41.8984 272.641 42.349 272.401 42.6406 271.922C42.9323 271.438 43.0859 270.682 43.1016 269.656V267.086ZM53.8438 265.625C53.8438 266.182 53.7005 266.68 53.4141 267.117C53.1276 267.549 52.737 267.891 52.2422 268.141C52.8359 268.417 53.2917 268.794 53.6094 269.273C53.9323 269.753 54.0938 270.294 54.0938 270.898C54.0938 271.898 53.7552 272.693 53.0781 273.281C52.401 273.865 51.5 274.156 50.375 274.156C49.2448 274.156 48.3385 273.862 47.6562 273.273C46.9792 272.685 46.6406 271.893 46.6406 270.898C46.6406 270.289 46.8021 269.742 47.125 269.258C47.4479 268.773 47.901 268.401 48.4844 268.141C47.9948 267.891 47.6068 267.549 47.3203 267.117C47.0391 266.68 46.8984 266.182 46.8984 265.625C46.8984 264.656 47.2109 263.888 47.8359 263.32C48.4609 262.753 49.3047 262.469 50.3672 262.469C51.4349 262.469 52.2812 262.753 52.9062 263.32C53.5312 263.888 53.8438 264.656 53.8438 265.625ZM52.1953 270.805C52.1953 270.242 52.026 269.789 51.6875 269.445C51.3542 269.096 50.9115 268.922 50.3594 268.922C49.8073 268.922 49.3646 269.094 49.0312 269.438C48.7031 269.781 48.5391 270.237 48.5391 270.805C48.5391 271.362 48.7005 271.807 49.0234 272.141C49.3516 272.474 49.8021 272.641 50.375 272.641C50.9479 272.641 51.3932 272.479 51.7109 272.156C52.0339 271.833 52.1953 271.383 52.1953 270.805ZM51.9531 265.695C51.9531 265.201 51.8099 264.794 51.5234 264.477C51.237 264.154 50.8516 263.992 50.3672 263.992C49.8828 263.992 49.5 264.146 49.2188 264.453C48.9375 264.755 48.7969 265.169 48.7969 265.695C48.7969 266.216 48.9375 266.63 49.2188 266.938C49.5052 267.245 49.8906 267.398 50.375 267.398C50.8594 267.398 51.2422 267.245 51.5234 266.938C51.8099 266.63 51.9531 266.216 51.9531 265.695Z" fill="white" fill-opacity="0.6"/>
<path d="M129.07 274H127.18V264.867L124.391 265.82V264.219L128.828 262.586H129.07V274ZM140.188 265.625C140.188 266.182 140.044 266.68 139.758 267.117C139.471 267.549 139.081 267.891 138.586 268.141C139.18 268.417 139.635 268.794 139.953 269.273C140.276 269.753 140.438 270.294 140.438 270.898C140.438 271.898 140.099 272.693 139.422 273.281C138.745 273.865 137.844 274.156 136.719 274.156C135.589 274.156 134.682 273.862 134 273.273C133.323 272.685 132.984 271.893 132.984 270.898C132.984 270.289 133.146 269.742 133.469 269.258C133.792 268.773 134.245 268.401 134.828 268.141C134.339 267.891 133.951 267.549 133.664 267.117C133.383 266.68 133.242 266.182 133.242 265.625C133.242 264.656 133.555 263.888 134.18 263.32C134.805 262.753 135.648 262.469 136.711 262.469C137.779 262.469 138.625 262.753 139.25 263.32C139.875 263.888 140.188 264.656 140.188 265.625ZM138.539 270.805C138.539 270.242 138.37 269.789 138.031 269.445C137.698 269.096 137.255 268.922 136.703 268.922C136.151 268.922 135.708 269.094 135.375 269.438C135.047 269.781 134.883 270.237 134.883 270.805C134.883 271.362 135.044 271.807 135.367 272.141C135.695 272.474 136.146 272.641 136.719 272.641C137.292 272.641 137.737 272.479 138.055 272.156C138.378 271.833 138.539 271.383 138.539 270.805ZM138.297 265.695C138.297 265.201 138.154 264.794 137.867 264.477C137.581 264.154 137.195 263.992 136.711 263.992C136.227 263.992 135.844 264.146 135.562 264.453C135.281 264.755 135.141 265.169 135.141 265.695C135.141 266.216 135.281 266.63 135.562 266.938C135.849 267.245 136.234 267.398 136.719 267.398C137.203 267.398 137.586 267.245 137.867 266.938C138.154 266.63 138.297 266.216 138.297 265.695ZM143.422 272C143.776 272 144.049 272.102 144.242 272.305C144.435 272.503 144.531 272.753 144.531 273.055C144.531 273.352 144.435 273.599 144.242 273.797C144.049 273.99 143.776 274.086 143.422 274.086C143.083 274.086 142.815 273.99 142.617 273.797C142.419 273.604 142.32 273.357 142.32 273.055C142.32 272.753 142.417 272.503 142.609 272.305C142.802 272.102 143.073 272 143.422 272ZM154 269.211C154 270.846 153.693 272.081 153.078 272.914C152.469 273.742 151.539 274.156 150.289 274.156C149.06 274.156 148.133 273.753 147.508 272.945C146.888 272.133 146.57 270.932 146.555 269.344V267.375C146.555 265.74 146.859 264.513 147.469 263.695C148.083 262.878 149.018 262.469 150.273 262.469C151.518 262.469 152.445 262.867 153.055 263.664C153.669 264.461 153.984 265.654 154 267.242V269.211ZM152.102 267.086C152.102 266.018 151.956 265.237 151.664 264.742C151.372 264.242 150.909 263.992 150.273 263.992C149.654 263.992 149.198 264.229 148.906 264.703C148.615 265.172 148.461 265.906 148.445 266.906V269.484C148.445 270.547 148.594 271.339 148.891 271.859C149.188 272.38 149.654 272.641 150.289 272.641C150.898 272.641 151.349 272.401 151.641 271.922C151.932 271.438 152.086 270.682 152.102 269.656V267.086ZM162.844 265.625C162.844 266.182 162.701 266.68 162.414 267.117C162.128 267.549 161.737 267.891 161.242 268.141C161.836 268.417 162.292 268.794 162.609 269.273C162.932 269.753 163.094 270.294 163.094 270.898C163.094 271.898 162.755 272.693 162.078 273.281C161.401 273.865 160.5 274.156 159.375 274.156C158.245 274.156 157.339 273.862 156.656 273.273C155.979 272.685 155.641 271.893 155.641 270.898C155.641 270.289 155.802 269.742 156.125 269.258C156.448 268.773 156.901 268.401 157.484 268.141C156.995 267.891 156.607 267.549 156.32 267.117C156.039 266.68 155.898 266.182 155.898 265.625C155.898 264.656 156.211 263.888 156.836 263.32C157.461 262.753 158.305 262.469 159.367 262.469C160.435 262.469 161.281 262.753 161.906 263.32C162.531 263.888 162.844 264.656 162.844 265.625ZM161.195 270.805C161.195 270.242 161.026 269.789 160.688 269.445C160.354 269.096 159.911 268.922 159.359 268.922C158.807 268.922 158.365 269.094 158.031 269.438C157.703 269.781 157.539 270.237 157.539 270.805C157.539 271.362 157.701 271.807 158.023 272.141C158.352 272.474 158.802 272.641 159.375 272.641C159.948 272.641 160.393 272.479 160.711 272.156C161.034 271.833 161.195 271.383 161.195 270.805ZM160.953 265.695C160.953 265.201 160.81 264.794 160.523 264.477C160.237 264.154 159.852 263.992 159.367 263.992C158.883 263.992 158.5 264.146 158.219 264.453C157.938 264.755 157.797 265.169 157.797 265.695C157.797 266.216 157.938 266.63 158.219 266.938C158.505 267.245 158.891 267.398 159.375 267.398C159.859 267.398 160.242 267.245 160.523 266.938C160.81 266.63 160.953 266.216 160.953 265.695Z" fill="white" fill-opacity="0.6"/>
<path d="M238.07 274H236.18V264.867L233.391 265.82V264.219L237.828 262.586H238.07V274ZM247.406 269.242C246.771 269.914 246.029 270.25 245.18 270.25C244.18 270.25 243.383 269.901 242.789 269.203C242.195 268.5 241.898 267.578 241.898 266.438C241.898 265.688 242.049 265.008 242.352 264.398C242.654 263.789 243.083 263.315 243.641 262.977C244.198 262.638 244.844 262.469 245.578 262.469C246.724 262.469 247.633 262.896 248.305 263.75C248.977 264.604 249.312 265.747 249.312 267.18V267.711C249.312 269.763 248.849 271.328 247.922 272.406C246.995 273.484 245.612 274.031 243.773 274.047H243.547V272.477H243.82C244.94 272.461 245.799 272.193 246.398 271.672C246.997 271.146 247.333 270.336 247.406 269.242ZM245.578 268.766C245.958 268.766 246.315 268.656 246.648 268.438C246.982 268.219 247.24 267.917 247.422 267.531V266.789C247.422 265.951 247.25 265.276 246.906 264.766C246.562 264.255 246.117 264 245.57 264C245.023 264 244.586 264.227 244.258 264.68C243.935 265.128 243.773 265.695 243.773 266.383C243.773 267.096 243.938 267.672 244.266 268.109C244.594 268.547 245.031 268.766 245.578 268.766ZM252.422 272C252.776 272 253.049 272.102 253.242 272.305C253.435 272.503 253.531 272.753 253.531 273.055C253.531 273.352 253.435 273.599 253.242 273.797C253.049 273.99 252.776 274.086 252.422 274.086C252.083 274.086 251.815 273.99 251.617 273.797C251.419 273.604 251.32 273.357 251.32 273.055C251.32 272.753 251.417 272.503 251.609 272.305C251.802 272.102 252.073 272 252.422 272ZM263 269.211C263 270.846 262.693 272.081 262.078 272.914C261.469 273.742 260.539 274.156 259.289 274.156C258.06 274.156 257.133 273.753 256.508 272.945C255.888 272.133 255.57 270.932 255.555 269.344V267.375C255.555 265.74 255.859 264.513 256.469 263.695C257.083 262.878 258.018 262.469 259.273 262.469C260.518 262.469 261.445 262.867 262.055 263.664C262.669 264.461 262.984 265.654 263 267.242V269.211ZM261.102 267.086C261.102 266.018 260.956 265.237 260.664 264.742C260.372 264.242 259.909 263.992 259.273 263.992C258.654 263.992 258.198 264.229 257.906 264.703C257.615 265.172 257.461 265.906 257.445 266.906V269.484C257.445 270.547 257.594 271.339 257.891 271.859C258.188 272.38 258.654 272.641 259.289 272.641C259.898 272.641 260.349 272.401 260.641 271.922C260.932 271.438 261.086 270.682 261.102 269.656V267.086ZM271.844 265.625C271.844 266.182 271.701 266.68 271.414 267.117C271.128 267.549 270.737 267.891 270.242 268.141C270.836 268.417 271.292 268.794 271.609 269.273C271.932 269.753 272.094 270.294 272.094 270.898C272.094 271.898 271.755 272.693 271.078 273.281C270.401 273.865 269.5 274.156 268.375 274.156C267.245 274.156 266.339 273.862 265.656 273.273C264.979 272.685 264.641 271.893 264.641 270.898C264.641 270.289 264.802 269.742 265.125 269.258C265.448 268.773 265.901 268.401 266.484 268.141C265.995 267.891 265.607 267.549 265.32 267.117C265.039 266.68 264.898 266.182 264.898 265.625C264.898 264.656 265.211 263.888 265.836 263.32C266.461 262.753 267.305 262.469 268.367 262.469C269.435 262.469 270.281 262.753 270.906 263.32C271.531 263.888 271.844 264.656 271.844 265.625ZM270.195 270.805C270.195 270.242 270.026 269.789 269.688 269.445C269.354 269.096 268.911 268.922 268.359 268.922C267.807 268.922 267.365 269.094 267.031 269.438C266.703 269.781 266.539 270.237 266.539 270.805C266.539 271.362 266.701 271.807 267.023 272.141C267.352 272.474 267.802 272.641 268.375 272.641C268.948 272.641 269.393 272.479 269.711 272.156C270.034 271.833 270.195 271.383 270.195 270.805ZM269.953 265.695C269.953 265.201 269.81 264.794 269.523 264.477C269.237 264.154 268.852 263.992 268.367 263.992C267.883 263.992 267.5 264.146 267.219 264.453C266.938 264.755 266.797 265.169 266.797 265.695C266.797 266.216 266.938 266.63 267.219 266.938C267.505 267.245 267.891 267.398 268.375 267.398C268.859 267.398 269.242 267.245 269.523 266.938C269.81 266.63 269.953 266.216 269.953 265.695Z" fill="white" fill-opacity="0.6"/>
<path d="M349.578 274H341.93V272.695L345.719 268.562C346.266 267.953 346.654 267.445 346.883 267.039C347.117 266.628 347.234 266.216 347.234 265.805C347.234 265.263 347.081 264.826 346.773 264.492C346.471 264.159 346.062 263.992 345.547 263.992C344.932 263.992 344.456 264.18 344.117 264.555C343.779 264.93 343.609 265.443 343.609 266.094H341.711C341.711 265.401 341.867 264.779 342.18 264.227C342.497 263.669 342.948 263.237 343.531 262.93C344.12 262.622 344.797 262.469 345.562 262.469C346.667 262.469 347.536 262.747 348.172 263.305C348.812 263.857 349.133 264.622 349.133 265.602C349.133 266.169 348.971 266.766 348.648 267.391C348.331 268.01 347.807 268.716 347.078 269.508L344.297 272.484H349.578V274ZM358.438 269.211C358.438 270.846 358.13 272.081 357.516 272.914C356.906 273.742 355.977 274.156 354.727 274.156C353.497 274.156 352.57 273.753 351.945 272.945C351.326 272.133 351.008 270.932 350.992 269.344V267.375C350.992 265.74 351.297 264.513 351.906 263.695C352.521 262.878 353.456 262.469 354.711 262.469C355.956 262.469 356.883 262.867 357.492 263.664C358.107 264.461 358.422 265.654 358.438 267.242V269.211ZM356.539 267.086C356.539 266.018 356.393 265.237 356.102 264.742C355.81 264.242 355.346 263.992 354.711 263.992C354.091 263.992 353.635 264.229 353.344 264.703C353.052 265.172 352.898 265.906 352.883 266.906V269.484C352.883 270.547 353.031 271.339 353.328 271.859C353.625 272.38 354.091 272.641 354.727 272.641C355.336 272.641 355.786 272.401 356.078 271.922C356.37 271.438 356.523 270.682 356.539 269.656V267.086ZM361.422 272C361.776 272 362.049 272.102 362.242 272.305C362.435 272.503 362.531 272.753 362.531 273.055C362.531 273.352 362.435 273.599 362.242 273.797C362.049 273.99 361.776 274.086 361.422 274.086C361.083 274.086 360.815 273.99 360.617 273.797C360.419 273.604 360.32 273.357 360.32 273.055C360.32 272.753 360.417 272.503 360.609 272.305C360.802 272.102 361.073 272 361.422 272ZM372 269.211C372 270.846 371.693 272.081 371.078 272.914C370.469 273.742 369.539 274.156 368.289 274.156C367.06 274.156 366.133 273.753 365.508 272.945C364.888 272.133 364.57 270.932 364.555 269.344V267.375C364.555 265.74 364.859 264.513 365.469 263.695C366.083 262.878 367.018 262.469 368.273 262.469C369.518 262.469 370.445 262.867 371.055 263.664C371.669 264.461 371.984 265.654 372 267.242V269.211ZM370.102 267.086C370.102 266.018 369.956 265.237 369.664 264.742C369.372 264.242 368.909 263.992 368.273 263.992C367.654 263.992 367.198 264.229 366.906 264.703C366.615 265.172 366.461 265.906 366.445 266.906V269.484C366.445 270.547 366.594 271.339 366.891 271.859C367.188 272.38 367.654 272.641 368.289 272.641C368.898 272.641 369.349 272.401 369.641 271.922C369.932 271.438 370.086 270.682 370.102 269.656V267.086ZM380.844 265.625C380.844 266.182 380.701 266.68 380.414 267.117C380.128 267.549 379.737 267.891 379.242 268.141C379.836 268.417 380.292 268.794 380.609 269.273C380.932 269.753 381.094 270.294 381.094 270.898C381.094 271.898 380.755 272.693 380.078 273.281C379.401 273.865 378.5 274.156 377.375 274.156C376.245 274.156 375.339 273.862 374.656 273.273C373.979 272.685 373.641 271.893 373.641 270.898C373.641 270.289 373.802 269.742 374.125 269.258C374.448 268.773 374.901 268.401 375.484 268.141C374.995 267.891 374.607 267.549 374.32 267.117C374.039 266.68 373.898 266.182 373.898 265.625C373.898 264.656 374.211 263.888 374.836 263.32C375.461 262.753 376.305 262.469 377.367 262.469C378.435 262.469 379.281 262.753 379.906 263.32C380.531 263.888 380.844 264.656 380.844 265.625ZM379.195 270.805C379.195 270.242 379.026 269.789 378.688 269.445C378.354 269.096 377.911 268.922 377.359 268.922C376.807 268.922 376.365 269.094 376.031 269.438C375.703 269.781 375.539 270.237 375.539 270.805C375.539 271.362 375.701 271.807 376.023 272.141C376.352 272.474 376.802 272.641 377.375 272.641C377.948 272.641 378.393 272.479 378.711 272.156C379.034 271.833 379.195 271.383 379.195 270.805ZM378.953 265.695C378.953 265.201 378.81 264.794 378.523 264.477C378.237 264.154 377.852 263.992 377.367 263.992C376.883 263.992 376.5 264.146 376.219 264.453C375.938 264.755 375.797 265.169 375.797 265.695C375.797 266.216 375.938 266.63 376.219 266.938C376.505 267.245 376.891 267.398 377.375 267.398C377.859 267.398 378.242 267.245 378.523 266.938C378.81 266.63 378.953 266.216 378.953 265.695Z" fill="white" fill-opacity="0.6"/>
<path d="M458.578 274H450.93V272.695L454.719 268.562C455.266 267.953 455.654 267.445 455.883 267.039C456.117 266.628 456.234 266.216 456.234 265.805C456.234 265.263 456.081 264.826 455.773 264.492C455.471 264.159 455.062 263.992 454.547 263.992C453.932 263.992 453.456 264.18 453.117 264.555C452.779 264.93 452.609 265.443 452.609 266.094H450.711C450.711 265.401 450.867 264.779 451.18 264.227C451.497 263.669 451.948 263.237 452.531 262.93C453.12 262.622 453.797 262.469 454.562 262.469C455.667 262.469 456.536 262.747 457.172 263.305C457.812 263.857 458.133 264.622 458.133 265.602C458.133 266.169 457.971 266.766 457.648 267.391C457.331 268.01 456.807 268.716 456.078 269.508L453.297 272.484H458.578V274ZM465.164 274H463.273V264.867L460.484 265.82V264.219L464.922 262.586H465.164V274ZM470.422 272C470.776 272 471.049 272.102 471.242 272.305C471.435 272.503 471.531 272.753 471.531 273.055C471.531 273.352 471.435 273.599 471.242 273.797C471.049 273.99 470.776 274.086 470.422 274.086C470.083 274.086 469.815 273.99 469.617 273.797C469.419 273.604 469.32 273.357 469.32 273.055C469.32 272.753 469.417 272.503 469.609 272.305C469.802 272.102 470.073 272 470.422 272ZM481 269.211C481 270.846 480.693 272.081 480.078 272.914C479.469 273.742 478.539 274.156 477.289 274.156C476.06 274.156 475.133 273.753 474.508 272.945C473.888 272.133 473.57 270.932 473.555 269.344V267.375C473.555 265.74 473.859 264.513 474.469 263.695C475.083 262.878 476.018 262.469 477.273 262.469C478.518 262.469 479.445 262.867 480.055 263.664C480.669 264.461 480.984 265.654 481 267.242V269.211ZM479.102 267.086C479.102 266.018 478.956 265.237 478.664 264.742C478.372 264.242 477.909 263.992 477.273 263.992C476.654 263.992 476.198 264.229 475.906 264.703C475.615 265.172 475.461 265.906 475.445 266.906V269.484C475.445 270.547 475.594 271.339 475.891 271.859C476.188 272.38 476.654 272.641 477.289 272.641C477.898 272.641 478.349 272.401 478.641 271.922C478.932 271.438 479.086 270.682 479.102 269.656V267.086ZM489.844 265.625C489.844 266.182 489.701 266.68 489.414 267.117C489.128 267.549 488.737 267.891 488.242 268.141C488.836 268.417 489.292 268.794 489.609 269.273C489.932 269.753 490.094 270.294 490.094 270.898C490.094 271.898 489.755 272.693 489.078 273.281C488.401 273.865 487.5 274.156 486.375 274.156C485.245 274.156 484.339 273.862 483.656 273.273C482.979 272.685 482.641 271.893 482.641 270.898C482.641 270.289 482.802 269.742 483.125 269.258C483.448 268.773 483.901 268.401 484.484 268.141C483.995 267.891 483.607 267.549 483.32 267.117C483.039 266.68 482.898 266.182 482.898 265.625C482.898 264.656 483.211 263.888 483.836 263.32C484.461 262.753 485.305 262.469 486.367 262.469C487.435 262.469 488.281 262.753 488.906 263.32C489.531 263.888 489.844 264.656 489.844 265.625ZM488.195 270.805C488.195 270.242 488.026 269.789 487.688 269.445C487.354 269.096 486.911 268.922 486.359 268.922C485.807 268.922 485.365 269.094 485.031 269.438C484.703 269.781 484.539 270.237 484.539 270.805C484.539 271.362 484.701 271.807 485.023 272.141C485.352 272.474 485.802 272.641 486.375 272.641C486.948 272.641 487.393 272.479 487.711 272.156C488.034 271.833 488.195 271.383 488.195 270.805ZM487.953 265.695C487.953 265.201 487.81 264.794 487.523 264.477C487.237 264.154 486.852 263.992 486.367 263.992C485.883 263.992 485.5 264.146 485.219 264.453C484.938 264.755 484.797 265.169 484.797 265.695C484.797 266.216 484.938 266.63 485.219 266.938C485.505 267.245 485.891 267.398 486.375 267.398C486.859 267.398 487.242 267.245 487.523 266.938C487.81 266.63 487.953 266.216 487.953 265.695Z" fill="white" fill-opacity="0.6"/>
<path d="M567.578 274H559.93V272.695L563.719 268.562C564.266 267.953 564.654 267.445 564.883 267.039C565.117 266.628 565.234 266.216 565.234 265.805C565.234 265.263 565.081 264.826 564.773 264.492C564.471 264.159 564.062 263.992 563.547 263.992C562.932 263.992 562.456 264.18 562.117 264.555C561.779 264.93 561.609 265.443 561.609 266.094H559.711C559.711 265.401 559.867 264.779 560.18 264.227C560.497 263.669 560.948 263.237 561.531 262.93C562.12 262.622 562.797 262.469 563.562 262.469C564.667 262.469 565.536 262.747 566.172 263.305C566.812 263.857 567.133 264.622 567.133 265.602C567.133 266.169 566.971 266.766 566.648 267.391C566.331 268.01 565.807 268.716 565.078 269.508L562.297 272.484H567.578V274ZM576.672 274H569.023V272.695L572.812 268.562C573.359 267.953 573.747 267.445 573.977 267.039C574.211 266.628 574.328 266.216 574.328 265.805C574.328 265.263 574.174 264.826 573.867 264.492C573.565 264.159 573.156 263.992 572.641 263.992C572.026 263.992 571.549 264.18 571.211 264.555C570.872 264.93 570.703 265.443 570.703 266.094H568.805C568.805 265.401 568.961 264.779 569.273 264.227C569.591 263.669 570.042 263.237 570.625 262.93C571.214 262.622 571.891 262.469 572.656 262.469C573.76 262.469 574.63 262.747 575.266 263.305C575.906 263.857 576.227 264.622 576.227 265.602C576.227 266.169 576.065 266.766 575.742 267.391C575.424 268.01 574.901 268.716 574.172 269.508L571.391 272.484H576.672V274ZM579.422 272C579.776 272 580.049 272.102 580.242 272.305C580.435 272.503 580.531 272.753 580.531 273.055C580.531 273.352 580.435 273.599 580.242 273.797C580.049 273.99 579.776 274.086 579.422 274.086C579.083 274.086 578.815 273.99 578.617 273.797C578.419 273.604 578.32 273.357 578.32 273.055C578.32 272.753 578.417 272.503 578.609 272.305C578.802 272.102 579.073 272 579.422 272ZM590 269.211C590 270.846 589.693 272.081 589.078 272.914C588.469 273.742 587.539 274.156 586.289 274.156C585.06 274.156 584.133 273.753 583.508 272.945C582.888 272.133 582.57 270.932 582.555 269.344V267.375C582.555 265.74 582.859 264.513 583.469 263.695C584.083 262.878 585.018 262.469 586.273 262.469C587.518 262.469 588.445 262.867 589.055 263.664C589.669 264.461 589.984 265.654 590 267.242V269.211ZM588.102 267.086C588.102 266.018 587.956 265.237 587.664 264.742C587.372 264.242 586.909 263.992 586.273 263.992C585.654 263.992 585.198 264.229 584.906 264.703C584.615 265.172 584.461 265.906 584.445 266.906V269.484C584.445 270.547 584.594 271.339 584.891 271.859C585.188 272.38 585.654 272.641 586.289 272.641C586.898 272.641 587.349 272.401 587.641 271.922C587.932 271.438 588.086 270.682 588.102 269.656V267.086ZM598.844 265.625C598.844 266.182 598.701 266.68 598.414 267.117C598.128 267.549 597.737 267.891 597.242 268.141C597.836 268.417 598.292 268.794 598.609 269.273C598.932 269.753 599.094 270.294 599.094 270.898C599.094 271.898 598.755 272.693 598.078 273.281C597.401 273.865 596.5 274.156 595.375 274.156C594.245 274.156 593.339 273.862 592.656 273.273C591.979 272.685 591.641 271.893 591.641 270.898C591.641 270.289 591.802 269.742 592.125 269.258C592.448 268.773 592.901 268.401 593.484 268.141C592.995 267.891 592.607 267.549 592.32 267.117C592.039 266.68 591.898 266.182 591.898 265.625C591.898 264.656 592.211 263.888 592.836 263.32C593.461 262.753 594.305 262.469 595.367 262.469C596.435 262.469 597.281 262.753 597.906 263.32C598.531 263.888 598.844 264.656 598.844 265.625ZM597.195 270.805C597.195 270.242 597.026 269.789 596.688 269.445C596.354 269.096 595.911 268.922 595.359 268.922C594.807 268.922 594.365 269.094 594.031 269.438C593.703 269.781 593.539 270.237 593.539 270.805C593.539 271.362 593.701 271.807 594.023 272.141C594.352 272.474 594.802 272.641 595.375 272.641C595.948 272.641 596.393 272.479 596.711 272.156C597.034 271.833 597.195 271.383 597.195 270.805ZM596.953 265.695C596.953 265.201 596.81 264.794 596.523 264.477C596.237 264.154 595.852 263.992 595.367 263.992C594.883 263.992 594.5 264.146 594.219 264.453C593.938 264.755 593.797 265.169 593.797 265.695C593.797 266.216 593.938 266.63 594.219 266.938C594.505 267.245 594.891 267.398 595.375 267.398C595.859 267.398 596.242 267.245 596.523 266.938C596.81 266.63 596.953 266.216 596.953 265.695Z" fill="white" fill-opacity="0.6"/>
<path d="M676.578 274H668.93V272.695L672.719 268.562C673.266 267.953 673.654 267.445 673.883 267.039C674.117 266.628 674.234 266.216 674.234 265.805C674.234 265.263 674.081 264.826 673.773 264.492C673.471 264.159 673.062 263.992 672.547 263.992C671.932 263.992 671.456 264.18 671.117 264.555C670.779 264.93 670.609 265.443 670.609 266.094H668.711C668.711 265.401 668.867 264.779 669.18 264.227C669.497 263.669 669.948 263.237 670.531 262.93C671.12 262.622 671.797 262.469 672.562 262.469C673.667 262.469 674.536 262.747 675.172 263.305C675.812 263.857 676.133 264.622 676.133 265.602C676.133 266.169 675.971 266.766 675.648 267.391C675.331 268.01 674.807 268.716 674.078 269.508L671.297 272.484H676.578V274ZM680.219 267.445H681.375C681.958 267.44 682.419 267.289 682.758 266.992C683.102 266.695 683.273 266.266 683.273 265.703C683.273 265.161 683.13 264.742 682.844 264.445C682.562 264.143 682.13 263.992 681.547 263.992C681.036 263.992 680.617 264.141 680.289 264.438C679.961 264.729 679.797 265.112 679.797 265.586H677.898C677.898 265.003 678.052 264.471 678.359 263.992C678.672 263.513 679.104 263.141 679.656 262.875C680.214 262.604 680.836 262.469 681.523 262.469C682.659 262.469 683.549 262.755 684.195 263.328C684.846 263.896 685.172 264.688 685.172 265.703C685.172 266.214 685.008 266.695 684.68 267.148C684.357 267.596 683.938 267.935 683.422 268.164C684.047 268.378 684.521 268.714 684.844 269.172C685.172 269.63 685.336 270.177 685.336 270.812C685.336 271.833 684.984 272.646 684.281 273.25C683.583 273.854 682.664 274.156 681.523 274.156C680.43 274.156 679.534 273.865 678.836 273.281C678.138 272.698 677.789 271.922 677.789 270.953H679.688C679.688 271.453 679.854 271.859 680.188 272.172C680.526 272.484 680.979 272.641 681.547 272.641C682.135 272.641 682.599 272.484 682.938 272.172C683.276 271.859 683.445 271.406 683.445 270.812C683.445 270.214 683.268 269.753 682.914 269.43C682.56 269.107 682.034 268.945 681.336 268.945H680.219V267.445ZM688.422 272C688.776 272 689.049 272.102 689.242 272.305C689.435 272.503 689.531 272.753 689.531 273.055C689.531 273.352 689.435 273.599 689.242 273.797C689.049 273.99 688.776 274.086 688.422 274.086C688.083 274.086 687.815 273.99 687.617 273.797C687.419 273.604 687.32 273.357 687.32 273.055C687.32 272.753 687.417 272.503 687.609 272.305C687.802 272.102 688.073 272 688.422 272ZM699 269.211C699 270.846 698.693 272.081 698.078 272.914C697.469 273.742 696.539 274.156 695.289 274.156C694.06 274.156 693.133 273.753 692.508 272.945C691.888 272.133 691.57 270.932 691.555 269.344V267.375C691.555 265.74 691.859 264.513 692.469 263.695C693.083 262.878 694.018 262.469 695.273 262.469C696.518 262.469 697.445 262.867 698.055 263.664C698.669 264.461 698.984 265.654 699 267.242V269.211ZM697.102 267.086C697.102 266.018 696.956 265.237 696.664 264.742C696.372 264.242 695.909 263.992 695.273 263.992C694.654 263.992 694.198 264.229 693.906 264.703C693.615 265.172 693.461 265.906 693.445 266.906V269.484C693.445 270.547 693.594 271.339 693.891 271.859C694.188 272.38 694.654 272.641 695.289 272.641C695.898 272.641 696.349 272.401 696.641 271.922C696.932 271.438 697.086 270.682 697.102 269.656V267.086ZM707.844 265.625C707.844 266.182 707.701 266.68 707.414 267.117C707.128 267.549 706.737 267.891 706.242 268.141C706.836 268.417 707.292 268.794 707.609 269.273C707.932 269.753 708.094 270.294 708.094 270.898C708.094 271.898 707.755 272.693 707.078 273.281C706.401 273.865 705.5 274.156 704.375 274.156C703.245 274.156 702.339 273.862 701.656 273.273C700.979 272.685 700.641 271.893 700.641 270.898C700.641 270.289 700.802 269.742 701.125 269.258C701.448 268.773 701.901 268.401 702.484 268.141C701.995 267.891 701.607 267.549 701.32 267.117C701.039 266.68 700.898 266.182 700.898 265.625C700.898 264.656 701.211 263.888 701.836 263.32C702.461 262.753 703.305 262.469 704.367 262.469C705.435 262.469 706.281 262.753 706.906 263.32C707.531 263.888 707.844 264.656 707.844 265.625ZM706.195 270.805C706.195 270.242 706.026 269.789 705.688 269.445C705.354 269.096 704.911 268.922 704.359 268.922C703.807 268.922 703.365 269.094 703.031 269.438C702.703 269.781 702.539 270.237 702.539 270.805C702.539 271.362 702.701 271.807 703.023 272.141C703.352 272.474 703.802 272.641 704.375 272.641C704.948 272.641 705.393 272.479 705.711 272.156C706.034 271.833 706.195 271.383 706.195 270.805ZM705.953 265.695C705.953 265.201 705.81 264.794 705.523 264.477C705.237 264.154 704.852 263.992 704.367 263.992C703.883 263.992 703.5 264.146 703.219 264.453C702.938 264.755 702.797 265.169 702.797 265.695C702.797 266.216 702.938 266.63 703.219 266.938C703.505 267.245 703.891 267.398 704.375 267.398C704.859 267.398 705.242 267.245 705.523 266.938C705.81 266.63 705.953 266.216 705.953 265.695Z" fill="white" fill-opacity="0.6"/>
<path d="M785.578 274H777.93V272.695L781.719 268.562C782.266 267.953 782.654 267.445 782.883 267.039C783.117 266.628 783.234 266.216 783.234 265.805C783.234 265.263 783.081 264.826 782.773 264.492C782.471 264.159 782.062 263.992 781.547 263.992C780.932 263.992 780.456 264.18 780.117 264.555C779.779 264.93 779.609 265.443 779.609 266.094H777.711C777.711 265.401 777.867 264.779 778.18 264.227C778.497 263.669 778.948 263.237 779.531 262.93C780.12 262.622 780.797 262.469 781.562 262.469C782.667 262.469 783.536 262.747 784.172 263.305C784.812 263.857 785.133 264.622 785.133 265.602C785.133 266.169 784.971 266.766 784.648 267.391C784.331 268.01 783.807 268.716 783.078 269.508L780.297 272.484H785.578V274ZM793.445 269.945H794.859V271.469H793.445V274H791.547V271.469H786.633L786.578 270.312L791.484 262.625H793.445V269.945ZM788.57 269.945H791.547V265.195L791.406 265.445L788.57 269.945ZM797.422 272C797.776 272 798.049 272.102 798.242 272.305C798.435 272.503 798.531 272.753 798.531 273.055C798.531 273.352 798.435 273.599 798.242 273.797C798.049 273.99 797.776 274.086 797.422 274.086C797.083 274.086 796.815 273.99 796.617 273.797C796.419 273.604 796.32 273.357 796.32 273.055C796.32 272.753 796.417 272.503 796.609 272.305C796.802 272.102 797.073 272 797.422 272ZM808 269.211C808 270.846 807.693 272.081 807.078 272.914C806.469 273.742 805.539 274.156 804.289 274.156C803.06 274.156 802.133 273.753 801.508 272.945C800.888 272.133 800.57 270.932 800.555 269.344V267.375C800.555 265.74 800.859 264.513 801.469 263.695C802.083 262.878 803.018 262.469 804.273 262.469C805.518 262.469 806.445 262.867 807.055 263.664C807.669 264.461 807.984 265.654 808 267.242V269.211ZM806.102 267.086C806.102 266.018 805.956 265.237 805.664 264.742C805.372 264.242 804.909 263.992 804.273 263.992C803.654 263.992 803.198 264.229 802.906 264.703C802.615 265.172 802.461 265.906 802.445 266.906V269.484C802.445 270.547 802.594 271.339 802.891 271.859C803.188 272.38 803.654 272.641 804.289 272.641C804.898 272.641 805.349 272.401 805.641 271.922C805.932 271.438 806.086 270.682 806.102 269.656V267.086ZM816.844 265.625C816.844 266.182 816.701 266.68 816.414 267.117C816.128 267.549 815.737 267.891 815.242 268.141C815.836 268.417 816.292 268.794 816.609 269.273C816.932 269.753 817.094 270.294 817.094 270.898C817.094 271.898 816.755 272.693 816.078 273.281C815.401 273.865 814.5 274.156 813.375 274.156C812.245 274.156 811.339 273.862 810.656 273.273C809.979 272.685 809.641 271.893 809.641 270.898C809.641 270.289 809.802 269.742 810.125 269.258C810.448 268.773 810.901 268.401 811.484 268.141C810.995 267.891 810.607 267.549 810.32 267.117C810.039 266.68 809.898 266.182 809.898 265.625C809.898 264.656 810.211 263.888 810.836 263.32C811.461 262.753 812.305 262.469 813.367 262.469C814.435 262.469 815.281 262.753 815.906 263.32C816.531 263.888 816.844 264.656 816.844 265.625ZM815.195 270.805C815.195 270.242 815.026 269.789 814.688 269.445C814.354 269.096 813.911 268.922 813.359 268.922C812.807 268.922 812.365 269.094 812.031 269.438C811.703 269.781 811.539 270.237 811.539 270.805C811.539 271.362 811.701 271.807 812.023 272.141C812.352 272.474 812.802 272.641 813.375 272.641C813.948 272.641 814.393 272.479 814.711 272.156C815.034 271.833 815.195 271.383 815.195 270.805ZM814.953 265.695C814.953 265.201 814.81 264.794 814.523 264.477C814.237 264.154 813.852 263.992 813.367 263.992C812.883 263.992 812.5 264.146 812.219 264.453C811.938 264.755 811.797 265.169 811.797 265.695C811.797 266.216 811.938 266.63 812.219 266.938C812.505 267.245 812.891 267.398 813.375 267.398C813.859 267.398 814.242 267.245 814.523 266.938C814.81 266.63 814.953 266.216 814.953 265.695Z" fill="white" fill-opacity="0.6"/>
<path d="M894.578 274H886.93V272.695L890.719 268.562C891.266 267.953 891.654 267.445 891.883 267.039C892.117 266.628 892.234 266.216 892.234 265.805C892.234 265.263 892.081 264.826 891.773 264.492C891.471 264.159 891.062 263.992 890.547 263.992C889.932 263.992 889.456 264.18 889.117 264.555C888.779 264.93 888.609 265.443 888.609 266.094H886.711C886.711 265.401 886.867 264.779 887.18 264.227C887.497 263.669 887.948 263.237 888.531 262.93C889.12 262.622 889.797 262.469 890.562 262.469C891.667 262.469 892.536 262.747 893.172 263.305C893.812 263.857 894.133 264.622 894.133 265.602C894.133 266.169 893.971 266.766 893.648 267.391C893.331 268.01 892.807 268.716 892.078 269.508L889.297 272.484H894.578V274ZM896.531 268.359L897.148 262.625H903.258V264.266H898.727L898.414 266.984C898.94 266.682 899.534 266.531 900.195 266.531C901.279 266.531 902.12 266.878 902.719 267.57C903.323 268.263 903.625 269.195 903.625 270.367C903.625 271.523 903.292 272.445 902.625 273.133C901.958 273.815 901.044 274.156 899.883 274.156C898.841 274.156 897.977 273.862 897.289 273.273C896.607 272.68 896.237 271.898 896.18 270.93H898.016C898.089 271.482 898.286 271.906 898.609 272.203C898.932 272.495 899.354 272.641 899.875 272.641C900.458 272.641 900.911 272.432 901.234 272.016C901.562 271.599 901.727 271.031 901.727 270.312C901.727 269.62 901.547 269.073 901.188 268.672C900.828 268.266 900.333 268.062 899.703 268.062C899.359 268.062 899.068 268.109 898.828 268.203C898.589 268.292 898.328 268.469 898.047 268.734L896.531 268.359ZM906.422 272C906.776 272 907.049 272.102 907.242 272.305C907.435 272.503 907.531 272.753 907.531 273.055C907.531 273.352 907.435 273.599 907.242 273.797C907.049 273.99 906.776 274.086 906.422 274.086C906.083 274.086 905.815 273.99 905.617 273.797C905.419 273.604 905.32 273.357 905.32 273.055C905.32 272.753 905.417 272.503 905.609 272.305C905.802 272.102 906.073 272 906.422 272ZM917 269.211C917 270.846 916.693 272.081 916.078 272.914C915.469 273.742 914.539 274.156 913.289 274.156C912.06 274.156 911.133 273.753 910.508 272.945C909.888 272.133 909.57 270.932 909.555 269.344V267.375C909.555 265.74 909.859 264.513 910.469 263.695C911.083 262.878 912.018 262.469 913.273 262.469C914.518 262.469 915.445 262.867 916.055 263.664C916.669 264.461 916.984 265.654 917 267.242V269.211ZM915.102 267.086C915.102 266.018 914.956 265.237 914.664 264.742C914.372 264.242 913.909 263.992 913.273 263.992C912.654 263.992 912.198 264.229 911.906 264.703C911.615 265.172 911.461 265.906 911.445 266.906V269.484C911.445 270.547 911.594 271.339 911.891 271.859C912.188 272.38 912.654 272.641 913.289 272.641C913.898 272.641 914.349 272.401 914.641 271.922C914.932 271.438 915.086 270.682 915.102 269.656V267.086ZM925.844 265.625C925.844 266.182 925.701 266.68 925.414 267.117C925.128 267.549 924.737 267.891 924.242 268.141C924.836 268.417 925.292 268.794 925.609 269.273C925.932 269.753 926.094 270.294 926.094 270.898C926.094 271.898 925.755 272.693 925.078 273.281C924.401 273.865 923.5 274.156 922.375 274.156C921.245 274.156 920.339 273.862 919.656 273.273C918.979 272.685 918.641 271.893 918.641 270.898C918.641 270.289 918.802 269.742 919.125 269.258C919.448 268.773 919.901 268.401 920.484 268.141C919.995 267.891 919.607 267.549 919.32 267.117C919.039 266.68 918.898 266.182 918.898 265.625C918.898 264.656 919.211 263.888 919.836 263.32C920.461 262.753 921.305 262.469 922.367 262.469C923.435 262.469 924.281 262.753 924.906 263.32C925.531 263.888 925.844 264.656 925.844 265.625ZM924.195 270.805C924.195 270.242 924.026 269.789 923.688 269.445C923.354 269.096 922.911 268.922 922.359 268.922C921.807 268.922 921.365 269.094 921.031 269.438C920.703 269.781 920.539 270.237 920.539 270.805C920.539 271.362 920.701 271.807 921.023 272.141C921.352 272.474 921.802 272.641 922.375 272.641C922.948 272.641 923.393 272.479 923.711 272.156C924.034 271.833 924.195 271.383 924.195 270.805ZM923.953 265.695C923.953 265.201 923.81 264.794 923.523 264.477C923.237 264.154 922.852 263.992 922.367 263.992C921.883 263.992 921.5 264.146 921.219 264.453C920.938 264.755 920.797 265.169 920.797 265.695C920.797 266.216 920.938 266.63 921.219 266.938C921.505 267.245 921.891 267.398 922.375 267.398C922.859 267.398 923.242 267.245 923.523 266.938C923.81 266.63 923.953 266.216 923.953 265.695Z" fill="white" fill-opacity="0.6"/>
<path d="M1003.58 274H995.93V272.695L999.719 268.562C1000.27 267.953 1000.65 267.445 1000.88 267.039C1001.12 266.628 1001.23 266.216 1001.23 265.805C1001.23 265.263 1001.08 264.826 1000.77 264.492C1000.47 264.159 1000.06 263.992 999.547 263.992C998.932 263.992 998.456 264.18 998.117 264.555C997.779 264.93 997.609 265.443 997.609 266.094H995.711C995.711 265.401 995.867 264.779 996.18 264.227C996.497 263.669 996.948 263.237 997.531 262.93C998.12 262.622 998.797 262.469 999.562 262.469C1000.67 262.469 1001.54 262.747 1002.17 263.305C1002.81 263.857 1003.13 264.622 1003.13 265.602C1003.13 266.169 1002.97 266.766 1002.65 267.391C1002.33 268.01 1001.81 268.716 1001.08 269.508L998.297 272.484H1003.58V274ZM1010.93 262.57V264.141H1010.7C1009.63 264.156 1008.78 264.448 1008.15 265.016C1007.51 265.583 1007.14 266.388 1007.02 267.43C1007.62 266.789 1008.4 266.469 1009.35 266.469C1010.36 266.469 1011.15 266.823 1011.73 267.531C1012.31 268.24 1012.6 269.154 1012.6 270.273C1012.6 271.43 1012.26 272.367 1011.58 273.086C1010.9 273.799 1010.01 274.156 1008.91 274.156C1007.77 274.156 1006.85 273.737 1006.14 272.898C1005.44 272.06 1005.09 270.961 1005.09 269.602V268.953C1005.09 266.958 1005.57 265.396 1006.54 264.266C1007.51 263.135 1008.91 262.57 1010.73 262.57H1010.93ZM1008.89 268C1008.47 268 1008.09 268.117 1007.74 268.352C1007.4 268.586 1007.15 268.898 1006.98 269.289V269.867C1006.98 270.711 1007.16 271.383 1007.52 271.883C1007.87 272.378 1008.33 272.625 1008.89 272.625C1009.45 272.625 1009.9 272.414 1010.23 271.992C1010.55 271.57 1010.72 271.016 1010.72 270.328C1010.72 269.641 1010.55 269.081 1010.22 268.648C1009.89 268.216 1009.44 268 1008.89 268ZM1015.42 272C1015.78 272 1016.05 272.102 1016.24 272.305C1016.43 272.503 1016.53 272.753 1016.53 273.055C1016.53 273.352 1016.43 273.599 1016.24 273.797C1016.05 273.99 1015.78 274.086 1015.42 274.086C1015.08 274.086 1014.82 273.99 1014.62 273.797C1014.42 273.604 1014.32 273.357 1014.32 273.055C1014.32 272.753 1014.42 272.503 1014.61 272.305C1014.8 272.102 1015.07 272 1015.42 272ZM1026 269.211C1026 270.846 1025.69 272.081 1025.08 272.914C1024.47 273.742 1023.54 274.156 1022.29 274.156C1021.06 274.156 1020.13 273.753 1019.51 272.945C1018.89 272.133 1018.57 270.932 1018.55 269.344V267.375C1018.55 265.74 1018.86 264.513 1019.47 263.695C1020.08 262.878 1021.02 262.469 1022.27 262.469C1023.52 262.469 1024.45 262.867 1025.05 263.664C1025.67 264.461 1025.98 265.654 1026 267.242V269.211ZM1024.1 267.086C1024.1 266.018 1023.96 265.237 1023.66 264.742C1023.37 264.242 1022.91 263.992 1022.27 263.992C1021.65 263.992 1021.2 264.229 1020.91 264.703C1020.61 265.172 1020.46 265.906 1020.45 266.906V269.484C1020.45 270.547 1020.59 271.339 1020.89 271.859C1021.19 272.38 1021.65 272.641 1022.29 272.641C1022.9 272.641 1023.35 272.401 1023.64 271.922C1023.93 271.438 1024.09 270.682 1024.1 269.656V267.086ZM1034.84 265.625C1034.84 266.182 1034.7 266.68 1034.41 267.117C1034.13 267.549 1033.74 267.891 1033.24 268.141C1033.84 268.417 1034.29 268.794 1034.61 269.273C1034.93 269.753 1035.09 270.294 1035.09 270.898C1035.09 271.898 1034.76 272.693 1034.08 273.281C1033.4 273.865 1032.5 274.156 1031.38 274.156C1030.24 274.156 1029.34 273.862 1028.66 273.273C1027.98 272.685 1027.64 271.893 1027.64 270.898C1027.64 270.289 1027.8 269.742 1028.12 269.258C1028.45 268.773 1028.9 268.401 1029.48 268.141C1028.99 267.891 1028.61 267.549 1028.32 267.117C1028.04 266.68 1027.9 266.182 1027.9 265.625C1027.9 264.656 1028.21 263.888 1028.84 263.32C1029.46 262.753 1030.3 262.469 1031.37 262.469C1032.43 262.469 1033.28 262.753 1033.91 263.32C1034.53 263.888 1034.84 264.656 1034.84 265.625ZM1033.2 270.805C1033.2 270.242 1033.03 269.789 1032.69 269.445C1032.35 269.096 1031.91 268.922 1031.36 268.922C1030.81 268.922 1030.36 269.094 1030.03 269.438C1029.7 269.781 1029.54 270.237 1029.54 270.805C1029.54 271.362 1029.7 271.807 1030.02 272.141C1030.35 272.474 1030.8 272.641 1031.38 272.641C1031.95 272.641 1032.39 272.479 1032.71 272.156C1033.03 271.833 1033.2 271.383 1033.2 270.805ZM1032.95 265.695C1032.95 265.201 1032.81 264.794 1032.52 264.477C1032.24 264.154 1031.85 263.992 1031.37 263.992C1030.88 263.992 1030.5 264.146 1030.22 264.453C1029.94 264.755 1029.8 265.169 1029.8 265.695C1029.8 266.216 1029.94 266.63 1030.22 266.938C1030.51 267.245 1030.89 267.398 1031.38 267.398C1031.86 267.398 1032.24 267.245 1032.52 266.938C1032.81 266.63 1032.95 266.216 1032.95 265.695Z" fill="white" fill-opacity="0.6"/>
<path d="M1131.08 181.359L1131.7 175.625H1137.8V177.266H1133.27L1132.96 179.984C1133.49 179.682 1134.08 179.531 1134.74 179.531C1135.83 179.531 1136.67 179.878 1137.27 180.57C1137.87 181.263 1138.17 182.195 1138.17 183.367C1138.17 184.523 1137.84 185.445 1137.17 186.133C1136.51 186.815 1135.59 187.156 1134.43 187.156C1133.39 187.156 1132.52 186.862 1131.84 186.273C1131.15 185.68 1130.78 184.898 1130.73 183.93H1132.56C1132.64 184.482 1132.83 184.906 1133.16 185.203C1133.48 185.495 1133.9 185.641 1134.42 185.641C1135.01 185.641 1135.46 185.432 1135.78 185.016C1136.11 184.599 1136.27 184.031 1136.27 183.312C1136.27 182.62 1136.09 182.073 1135.73 181.672C1135.38 181.266 1134.88 181.062 1134.25 181.062C1133.91 181.062 1133.61 181.109 1133.38 181.203C1133.14 181.292 1132.88 181.469 1132.59 181.734L1131.08 181.359ZM1147.08 182.211C1147.08 183.846 1146.77 185.081 1146.16 185.914C1145.55 186.742 1144.62 187.156 1143.37 187.156C1142.14 187.156 1141.21 186.753 1140.59 185.945C1139.97 185.133 1139.65 183.932 1139.63 182.344V180.375C1139.63 178.74 1139.94 177.513 1140.55 176.695C1141.16 175.878 1142.1 175.469 1143.35 175.469C1144.6 175.469 1145.52 175.867 1146.13 176.664C1146.75 177.461 1147.06 178.654 1147.08 180.242V182.211ZM1145.18 180.086C1145.18 179.018 1145.03 178.237 1144.74 177.742C1144.45 177.242 1143.99 176.992 1143.35 176.992C1142.73 176.992 1142.28 177.229 1141.98 177.703C1141.69 178.172 1141.54 178.906 1141.52 179.906V182.484C1141.52 183.547 1141.67 184.339 1141.97 184.859C1142.27 185.38 1142.73 185.641 1143.37 185.641C1143.98 185.641 1144.43 185.401 1144.72 184.922C1145.01 184.438 1145.16 183.682 1145.18 182.656V180.086ZM1156.17 182.211C1156.17 183.846 1155.86 185.081 1155.25 185.914C1154.64 186.742 1153.71 187.156 1152.46 187.156C1151.23 187.156 1150.3 186.753 1149.68 185.945C1149.06 185.133 1148.74 183.932 1148.73 182.344V180.375C1148.73 178.74 1149.03 177.513 1149.64 176.695C1150.26 175.878 1151.19 175.469 1152.45 175.469C1153.69 175.469 1154.62 175.867 1155.23 176.664C1155.84 177.461 1156.16 178.654 1156.17 180.242V182.211ZM1154.27 180.086C1154.27 179.018 1154.13 178.237 1153.84 177.742C1153.54 177.242 1153.08 176.992 1152.45 176.992C1151.83 176.992 1151.37 177.229 1151.08 177.703C1150.79 178.172 1150.63 178.906 1150.62 179.906V182.484C1150.62 183.547 1150.77 184.339 1151.06 184.859C1151.36 185.38 1151.83 185.641 1152.46 185.641C1153.07 185.641 1153.52 185.401 1153.81 184.922C1154.1 184.438 1154.26 183.682 1154.27 182.656V180.086Z" fill="#F8F8F8" fill-opacity="0.6"/>
<path d="M1126.62 130H1124.73V120.867L1121.94 121.82V120.219L1126.38 118.586H1126.62V130ZM1137.98 125.211C1137.98 126.846 1137.68 128.081 1137.06 128.914C1136.45 129.742 1135.52 130.156 1134.27 130.156C1133.04 130.156 1132.12 129.753 1131.49 128.945C1130.87 128.133 1130.55 126.932 1130.54 125.344V123.375C1130.54 121.74 1130.84 120.513 1131.45 119.695C1132.07 118.878 1133 118.469 1134.26 118.469C1135.5 118.469 1136.43 118.867 1137.04 119.664C1137.65 120.461 1137.97 121.654 1137.98 123.242V125.211ZM1136.09 123.086C1136.09 122.018 1135.94 121.237 1135.65 120.742C1135.36 120.242 1134.89 119.992 1134.26 119.992C1133.64 119.992 1133.18 120.229 1132.89 120.703C1132.6 121.172 1132.45 121.906 1132.43 122.906V125.484C1132.43 126.547 1132.58 127.339 1132.88 127.859C1133.17 128.38 1133.64 128.641 1134.27 128.641C1134.88 128.641 1135.33 128.401 1135.62 127.922C1135.92 127.438 1136.07 126.682 1136.09 125.656V123.086ZM1147.08 125.211C1147.08 126.846 1146.77 128.081 1146.16 128.914C1145.55 129.742 1144.62 130.156 1143.37 130.156C1142.14 130.156 1141.21 129.753 1140.59 128.945C1139.97 128.133 1139.65 126.932 1139.63 125.344V123.375C1139.63 121.74 1139.94 120.513 1140.55 119.695C1141.16 118.878 1142.1 118.469 1143.35 118.469C1144.6 118.469 1145.52 118.867 1146.13 119.664C1146.75 120.461 1147.06 121.654 1147.08 123.242V125.211ZM1145.18 123.086C1145.18 122.018 1145.03 121.237 1144.74 120.742C1144.45 120.242 1143.99 119.992 1143.35 119.992C1142.73 119.992 1142.28 120.229 1141.98 120.703C1141.69 121.172 1141.54 121.906 1141.52 122.906V125.484C1141.52 126.547 1141.67 127.339 1141.97 127.859C1142.27 128.38 1142.73 128.641 1143.37 128.641C1143.98 128.641 1144.43 128.401 1144.72 127.922C1145.01 127.438 1145.16 126.682 1145.18 125.656V123.086ZM1156.17 125.211C1156.17 126.846 1155.86 128.081 1155.25 128.914C1154.64 129.742 1153.71 130.156 1152.46 130.156C1151.23 130.156 1150.3 129.753 1149.68 128.945C1149.06 128.133 1148.74 126.932 1148.73 125.344V123.375C1148.73 121.74 1149.03 120.513 1149.64 119.695C1150.26 118.878 1151.19 118.469 1152.45 118.469C1153.69 118.469 1154.62 118.867 1155.23 119.664C1155.84 120.461 1156.16 121.654 1156.17 123.242V125.211ZM1154.27 123.086C1154.27 122.018 1154.13 121.237 1153.84 120.742C1153.54 120.242 1153.08 119.992 1152.45 119.992C1151.83 119.992 1151.37 120.229 1151.08 120.703C1150.79 121.172 1150.63 121.906 1150.62 122.906V125.484C1150.62 126.547 1150.77 127.339 1151.06 127.859C1151.36 128.38 1151.83 128.641 1152.46 128.641C1153.07 128.641 1153.52 128.401 1153.81 127.922C1154.1 127.438 1154.26 126.682 1154.27 125.656V123.086Z" fill="#F8F8F8" fill-opacity="0.6"/>
<path d="M1126.62 73H1124.73V63.8672L1121.94 64.8203V63.2188L1126.38 61.5859H1126.62V73ZM1131.08 67.3594L1131.7 61.625H1137.8V63.2656H1133.27L1132.96 65.9844C1133.49 65.6823 1134.08 65.5312 1134.74 65.5312C1135.83 65.5312 1136.67 65.8776 1137.27 66.5703C1137.87 67.263 1138.17 68.1953 1138.17 69.3672C1138.17 70.5234 1137.84 71.4453 1137.17 72.1328C1136.51 72.8151 1135.59 73.1562 1134.43 73.1562C1133.39 73.1562 1132.52 72.862 1131.84 72.2734C1131.15 71.6797 1130.78 70.8984 1130.73 69.9297H1132.56C1132.64 70.4818 1132.83 70.9062 1133.16 71.2031C1133.48 71.4948 1133.9 71.6406 1134.42 71.6406C1135.01 71.6406 1135.46 71.4323 1135.78 71.0156C1136.11 70.599 1136.27 70.0312 1136.27 69.3125C1136.27 68.6198 1136.09 68.0729 1135.73 67.6719C1135.38 67.2656 1134.88 67.0625 1134.25 67.0625C1133.91 67.0625 1133.61 67.1094 1133.38 67.2031C1133.14 67.2917 1132.88 67.4688 1132.59 67.7344L1131.08 67.3594ZM1147.08 68.2109C1147.08 69.8464 1146.77 71.0807 1146.16 71.9141C1145.55 72.7422 1144.62 73.1562 1143.37 73.1562C1142.14 73.1562 1141.21 72.7526 1140.59 71.9453C1139.97 71.1328 1139.65 69.9323 1139.63 68.3438V66.375C1139.63 64.7396 1139.94 63.513 1140.55 62.6953C1141.16 61.8776 1142.1 61.4688 1143.35 61.4688C1144.6 61.4688 1145.52 61.8672 1146.13 62.6641C1146.75 63.4609 1147.06 64.6536 1147.08 66.2422V68.2109ZM1145.18 66.0859C1145.18 65.0182 1145.03 64.237 1144.74 63.7422C1144.45 63.2422 1143.99 62.9922 1143.35 62.9922C1142.73 62.9922 1142.28 63.2292 1141.98 63.7031C1141.69 64.1719 1141.54 64.9062 1141.52 65.9062V68.4844C1141.52 69.5469 1141.67 70.3385 1141.97 70.8594C1142.27 71.3802 1142.73 71.6406 1143.37 71.6406C1143.98 71.6406 1144.43 71.401 1144.72 70.9219C1145.01 70.4375 1145.16 69.6823 1145.18 68.6562V66.0859ZM1156.17 68.2109C1156.17 69.8464 1155.86 71.0807 1155.25 71.9141C1154.64 72.7422 1153.71 73.1562 1152.46 73.1562C1151.23 73.1562 1150.3 72.7526 1149.68 71.9453C1149.06 71.1328 1148.74 69.9323 1148.73 68.3438V66.375C1148.73 64.7396 1149.03 63.513 1149.64 62.6953C1150.26 61.8776 1151.19 61.4688 1152.45 61.4688C1153.69 61.4688 1154.62 61.8672 1155.23 62.6641C1155.84 63.4609 1156.16 64.6536 1156.17 66.2422V68.2109ZM1154.27 66.0859C1154.27 65.0182 1154.13 64.237 1153.84 63.7422C1153.54 63.2422 1153.08 62.9922 1152.45 62.9922C1151.83 62.9922 1151.37 63.2292 1151.08 63.7031C1150.79 64.1719 1150.63 64.9062 1150.62 65.9062V68.4844C1150.62 69.5469 1150.77 70.3385 1151.06 70.8594C1151.36 71.3802 1151.83 71.6406 1152.46 71.6406C1153.07 71.6406 1153.52 71.401 1153.81 70.9219C1154.1 70.4375 1154.26 69.6823 1154.27 68.6562V66.0859Z" fill="#F8F8F8" fill-opacity="0.6"/>
<path d="M1126.62 34H1124.73V24.8672L1121.94 25.8203V24.2188L1126.38 22.5859H1126.62V34ZM1138.14 23.6797L1133.59 34H1131.6L1136.14 24.1484H1130.26V22.625H1138.14V23.6797ZM1144.8 34H1142.91V24.8672L1140.12 25.8203V24.2188L1144.56 22.5859H1144.8V34ZM1149.27 28.3594L1149.88 22.625H1155.99V24.2656H1151.46L1151.15 26.9844C1151.67 26.6823 1152.27 26.5312 1152.93 26.5312C1154.01 26.5312 1154.85 26.8776 1155.45 27.5703C1156.06 28.263 1156.36 29.1953 1156.36 30.3672C1156.36 31.5234 1156.03 32.4453 1155.36 33.1328C1154.69 33.8151 1153.78 34.1562 1152.62 34.1562C1151.58 34.1562 1150.71 33.862 1150.02 33.2734C1149.34 32.6797 1148.97 31.8984 1148.91 30.9297H1150.75C1150.82 31.4818 1151.02 31.9062 1151.34 32.2031C1151.67 32.4948 1152.09 32.6406 1152.61 32.6406C1153.19 32.6406 1153.65 32.4323 1153.97 32.0156C1154.3 31.599 1154.46 31.0312 1154.46 30.3125C1154.46 29.6198 1154.28 29.0729 1153.92 28.6719C1153.56 28.2656 1153.07 28.0625 1152.44 28.0625C1152.09 28.0625 1151.8 28.1094 1151.56 28.2031C1151.32 28.2917 1151.06 28.4688 1150.78 28.7344L1149.27 28.3594Z" fill="#F8F8F8" fill-opacity="0.6"/>
<line x1="1079" y1="241.5" y2="241.5" stroke="#F8F8F8" stroke-opacity="0.2"/>
<line x1="1079" y1="181.5" y2="181.5" stroke="#F8F8F8" stroke-opacity="0.2"/>
<line x1="1015.5" y1="241" x2="1015.5" y2="9" stroke="url(#paint1_linear)" stroke-opacity="0.2"/>
<line x1="906.5" y1="241" x2="906.5" y2="9" stroke="url(#paint2_linear)" stroke-opacity="0.2"/>
<line x1="797.5" y1="241" x2="797.5" y2="9" stroke="url(#paint3_linear)" stroke-opacity="0.2"/>
<line x1="688.5" y1="241" x2="688.5" y2="9" stroke="url(#paint4_linear)" stroke-opacity="0.2"/>
<line x1="579.5" y1="241" x2="579.5" y2="9" stroke="url(#paint5_linear)" stroke-opacity="0.2"/>
<line x1="470.5" y1="241" x2="470.5" y2="9" stroke="url(#paint6_linear)" stroke-opacity="0.2"/>
<line x1="361.5" y1="241" x2="361.5" y2="9" stroke="url(#paint7_linear)" stroke-opacity="0.2"/>
<line x1="252.5" y1="241" x2="252.5" y2="9" stroke="url(#paint8_linear)" stroke-opacity="0.2"/>
<line x1="143.5" y1="241" x2="143.5" y2="9" stroke="url(#paint9_linear)" stroke-opacity="0.2"/>
<line x1="34.5" y1="241" x2="34.5" y2="9" stroke="url(#paint10_linear)" stroke-opacity="0.2"/>
<line x1="1079" y1="124.5" y2="124.5" stroke="#F8F8F8" stroke-opacity="0.2"/>
<line x1="1079" y1="67.5" y2="67.5" stroke="#F8F8F8" stroke-opacity="0.2"/>
<line x1="1079" y1="28.5" y2="28.5" stroke="#F8F8F8" stroke-opacity="0.2"/>
<circle cx="788.5" cy="87.5" r="5.5" fill="#F8F8F8"/>
<g filter="url(#filter0_b)">
<rect x="750" width="150" height="75" rx="4" fill="#F8F8F8" fill-opacity="0.2"/>
</g>
<path d="M771.927 49H770.662V42.6494H767.258V49H765.986V41.6035H771.927V49Z" fill="white" fill-opacity="0.4"/>
<path d="M771.193 16.8418C771.07 17.8945 770.681 18.708 770.024 19.2822C769.373 19.8519 768.505 20.1367 767.42 20.1367C766.244 20.1367 765.301 19.7152 764.59 18.8721C763.883 18.029 763.53 16.901 763.53 15.4883V14.5312C763.53 13.6061 763.694 12.7926 764.022 12.0908C764.355 11.389 764.825 10.8512 765.431 10.4775C766.037 10.0993 766.739 9.91016 767.536 9.91016C768.593 9.91016 769.441 10.2064 770.079 10.7988C770.717 11.3867 771.089 12.2025 771.193 13.2461H769.874C769.76 12.4531 769.512 11.8789 769.129 11.5234C768.751 11.168 768.22 10.9902 767.536 10.9902C766.698 10.9902 766.039 11.3001 765.561 11.9199C765.087 12.5397 764.85 13.4215 764.85 14.5654V15.5293C764.85 16.6094 765.075 17.4684 765.526 18.1064C765.978 18.7445 766.609 19.0635 767.42 19.0635C768.149 19.0635 768.707 18.8994 769.095 18.5713C769.487 18.2386 769.746 17.6621 769.874 16.8418H771.193ZM776.04 13.0273C776.97 13.0273 777.713 13.3395 778.269 13.9639C778.829 14.5837 779.109 15.4017 779.109 16.418V16.5342C779.109 17.2314 778.975 17.8558 778.706 18.4072C778.437 18.9541 778.05 19.3802 777.544 19.6855C777.043 19.9863 776.464 20.1367 775.808 20.1367C774.814 20.1367 774.014 19.8063 773.408 19.1455C772.802 18.4801 772.499 17.5892 772.499 16.4727V15.8574C772.499 14.3034 772.786 13.0684 773.36 12.1523C773.939 11.2363 774.791 10.6781 775.917 10.4775C776.555 10.3636 776.986 10.2246 777.209 10.0605C777.432 9.89648 777.544 9.6709 777.544 9.38379H778.583C778.583 9.95345 778.453 10.3978 778.193 10.7168C777.938 11.0358 777.528 11.2614 776.963 11.3936L776.02 11.6055C775.268 11.7832 774.702 12.084 774.324 12.5078C773.951 12.9271 773.707 13.4876 773.593 14.1895C774.263 13.4147 775.078 13.0273 776.04 13.0273ZM775.794 14.0664C775.174 14.0664 774.682 14.276 774.317 14.6953C773.953 15.11 773.771 15.6865 773.771 16.4248V16.5342C773.771 17.3271 773.953 17.9561 774.317 18.4209C774.687 18.8812 775.183 19.1113 775.808 19.1113C776.437 19.1113 776.933 18.8789 777.298 18.4141C777.662 17.9492 777.845 17.2702 777.845 16.377C777.845 15.6797 777.66 15.1214 777.291 14.7021C776.926 14.2783 776.427 14.0664 775.794 14.0664ZM780.49 21.9824L779.772 21.4902C780.201 20.8932 780.424 20.278 780.442 19.6445V18.5029H781.68V19.4941C781.68 19.9544 781.566 20.4147 781.338 20.875C781.115 21.3353 780.832 21.7044 780.49 21.9824ZM793.144 20H786.622V19.0908L790.067 15.2627C790.578 14.6839 790.929 14.2145 791.12 13.8545C791.316 13.4899 791.414 13.1139 791.414 12.7266C791.414 12.207 791.257 11.7809 790.942 11.4482C790.628 11.1156 790.209 10.9492 789.685 10.9492C789.056 10.9492 788.566 11.1292 788.215 11.4893C787.868 11.8447 787.695 12.3415 787.695 12.9795H786.431C786.431 12.0635 786.725 11.3229 787.312 10.7578C787.905 10.1927 788.696 9.91016 789.685 9.91016C790.61 9.91016 791.341 10.154 791.879 10.6416C792.417 11.1247 792.686 11.7695 792.686 12.5762C792.686 13.556 792.061 14.7227 790.812 16.0762L788.146 18.9678H793.144V20ZM799.822 16.6572H801.203V17.6895H799.822V20H798.551V17.6895H794.019V16.9443L798.476 10.0469H799.822V16.6572ZM795.454 16.6572H798.551V11.7764L798.4 12.0498L795.454 16.6572ZM811.642 17.4023H807.472L806.535 20H805.182L808.982 10.0469H810.131L813.938 20H812.592L811.642 17.4023ZM807.868 16.3223H811.252L809.557 11.667L807.868 16.3223ZM815.196 20V12.6035H818.081C819.065 12.6035 819.82 12.7767 820.344 13.123C820.872 13.4648 821.137 13.9684 821.137 14.6338C821.137 14.9756 821.034 15.2855 820.829 15.5635C820.624 15.8369 820.321 16.0465 819.92 16.1924C820.367 16.2972 820.724 16.5023 820.993 16.8076C821.267 17.113 821.403 17.4775 821.403 17.9014C821.403 18.5804 821.153 19.0999 820.651 19.46C820.155 19.82 819.451 20 818.539 20H815.196ZM816.461 16.7529V18.9814H818.553C819.081 18.9814 819.476 18.8835 819.735 18.6875C820 18.4915 820.132 18.2158 820.132 17.8604C820.132 17.1221 819.59 16.7529 818.505 16.7529H816.461ZM816.461 15.7412H818.095C819.28 15.7412 819.872 15.3949 819.872 14.7021C819.872 14.0094 819.312 13.6517 818.19 13.6289H816.461V15.7412ZM827.856 13.6494H824.445V20H823.174V12.6035H827.856V13.6494Z" fill="white"/>
<path d="M769.329 65H767.675V57.0088L765.234 57.8428V56.4414L769.117 55.0127H769.329V65ZM778.407 61.4521H779.645V62.7852H778.407V65H776.746V62.7852H772.446L772.398 61.7734L776.691 55.0469H778.407V61.4521ZM774.142 61.4521H776.746V57.2959L776.623 57.5146L774.142 61.4521ZM782.666 59.2646H783.678C784.188 59.2601 784.591 59.1279 784.888 58.8682C785.188 58.6084 785.339 58.2324 785.339 57.7402C785.339 57.2663 785.214 56.8994 784.963 56.6396C784.717 56.3753 784.339 56.2432 783.828 56.2432C783.382 56.2432 783.015 56.373 782.728 56.6328C782.44 56.888 782.297 57.223 782.297 57.6377H780.636C780.636 57.1273 780.77 56.6624 781.039 56.2432C781.312 55.8239 781.691 55.498 782.174 55.2656C782.661 55.0286 783.206 54.9102 783.808 54.9102C784.801 54.9102 785.58 55.1608 786.146 55.6621C786.715 56.1589 787 56.8516 787 57.7402C787 58.1868 786.856 58.6084 786.569 59.0049C786.287 59.3968 785.92 59.693 785.469 59.8936C786.016 60.0804 786.43 60.3743 786.713 60.7754C787 61.1764 787.144 61.6549 787.144 62.2109C787.144 63.1042 786.836 63.8151 786.221 64.3438C785.61 64.8724 784.806 65.1367 783.808 65.1367C782.851 65.1367 782.067 64.8815 781.456 64.3711C780.845 63.8607 780.54 63.1816 780.54 62.334H782.201C782.201 62.7715 782.347 63.127 782.639 63.4004C782.935 63.6738 783.331 63.8105 783.828 63.8105C784.343 63.8105 784.749 63.6738 785.045 63.4004C785.341 63.127 785.489 62.7305 785.489 62.2109C785.489 61.6868 785.334 61.2835 785.024 61.001C784.715 60.7184 784.254 60.5771 783.644 60.5771H782.666V59.2646ZM793.87 54.999V56.373H793.665C792.735 56.3867 791.993 56.6419 791.437 57.1387C790.881 57.6354 790.55 58.3395 790.445 59.251C790.979 58.6904 791.66 58.4102 792.489 58.4102C793.369 58.4102 794.062 58.7201 794.567 59.3398C795.078 59.9596 795.333 60.7594 795.333 61.7393C795.333 62.751 795.035 63.5713 794.438 64.2002C793.845 64.8245 793.066 65.1367 792.1 65.1367C791.106 65.1367 790.299 64.7699 789.68 64.0361C789.064 63.3024 788.757 62.3408 788.757 61.1514V60.584C788.757 58.8385 789.181 57.4714 790.028 56.4824C790.881 55.4935 792.104 54.999 793.699 54.999H793.87ZM792.086 59.75C791.721 59.75 791.386 59.8525 791.081 60.0576C790.78 60.2627 790.559 60.5361 790.418 60.8779V61.3838C790.418 62.1221 790.573 62.71 790.883 63.1475C791.193 63.5804 791.594 63.7969 792.086 63.7969C792.578 63.7969 792.968 63.6123 793.255 63.2432C793.542 62.874 793.686 62.3887 793.686 61.7871C793.686 61.1855 793.54 60.6956 793.248 60.3174C792.956 59.9391 792.569 59.75 792.086 59.75Z" fill="white"/>
<path d="M819.92 49H818.655V45.8418H815.258V49H813.986V41.6035H815.258V44.8096H818.655V41.6035H819.92V49Z" fill="white" fill-opacity="0.4"/>
<path d="M815.73 59.2646H816.742C817.253 59.2601 817.656 59.1279 817.952 58.8682C818.253 58.6084 818.403 58.2324 818.403 57.7402C818.403 57.2663 818.278 56.8994 818.027 56.6396C817.781 56.3753 817.403 56.2432 816.893 56.2432C816.446 56.2432 816.079 56.373 815.792 56.6328C815.505 56.888 815.361 57.223 815.361 57.6377H813.7C813.7 57.1273 813.835 56.6624 814.104 56.2432C814.377 55.8239 814.755 55.498 815.238 55.2656C815.726 55.0286 816.271 54.9102 816.872 54.9102C817.866 54.9102 818.645 55.1608 819.21 55.6621C819.78 56.1589 820.064 56.8516 820.064 57.7402C820.064 58.1868 819.921 58.6084 819.634 59.0049C819.351 59.3968 818.984 59.693 818.533 59.8936C819.08 60.0804 819.495 60.3743 819.777 60.7754C820.064 61.1764 820.208 61.6549 820.208 62.2109C820.208 63.1042 819.9 63.8151 819.285 64.3438C818.674 64.8724 817.87 65.1367 816.872 65.1367C815.915 65.1367 815.131 64.8815 814.521 64.3711C813.91 63.8607 813.604 63.1816 813.604 62.334H815.266C815.266 62.7715 815.411 63.127 815.703 63.4004C815.999 63.6738 816.396 63.8105 816.893 63.8105C817.408 63.8105 817.813 63.6738 818.109 63.4004C818.406 63.127 818.554 62.7305 818.554 62.2109C818.554 61.6868 818.399 61.2835 818.089 61.001C817.779 60.7184 817.319 60.5771 816.708 60.5771H815.73V59.2646ZM828.459 65H821.767V63.8584L825.082 60.2422C825.561 59.709 825.9 59.2646 826.101 58.9092C826.306 58.5492 826.408 58.1891 826.408 57.8291C826.408 57.3551 826.274 56.9723 826.005 56.6807C825.741 56.389 825.383 56.2432 824.932 56.2432C824.394 56.2432 823.977 56.4072 823.681 56.7354C823.384 57.0635 823.236 57.5124 823.236 58.082H821.575C821.575 57.4759 821.712 56.9313 821.985 56.4482C822.263 55.9606 822.658 55.5824 823.168 55.3135C823.683 55.0446 824.275 54.9102 824.945 54.9102C825.911 54.9102 826.673 55.154 827.229 55.6416C827.789 56.1247 828.069 56.7946 828.069 57.6514C828.069 58.1481 827.928 58.6699 827.646 59.2168C827.368 59.7591 826.91 60.3766 826.271 61.0693L823.838 63.6738H828.459V65ZM835.343 61.4521H836.58V62.7852H835.343V65H833.682V62.7852H829.382L829.334 61.7734L833.627 55.0469H835.343V61.4521ZM831.077 61.4521H833.682V57.2959L833.559 57.5146L831.077 61.4521Z" fill="white"/>
<path d="M858.596 48.1045C859.047 48.1045 859.441 47.9678 859.778 47.6943C860.116 47.4209 860.302 47.0791 860.339 46.6689H861.535C861.512 47.0928 861.367 47.4961 861.098 47.8789C860.829 48.2617 860.469 48.5671 860.018 48.7949C859.571 49.0228 859.097 49.1367 858.596 49.1367C857.589 49.1367 856.786 48.8018 856.189 48.1318C855.597 47.4574 855.301 46.5368 855.301 45.3701V45.1582C855.301 44.4382 855.433 43.7979 855.697 43.2373C855.962 42.6768 856.34 42.2415 856.832 41.9316C857.329 41.6217 857.914 41.4668 858.589 41.4668C859.418 41.4668 860.106 41.7152 860.653 42.2119C861.205 42.7087 861.499 43.3535 861.535 44.1465H860.339C860.302 43.668 860.12 43.276 859.792 42.9707C859.468 42.6608 859.067 42.5059 858.589 42.5059C857.946 42.5059 857.447 42.7383 857.092 43.2031C856.741 43.6634 856.565 44.3311 856.565 45.2061V45.4453C856.565 46.2975 856.741 46.9538 857.092 47.4141C857.443 47.8743 857.944 48.1045 858.596 48.1045Z" fill="white" fill-opacity="0.4"/>
<path d="M861.523 65H854.831V63.8584L858.146 60.2422C858.625 59.709 858.965 59.2646 859.165 58.9092C859.37 58.5492 859.473 58.1891 859.473 57.8291C859.473 57.3551 859.338 56.9723 859.069 56.6807C858.805 56.389 858.447 56.2432 857.996 56.2432C857.458 56.2432 857.041 56.4072 856.745 56.7354C856.449 57.0635 856.301 57.5124 856.301 58.082H854.64C854.64 57.4759 854.776 56.9313 855.05 56.4482C855.328 55.9606 855.722 55.5824 856.232 55.3135C856.747 55.0446 857.34 54.9102 858.01 54.9102C858.976 54.9102 859.737 55.154 860.293 55.6416C860.854 56.1247 861.134 56.7946 861.134 57.6514C861.134 58.1481 860.993 58.6699 860.71 59.2168C860.432 59.7591 859.974 60.3766 859.336 61.0693L856.902 63.6738H861.523V65ZM864.709 59.2646H865.721C866.231 59.2601 866.634 59.1279 866.931 58.8682C867.231 58.6084 867.382 58.2324 867.382 57.7402C867.382 57.2663 867.257 56.8994 867.006 56.6396C866.76 56.3753 866.382 56.2432 865.871 56.2432C865.424 56.2432 865.058 56.373 864.771 56.6328C864.483 56.888 864.34 57.223 864.34 57.6377H862.679C862.679 57.1273 862.813 56.6624 863.082 56.2432C863.355 55.8239 863.734 55.498 864.217 55.2656C864.704 55.0286 865.249 54.9102 865.851 54.9102C866.844 54.9102 867.623 55.1608 868.188 55.6621C868.758 56.1589 869.043 56.8516 869.043 57.7402C869.043 58.1868 868.899 58.6084 868.612 59.0049C868.33 59.3968 867.963 59.693 867.512 59.8936C868.059 60.0804 868.473 60.3743 868.756 60.7754C869.043 61.1764 869.187 61.6549 869.187 62.2109C869.187 63.1042 868.879 63.8151 868.264 64.3438C867.653 64.8724 866.849 65.1367 865.851 65.1367C864.894 65.1367 864.11 64.8815 863.499 64.3711C862.888 63.8607 862.583 63.1816 862.583 62.334H864.244C864.244 62.7715 864.39 63.127 864.682 63.4004C864.978 63.6738 865.374 63.8105 865.871 63.8105C866.386 63.8105 866.792 63.6738 867.088 63.4004C867.384 63.127 867.532 62.7305 867.532 62.2109C867.532 61.6868 867.377 61.2835 867.067 61.001C866.757 60.7184 866.297 60.5771 865.687 60.5771H864.709V59.2646ZM871.189 60.0645L871.729 55.0469H877.075V56.4824H873.11L872.837 58.8613C873.297 58.597 873.817 58.4648 874.396 58.4648C875.343 58.4648 876.079 58.7679 876.604 59.374C877.132 59.9801 877.396 60.7959 877.396 61.8213C877.396 62.833 877.105 63.6396 876.521 64.2412C875.938 64.8382 875.138 65.1367 874.122 65.1367C873.211 65.1367 872.454 64.8792 871.853 64.3643C871.256 63.8447 870.932 63.1611 870.882 62.3135H872.488C872.552 62.7965 872.725 63.168 873.008 63.4277C873.29 63.6829 873.66 63.8105 874.115 63.8105C874.626 63.8105 875.022 63.6283 875.305 63.2637C875.592 62.8991 875.735 62.4023 875.735 61.7734C875.735 61.1673 875.578 60.6888 875.264 60.3379C874.949 59.9824 874.516 59.8047 873.965 59.8047C873.664 59.8047 873.409 59.8457 873.199 59.9277C872.99 60.0052 872.762 60.1602 872.516 60.3926L871.189 60.0645ZM884.321 61.4521H885.559V62.7852H884.321V65H882.66V62.7852H878.36L878.312 61.7734L882.605 55.0469H884.321V61.4521ZM880.056 61.4521H882.66V57.2959L882.537 57.5146L880.056 61.4521Z" fill="white"/>
<line x1="762" y1="32.5" x2="892" y2="32.5" stroke="#F8F8F8" stroke-opacity="0.4"/>
<path d="M881.999 10.833L886.166 14.9997L883.666 14.9997L883.666 18.333L880.333 18.333L880.333 14.9997L877.833 14.9997L881.999 10.833ZM881.999 23.333C879.789 23.333 877.67 22.455 876.107 20.8922C874.544 19.3294 873.666 17.2098 873.666 14.9997C873.666 13.9053 873.882 12.8217 874.3 11.8106C874.719 10.7996 875.333 9.88094 876.107 9.10712C876.881 8.3333 877.799 7.71947 878.81 7.30068C879.821 6.88189 880.905 6.66634 881.999 6.66634C884.209 6.66634 886.329 7.54431 887.892 9.10712C889.455 10.6699 890.333 12.7895 890.333 14.9997C890.333 16.094 890.117 17.1777 889.698 18.1887C889.28 19.1997 888.666 20.1184 887.892 20.8922C886.329 22.455 884.209 23.333 881.999 23.333ZM881.999 21.6663C883.767 21.6663 885.463 20.964 886.713 19.7137C887.964 18.4635 888.666 16.7678 888.666 14.9997C888.666 13.2316 887.964 11.5359 886.713 10.2856C885.463 9.03539 883.767 8.33301 881.999 8.33301C880.231 8.33301 878.536 9.03539 877.285 10.2856C876.035 11.5359 875.333 13.2316 875.333 14.9997C875.333 16.7678 876.035 18.4635 877.285 19.7137C878.536 20.964 880.231 21.6663 881.999 21.6663Z" fill="#6FFF57"/>
<defs>
<filter id="filter0_b" x="710" y="-40" width="230" height="155" filterUnits="userSpaceOnUse" color-interpolation-filters="sRGB">
<feFlood flood-opacity="0" result="BackgroundImageFix"/>
<feGaussianBlur in="BackgroundImage" stdDeviation="20"/>
<feComposite in2="SourceAlpha" operator="in" result="effect1_backgroundBlur"/>
<feBlend mode="normal" in="SourceGraphic" in2="effect1_backgroundBlur" result="shape"/>
</filter>
<linearGradient id="paint0_linear" x1="539.5" y1="31" x2="539.5" y2="254.5" gradientUnits="userSpaceOnUse">
<stop offset="0.171875" stop-color="#FAC704"/>
<stop offset="1" stop-color="#EE8321" stop-opacity="0"/>
</linearGradient>
<linearGradient id="paint1_linear" x1="1016" y1="241" x2="1016" y2="17" gradientUnits="userSpaceOnUse">
<stop stop-color="#F8F8F8"/>
<stop offset="1" stop-color="#F8F8F8" stop-opacity="0"/>
</linearGradient>
<linearGradient id="paint2_linear" x1="907" y1="241" x2="907" y2="17" gradientUnits="userSpaceOnUse">
<stop stop-color="#F8F8F8"/>
<stop offset="1" stop-color="#F8F8F8" stop-opacity="0"/>
</linearGradient>
<linearGradient id="paint3_linear" x1="798" y1="241" x2="798" y2="17" gradientUnits="userSpaceOnUse">
<stop stop-color="#F8F8F8"/>
<stop offset="1" stop-color="#F8F8F8" stop-opacity="0"/>
</linearGradient>
<linearGradient id="paint4_linear" x1="689" y1="241" x2="689" y2="17" gradientUnits="userSpaceOnUse">
<stop stop-color="#F8F8F8"/>
<stop offset="1" stop-color="#F8F8F8" stop-opacity="0"/>
</linearGradient>
<linearGradient id="paint5_linear" x1="580" y1="241" x2="580" y2="17" gradientUnits="userSpaceOnUse">
<stop stop-color="#F8F8F8"/>
<stop offset="1" stop-color="#F8F8F8" stop-opacity="0"/>
</linearGradient>
<linearGradient id="paint6_linear" x1="471" y1="241" x2="471" y2="17" gradientUnits="userSpaceOnUse">
<stop stop-color="#F8F8F8"/>
<stop offset="1" stop-color="#F8F8F8" stop-opacity="0"/>
</linearGradient>
<linearGradient id="paint7_linear" x1="362" y1="241" x2="362" y2="17" gradientUnits="userSpaceOnUse">
<stop stop-color="#F8F8F8"/>
<stop offset="1" stop-color="#F8F8F8" stop-opacity="0"/>
</linearGradient>
<linearGradient id="paint8_linear" x1="253" y1="241" x2="253" y2="17" gradientUnits="userSpaceOnUse">
<stop stop-color="#F8F8F8"/>
<stop offset="1" stop-color="#F8F8F8" stop-opacity="0"/>
</linearGradient>
<linearGradient id="paint9_linear" x1="144" y1="241" x2="144" y2="17" gradientUnits="userSpaceOnUse">
<stop stop-color="#F8F8F8"/>
<stop offset="1" stop-color="#F8F8F8" stop-opacity="0"/>
</linearGradient>
<linearGradient id="paint10_linear" x1="35" y1="241" x2="35" y2="17" gradientUnits="userSpaceOnUse">
<stop stop-color="#F8F8F8"/>
<stop offset="1" stop-color="#F8F8F8" stop-opacity="0"/>
</linearGradient>
</defs>
</svg>
