<svg id="Слой_1" data-name="Слой 1" xmlns="http://www.w3.org/2000/svg" viewBox="0 0 187.09 103.8"><defs><style>.cls-1{fill:#fff;fill-rule:evenodd;}</style></defs><title>partner-logo-7</title><path class="cls-1" d="M13,102.48a10.2,10.2,0,0,0,5.93,1.91,10.3,10.3,0,0,0,3.11-.48,10.09,10.09,0,0,0,2.86-1.43,10,10,0,0,0,3.74-5.13,10.35,10.35,0,0,0,0-6.2,10.22,10.22,0,0,0-1.43-2.86A10.36,10.36,0,0,0,24.87,86,10.25,10.25,0,0,0,22,84.56a10.41,10.41,0,0,0-3.12-.48A10.13,10.13,0,0,0,8.77,94.26,10.15,10.15,0,0,0,13,102.48Z" transform="translate(-2.83 -44.48)"/><polygon class="cls-1" points="32.13 0.04 0 0.04 16.1 36.52 32.13 0.04 32.13 0.04 32.13 0.04"/><path class="cls-1" d="M45.16,132.43a7.71,7.71,0,0,1-.57,2.89,7.64,7.64,0,0,1-4.08,4.08,7.71,7.71,0,0,1-2.89.57H36.1a7.71,7.71,0,0,1-2.89-.57,7.52,7.52,0,0,1-4.65-7h0l0-17.09-17.38,0v12.91h0A20,20,0,0,0,17,142.4a20.08,20.08,0,0,0,14.18,5.88H42A20.09,20.09,0,0,0,60.5,135.9,20.26,20.26,0,0,0,62,128.22h0V44.6l-16.87,0v87.81Z" transform="translate(-2.83 -44.48)"/><path class="cls-1" d="M173.68,115.34v15.18h0a7.54,7.54,0,0,1-4.65,7,7.56,7.56,0,0,1-2.89.57H164.6a7.51,7.51,0,0,1-2.88-.57,7.47,7.47,0,0,1-4.08-4.08,7.51,7.51,0,0,1-.57-2.88h0V44.62l-16.87,0V146.13h49.7V115.31l-16.24,0Z" transform="translate(-2.83 -44.48)"/><path class="cls-1" d="M126.15,100.13a16.48,16.48,0,0,0-3.57-5.27,13.85,13.85,0,0,0-5-3.19,16.58,16.58,0,0,0,4.25-2.94A14.39,14.39,0,0,0,125,84.47a12.34,12.34,0,0,0,1.16-5.21h0V60.78h0a16.51,16.51,0,0,0-1.24-6.25,16.28,16.28,0,0,0-15-10.05H76.31V146.13h34.83a16.29,16.29,0,0,0,15-10,16.51,16.51,0,0,0,1.24-6.25c0-7.79,0-15.58,0-23.37a16.35,16.35,0,0,0-1.28-6.33ZM92.68,53.23l8.83,0h0a7.57,7.57,0,0,1,7.54,7.54h0l0,20.38h0a6.38,6.38,0,0,1-.48,2.4,6.19,6.19,0,0,1-1.36,2,6.2,6.2,0,0,1-4.42,1.83h0l-10.16,0V53.23ZM109.26,133a6.35,6.35,0,0,1-1.36,2,6.19,6.19,0,0,1-2,1.36,6.58,6.58,0,0,1-2.4.48h0l-10.79,0V96.56l9.47,0h0a7.29,7.29,0,0,1,2.88.57,7.67,7.67,0,0,1,2.45,1.63,7.62,7.62,0,0,1,2.21,5.33h0l0,26.51h0a6.1,6.1,0,0,1-.47,2.39Z" transform="translate(-2.83 -44.48)"/></svg>