<svg width="87" height="86" viewBox="0 0 87 86" fill="none" xmlns="http://www.w3.org/2000/svg">
<path d="M87 18.2678C87 18.9031 86.8734 19.5322 86.6275 20.1191C86.3816 20.706 86.0211 21.2393 85.5667 21.6885C85.1122 22.1377 84.5727 22.494 83.979 22.7371C83.3853 22.9802 82.7489 23.1053 82.1062 23.1053C81.463 23.1063 80.8258 22.9819 80.2313 22.7392C79.6367 22.4965 79.0964 22.1403 78.6412 21.691C78.186 21.2417 77.8248 20.7081 77.5785 20.1207C77.3321 19.5334 77.2053 18.9037 77.2053 18.2678C77.2048 17.632 77.3311 17.0022 77.5771 16.4147C77.823 15.8271 78.1837 15.2933 78.6386 14.8436C79.0935 14.394 79.6335 14.0374 80.2279 13.7943C80.8223 13.5512 81.4594 13.4263 82.1026 13.4268C82.7456 13.4263 83.3823 13.5511 83.9765 13.794C84.5706 14.0369 85.1106 14.3931 85.5654 14.8424C86.0202 15.2916 86.381 15.8251 86.6271 16.4122C86.8733 16.9993 87 17.6287 87 18.2643V18.2678ZM59.9901 65.6108C58.8803 65.6268 57.7785 65.4224 56.75 65.0099C55.7215 64.5974 54.7872 63.9852 54.0023 63.2093C53.2175 62.4335 52.5981 61.5099 52.1808 60.4932C51.7635 59.4765 51.5568 58.3874 51.5729 57.2903H44.225C44.225 66.0659 51.1125 72.5697 59.8343 72.5697C68.556 72.5697 75.5957 65.9154 75.5957 57.2903H68.4038C68.2479 62.1314 64.5758 65.6108 59.9865 65.6108H59.9901ZM78.5066 55.4772H85.6986V26.4343H78.5066V55.4772ZM0 55.4808H7.192V14.3333H0V55.4808ZM25.8644 25.5277C16.9868 25.5277 10.2515 32.1855 10.2515 40.807C10.2341 42.8384 10.6261 44.8528 11.4046 46.7329C12.1831 48.6129 13.3325 50.3209 14.7858 51.7572C16.2392 53.1934 17.9673 54.3293 19.8693 55.0984C21.7714 55.8675 23.8094 56.2545 25.8644 56.2368C34.5861 56.2368 41.4736 49.579 41.4736 40.9575C41.4736 32.336 34.7384 25.5277 25.8644 25.5277ZM25.8644 49.278C21.1156 49.278 17.4471 45.6481 17.4471 40.807C17.431 39.7099 17.6377 38.6208 18.055 37.6041C18.4723 36.5874 19.0917 35.6639 19.8766 34.888C20.6614 34.1122 21.5958 33.4999 22.6243 33.0874C23.6528 32.6749 24.7546 32.4706 25.8644 32.4865C26.9739 32.4711 28.0753 32.6758 29.1034 33.0885C30.1315 33.5012 31.0654 34.1136 31.8498 34.8893C32.6343 35.6651 33.2534 36.5885 33.6704 37.605C34.0875 38.6214 34.2941 39.7102 34.278 40.807C34.278 45.4976 30.7618 49.278 25.8644 49.278ZM75.2913 32.1855V26.4343H65.0397C63.3577 25.6818 61.6721 25.5277 59.9901 25.5277C51.1125 25.5277 44.2286 32.1855 44.2286 40.9575C44.2286 49.7331 51.1161 56.2368 59.8379 56.2368C68.5596 56.2368 75.4471 49.579 75.4471 40.9575C75.4471 37.9332 74.5264 35.2098 72.9966 33.0921L75.2913 32.1855ZM59.9901 49.278C55.245 49.278 51.5729 45.6481 51.5729 40.807C51.5568 39.7099 51.7635 38.6208 52.1808 37.6041C52.5981 36.5874 53.2175 35.6639 54.0023 34.888C54.7872 34.1122 55.7215 33.4999 56.75 33.0874C57.7785 32.6749 58.8803 32.4706 59.9901 32.4865C61.0999 32.4706 62.2017 32.6749 63.2302 33.0874C64.2588 33.4999 65.1931 34.1122 65.9779 34.888C66.7628 35.6639 67.3822 36.5874 67.7995 37.6041C68.2168 38.6208 68.4235 39.7099 68.4074 40.807C68.4074 45.4976 64.5794 49.278 59.9901 49.278Z" fill="white"/>
</svg>
