<svg width="66" height="65" viewBox="0 0 66 65" fill="none" xmlns="http://www.w3.org/2000/svg">
<path d="M0 8.125V56.875H66V8.125H0ZM36.3247 12.6181C32.3978 14.1023 28.6275 17.3767 25.586 23.9444C24.7032 25.8483 23.0422 29.529 22.286 31.1756C16.17 44.3977 13.035 47.2415 3.806 47.2415V11.7812H36.1625C36.6685 11.7515 36.8088 12.4583 36.3275 12.6181H36.3247ZM62.2517 17.7477V53.2187H29.8403C29.3425 53.2323 29.216 52.5417 29.689 52.3819C33.6133 50.8977 37.3835 47.6233 40.425 41.0556C41.3078 39.1517 42.9715 35.471 43.725 33.8244C49.83 20.6023 52.965 17.7585 62.194 17.7585L62.2517 17.7477Z" fill="white"/>
</svg>
