<?xml version="1.0" encoding="utf-8"?>
<!-- Generator: Adobe Illustrator 24.0.3, SVG Export Plug-In . SVG Version: 6.00 Build 0)  -->
<svg version="1.1"
	 id="svg2" xmlns:cc="http://creativecommons.org/ns#" xmlns:dc="http://purl.org/dc/elements/1.1/" xmlns:inkscape="http://www.inkscape.org/namespaces/inkscape" xmlns:rdf="http://www.w3.org/1999/02/22-rdf-syntax-ns#" xmlns:sodipodi="http://sodipodi.sourceforge.net/DTD/sodipodi-0.dtd" xmlns:svg="http://www.w3.org/2000/svg"
	 xmlns="http://www.w3.org/2000/svg" xmlns:xlink="http://www.w3.org/1999/xlink" x="0px" y="0px" viewBox="0 0 295 81.5"
	 style="enable-background:new 0 0 295 81.5;" xml:space="preserve">
<style type="text/css">
	.st0{fill:#FFFFFF;}
</style>
<sodipodi:namedview  bordercolor="#666666" borderopacity="1" gridtolerance="10" guidetolerance="10" id="namedview20" inkscape:current-layer="svg2" inkscape:cx="147.5" inkscape:cy="81.915719" inkscape:pageopacity="0" inkscape:pageshadow="2" inkscape:window-height="481" inkscape:window-maximized="0" inkscape:window-width="640" inkscape:window-x="0" inkscape:window-y="0" inkscape:zoom="1.3485714" objecttolerance="10" pagecolor="#ffffff" showgrid="false">
	</sodipodi:namedview>
<defs>
	
		<inkscape:perspective  id="perspective24" inkscape:persp3d-origin="150 : 58.333333 : 1" inkscape:vp_x="0 : 87.5 : 1" inkscape:vp_y="0 : 1000 : 0" inkscape:vp_z="300 : 87.5 : 1" sodipodi:type="inkscape:persp3d">
		</inkscape:perspective>
</defs>
<g id="g12" transform="matrix(1.25,0,0,-1.25,-229.77835,197.23072)">
	<g id="g2943" transform="matrix(1.5408393,0,0,1.5408393,-96.336841,-7.567328)">
		<path id="path38" class="st0" d="M310,71.4c-6.8,0-13.2-0.1-15,0.1c-3.6,0.3-6,2.7-6.3,6.2c-0.2,2.3-0.2,4.2,0,6
			c0.3,3.4,3.2,6.6,6.3,6.8c1.1,0.1,4.2,0.1,9.6,0l15.9,0V97c0,0-12.7,0-16.5,0c-5.1,0-7.7,0-9.3,0c-3.6-0.1-6.6-1.4-8.9-3.8
			c-2.2-2.2-3.5-5.8-3.7-9.4c-0.1-2-0.1-4.5,0-6c0.4-3.9,1.6-6.9,3.7-9.1c2.3-2.3,5.7-3.8,9-3.8c2.7,0,25.9,0,25.9,0v6.6
			C320.6,71.5,313.6,71.5,310,71.4"/>
		<path id="path40" class="st0" d="M238,96.7v-6.6h15.7V65h6.6v25h15.7v6.6L238,96.7L238,96.7z"/>
		<path id="path50" class="st0" d="M231.1,84.2c0,3.6-1.3,6.6-3.7,9.1c-2.5,2.6-6.4,3.7-8.9,3.8c-2.2,0.1-10.9,0.1-12.9,0
			c-2.9-0.1-5-1-6-1.8c0,0,0,0,0,0v12h-6.6V64.9h6.6c0,0-0.1,17.4,0,19.3c0.3,3.4,2.8,6,6.1,6.3c2.6,0.2,10.4,0.2,12.9,0
			c3.4-0.2,5.9-2.9,6.1-6.4c0.1-1.3,0-19.1,0-19.1h6.6C231.1,64.9,231.1,82.6,231.1,84.2"/>
	</g>
</g>
</svg>
