<svg width="157" height="157" viewBox="0 0 157 157" fill="none" xmlns="http://www.w3.org/2000/svg">
<path d="M156.372 70.5737V62.292H125.914C119.555 62.292 116.69 66.217 116.219 70.0242V70.142V62.292H107.27V70.5737H116.18H156.372ZM116.18 73.5567L107.231 73.0465V82.5842C107.231 85.5672 105.739 86.47 100.558 86.47H93.415C89.1367 86.47 87.3313 85.2532 87.3313 82.5842V72.1437L78.2645 71.4765V83.33H78.0682C77.558 79.876 76.2627 75.8725 67.6277 75.2837L39.25 73.3997C39.25 77.7565 42.3507 80.347 47.2177 80.8572L66.9997 82.859C68.5697 82.9767 69.708 83.4477 69.708 84.743C69.708 86.156 68.5305 86.313 66.725 86.313H38.8968V73.3997L29.83 72.811V94.7125H66.7643C75.0068 94.7125 77.6365 90.4342 78.029 86.8625H78.2253C79.2458 92.5145 84.1912 94.7125 92.5515 94.7125H101.775C111.548 94.7125 116.18 91.7295 116.18 84.743V73.5567ZM144.95 75.2445L116.572 73.5567C116.572 77.9135 119.438 80.818 124.305 81.2105L144.518 82.7805C146.088 82.8982 147.031 83.2907 147.031 84.586C147.031 85.8027 145.931 86.2737 143.655 86.2737H116.101V94.7125H144.244C153.114 94.7125 157 91.6117 157 84.5467C157 78.1882 153.507 75.794 144.95 75.2445ZM78.2645 62.292H87.3313V70.5737H78.2645V62.292ZM24.8452 72.4185L14.9935 71.4372L0 94.7125H11.0292L24.8452 72.4185ZM76.616 62.292H48.9447C42.5077 62.292 39.6818 66.2955 39.0145 70.142V62.292H23.6677C21.509 62.292 20.4885 62.9592 19.468 64.4507L15.229 70.5737H76.616V62.292Z" fill="white"/>
</svg>
