<svg id="Слой_1" data-name="Слой 1" xmlns="http://www.w3.org/2000/svg" viewBox="0 0 2493.79 727.06"><defs><style>.cls-1{fill:#fff;fill-rule:evenodd;}</style></defs><title>partner-logo-5</title><path class="cls-1" d="M1991.79,448.1c-7.49,2-53.19-13.66-65.93-17.07-54.73-14.63-142.78-28.68-200.52-30.35-1.8-.05-14.1.32-15-1.92-.25-.59-.93-.41-1.32-.72-3.9,2.7,1.67,1.19-6.81,1.85-2.82.22-7.71-.19-10.69-.31-25.2-1-121,1.4-134,7.14,6.27,2.33,68.57,7.47,82.24,9.44a1163.4,1163.4,0,0,1,415.65,144.2c10.77,6.24,52.43,30.13,57.37,36-8.84,8.08-30.69,19.08-42.44,26.09-169.53,101.29-408.14,154-603.91,176-61.94,7-135.76,11.62-198.89,13.4-22.27.63-47.7-.06-69.46,1.93,4.58-.49,53.3,6.5,64.54,7.57,161.77,15.31,332.66,14.65,492.8-8.67,124.82-18.17,234.55-48,344.06-102.54,35.91-17.88,64-37.12,93.62-57,10.67,5,43.12,33.11,54.89,42.57,4.39,3.52,5.89,5.62,10.39,9.07L2279,723c7.64,8.18,13,11.52,20.62,18.41,6.73,6.08,12.58,13.17,19.39,19.54l28.89,29.62c3.7,4,7.29,6.24,11.14,10.08l36.87,41.09c33.07,40.27,54.58,66.05,85,110,3,4.33,12.34,20.1,16,23.26-4.87-20.56-33.64-87.61-43.71-109-46-97.58-77-133.85-138-207.61l-29.44-29c-3.68-3.5-5.47-6.53-9.16-10.3-7.06-7.21-14-9.31-20.64-19.19l30.14-32.75c31.49-35.75,53.62-71.49,75.51-115.89,27.13-55,47.94-134.88,51.74-203.32l-19.83,47.44c-23.38,50.05-55.44,98.25-90,138.64l-118,112-44.41-27.21c-46.16-26.47-75.31-40.38-125-59.36-5-1.91-8.55-3.34-13-4.77-1.21-.39-6.31-1.89-6.79-2.1-7.7-3.3-5,.74-4.64-4.51Z" transform="translate(-3.1 -247.94)"/><path class="cls-1" d="M1291.75,382.12c5.16,1.72,36.12,18.18,39.46,22.83-9.33,5.43-24.1,10.29-34.44,14.68-21.13,9-17.21,3.15-23.89,25.68-5.28,17.79-20.94,61.73-22.29,76.15l381.6-.23,18.33-60.74-286.27-.32,123.19-52.95c-8.43-8.55-82.25-45.2-92.75-53.07a12.38,12.38,0,0,1-3.21-2.9l291.75-.13,18.41-61.24-382.21.05ZM829.46,521.37l84.22.15,51.41-170.06c58.55-2.53,149.26.27,212.82-.4-5.76,25.22-9.52,20.91-32.64,30.51-9.56,4-37.77,17.09-45.79,18.31l-127.16.31c-5.11,13.17-15.89,47.19-18.21,61.27,41.18-.72,82.92-.09,124.16-.09,48.65,0,46.47-3.48,98.07-25.71,15-6.47,28.76-12.09,43.58-18.48,35.85-15.45,22.75-1.26,46.35-77.64,4.48-14.49,11.82-35.18,14.37-49.78L899,289.83,829.46,521.37ZM1709,398c.4.31,1.08.13,1.33.72.93,2.24,13.23,1.87,15,1.92,57.74,1.67,145.78,15.72,200.52,30.35,12.74,3.41,58.44,19,65.93,17.07,16.31-7,33.65-13.81,50.26-20.43l37.81-15.37c7.71-3.09,7.27-1.7,9.9-9.62,6-18.14,11.21-37.49,16.63-56,5.16-17.59,13.76-40,16.49-57l-381.79.1L1709,398ZM470.14,348.73l96.11,82.63c3,2.79,4.93,3.78,7.86,6.36,5.33,4.73,11,9.12,14.76,12.86l-20.75,70.53,84.27.3c4.55-14.1,8.48-28.18,12.83-42.18,7-22.47,2.26-23.38,22.19-34.48l142.09-81.2c19.83-11.61,20.29-5.79,27.21-29.46,3.76-12.86,10.91-31.56,12.78-44.36l-84,0c-13.1,40.54,2.3,23.64-61.52,60.37-12.74,7.33-70.9,42.36-80.49,44.43-3.81-4.57-3.68-4.9-8.68-8.71l-72.31-61.64,9.78-34.34-84.51-.14-17.62,59Zm-126,26.07-191.2.43L134.18,435.9l191.21.53-25.12,84.74,84.38.33L454,290.41l-84.43-.6-25.45,85ZM3.1,521.33l83.82.18,69.4-231.17-82.92-.52c-2,3.26-69.25,223-70.3,231.51ZM1793.19,400.19q68.71-.24,137.54,0c25.16.1,50.33-13,76.76-24.81,8.72-3.9,9.1-7.29,12.62-24.3l-209.9.07c-6,1.68-16,43.83-17,49.05ZM1671.8,521.27l7.27.27,70.89,0,6.23-.33,17.48-57.67c-10.31-6.27-63.86-17.36-78.88-19.53l-23,77.28Z" transform="translate(-3.1 -247.94)"/></svg>