<svg width="30" height="30" viewBox="0 0 30 30" fill="none" xmlns="http://www.w3.org/2000/svg">
<g clip-path="url(#clip0)">
<path d="M19.6875 0H10.3125C9.31794 0 8.36411 0.395088 7.66085 1.09835C6.95759 1.80161 6.5625 2.75544 6.5625 3.75V26.25C6.5625 27.2446 6.95759 28.1984 7.66085 28.9016C8.36411 29.6049 9.31794 30 10.3125 30H19.6875C20.6821 30 21.6359 29.6049 22.3391 28.9016C23.0424 28.1984 23.4375 27.2446 23.4375 26.25V3.75C23.4375 2.75544 23.0424 1.80161 22.3391 1.09835C21.6359 0.395088 20.6821 0 19.6875 0V0ZM21.5625 26.25C21.5625 26.7473 21.365 27.2242 21.0133 27.5758C20.6617 27.9275 20.1848 28.125 19.6875 28.125H10.3125C9.81522 28.125 9.33831 27.9275 8.98668 27.5758C8.63504 27.2242 8.4375 26.7473 8.4375 26.25V3.75C8.4375 3.25272 8.63504 2.77581 8.98668 2.42417C9.33831 2.07254 9.81522 1.875 10.3125 1.875H10.9775C11.0682 1.87467 11.157 1.90083 11.233 1.95028C11.309 1.99973 11.3688 2.0703 11.4053 2.15332C11.5509 2.48844 11.7912 2.77372 12.0967 2.97411C12.4022 3.17449 12.7596 3.28125 13.125 3.28125H16.875C17.2404 3.28125 17.5978 3.17449 17.9033 2.97411C18.2088 2.77372 18.4491 2.48844 18.5947 2.15332C18.6312 2.0703 18.691 1.99973 18.767 1.95028C18.843 1.90083 18.9318 1.87467 19.0225 1.875H19.6875C20.1848 1.875 20.6617 2.07254 21.0133 2.42417C21.365 2.77581 21.5625 3.25272 21.5625 3.75V26.25Z" fill="#F8F8F8"/>
<path d="M19.6875 2.81227C19.5795 2.81161 19.4728 2.83609 19.3759 2.88379C19.279 2.93149 19.1945 3.00108 19.1291 3.08707C18.8674 3.43812 18.5273 3.7232 18.136 3.91963C17.7447 4.11606 17.3129 4.21841 16.875 4.21852H13.125C12.6871 4.21841 12.2553 4.11606 11.864 3.91963C11.4727 3.7232 11.1326 3.43812 10.8709 3.08707C10.8055 3.00108 10.721 2.93149 10.6241 2.88379C10.5272 2.83609 10.4205 2.81161 10.3125 2.81227C10.0639 2.81227 9.8254 2.91104 9.64959 3.08686C9.47377 3.26267 9.375 3.50113 9.375 3.74977V26.2498C9.375 26.4984 9.47377 26.7369 9.64959 26.9127C9.8254 27.0885 10.0639 27.1873 10.3125 27.1873H19.6875C19.9361 27.1873 20.1746 27.0885 20.3504 26.9127C20.5262 26.7369 20.625 26.4984 20.625 26.2498V3.74977C20.625 3.50113 20.5262 3.26267 20.3504 3.08686C20.1746 2.91104 19.9361 2.81227 19.6875 2.81227Z" fill="#F8F8F8"/>
<path d="M19.6875 0H10.3125C9.31794 0 8.36411 0.395088 7.66085 1.09835C6.95759 1.80161 6.5625 2.75544 6.5625 3.75V26.25C6.5625 27.2446 6.95759 28.1984 7.66085 28.9016C8.36411 29.6049 9.31794 30 10.3125 30H19.6875C20.6821 30 21.6359 29.6049 22.3391 28.9016C23.0424 28.1984 23.4375 27.2446 23.4375 26.25V3.75C23.4375 2.75544 23.0424 1.80161 22.3391 1.09835C21.6359 0.395088 20.6821 0 19.6875 0V0ZM21.5625 26.25C21.5625 26.7473 21.365 27.2242 21.0133 27.5758C20.6617 27.9275 20.1848 28.125 19.6875 28.125H10.3125C9.81522 28.125 9.33831 27.9275 8.98668 27.5758C8.63504 27.2242 8.4375 26.7473 8.4375 26.25V3.75C8.4375 3.25272 8.63504 2.77581 8.98668 2.42417C9.33831 2.07254 9.81522 1.875 10.3125 1.875H10.9775C11.0682 1.87467 11.157 1.90083 11.233 1.95028C11.309 1.99973 11.3688 2.0703 11.4053 2.15332C11.5509 2.48844 11.7912 2.77372 12.0967 2.97411C12.4022 3.17449 12.7596 3.28125 13.125 3.28125H16.875C17.2404 3.28125 17.5978 3.17449 17.9033 2.97411C18.2088 2.77372 18.4491 2.48844 18.5947 2.15332C18.6312 2.0703 18.691 1.99973 18.767 1.95028C18.843 1.90083 18.9318 1.87467 19.0225 1.875H19.6875C20.1848 1.875 20.6617 2.07254 21.0133 2.42417C21.365 2.77581 21.5625 3.25272 21.5625 3.75V26.25Z" fill="#F8F8F8"/>
</g>
<defs>
<clipPath id="clip0">
<rect width="30" height="30" fill="white"/>
</clipPath>
</defs>
</svg>
