<svg width="44" height="44" viewBox="0 0 44 44" fill="none" xmlns="http://www.w3.org/2000/svg">
<path d="M6.28613 12.9644C6.28613 12.0267 6.65864 11.1274 7.32172 10.4643C7.98479 9.80122 8.88412 9.42871 9.82185 9.42871H34.179C35.1167 9.42871 36.016 9.80122 36.6791 10.4643C37.3422 11.1274 37.7147 12.0267 37.7147 12.9644V27.1073C37.7147 28.045 37.3422 28.9443 36.6791 29.6074C36.016 30.2705 35.1167 30.643 34.179 30.643H9.82185C8.88412 30.643 7.98479 30.2705 7.32172 29.6074C6.65864 28.9443 6.28613 28.045 6.28613 27.1073V12.9644Z" fill="#F8F8F8"/>
<path d="M4.32164 32.2146C4.00906 32.2146 3.70929 32.3388 3.48826 32.5598C3.26724 32.7808 3.14307 33.0806 3.14307 33.3932C3.14307 33.7057 3.26724 34.0055 3.48826 34.2265C3.70929 34.4476 4.00906 34.5717 4.32164 34.5717H39.6788C39.9914 34.5717 40.2911 34.4476 40.5122 34.2265C40.7332 34.0055 40.8573 33.7057 40.8573 33.3932C40.8573 33.0806 40.7332 32.7808 40.5122 32.5598C40.2911 32.3388 39.9914 32.2146 39.6788 32.2146H4.32164Z" fill="#F8F8F8"/>
</svg>
