<svg width="112" height="32" viewBox="0 0 112 32" fill="none" xmlns="http://www.w3.org/2000/svg">
<path d="M16 32C7.163 32 0 24.837 0 16C0 7.163 7.163 0 16 0C24.837 0 32 7.163 32 16C32 24.837 24.837 32 16 32ZM22.681 7.368L11.694 13.617L6.458 10.64L5.918 11.713L11.694 15.038L23.626 8.226L22.681 7.368ZM20.279 6L11.694 10.908L7.888 8.736L7.106 9.674L11.694 12.276L21.547 6.644L20.28 6H20.279ZM24.463 9.111L11.694 16.406L5.486 12.866L5.189 14.046L11.694 17.747L25.164 10.05L24.463 9.111ZM26.406 12.571L25.812 11.069L11.694 19.115L5 15.333V16.057C5 17.522 5.293 18.972 5.864 20.322C6.40537 21.6295 7.20383 22.8149 8.212 23.808C9.21982 24.7859 10.4005 25.5682 11.694 26.115C13.062 26.705 14.493 27 15.987 27C17.463 27 18.893 26.705 20.279 26.115C21.5877 25.5819 22.7797 24.7982 23.788 23.808C24.7847 22.8055 25.5816 21.6224 26.136 20.322L26.406 19.598C26.802 18.454 27 17.273 27 16.058C27 14.841 26.802 13.68 26.406 12.571Z" fill="#BFBFBF"/>
<path d="M41.5596 16.2959C40.1123 15.8799 39.0576 15.3701 38.3955 14.7666C37.7393 14.1572 37.4111 13.4072 37.4111 12.5166C37.4111 11.5088 37.8125 10.6768 38.6152 10.0205C39.4238 9.3584 40.4727 9.02734 41.7617 9.02734C42.6406 9.02734 43.4229 9.19727 44.1084 9.53711C44.7998 9.87695 45.333 10.3457 45.708 10.9434C46.0889 11.541 46.2793 12.1943 46.2793 12.9033H44.583C44.583 12.1299 44.3369 11.5234 43.8447 11.084C43.3525 10.6387 42.6582 10.416 41.7617 10.416C40.9297 10.416 40.2793 10.6006 39.8105 10.9697C39.3477 11.333 39.1162 11.8398 39.1162 12.4902C39.1162 13.0117 39.3359 13.4541 39.7754 13.8174C40.2207 14.1748 40.9736 14.5029 42.0342 14.8018C43.1006 15.1006 43.9326 15.4316 44.5303 15.7949C45.1338 16.1523 45.5791 16.5713 45.8662 17.0518C46.1592 17.5322 46.3057 18.0977 46.3057 18.748C46.3057 19.7852 45.9014 20.6172 45.0928 21.2441C44.2842 21.8652 43.2031 22.1758 41.8496 22.1758C40.9707 22.1758 40.1504 22.0088 39.3887 21.6748C38.627 21.335 38.0381 20.8721 37.6221 20.2861C37.2119 19.7002 37.0068 19.0352 37.0068 18.291H38.7031C38.7031 19.0645 38.9873 19.6768 39.5557 20.1279C40.1299 20.5732 40.8945 20.7959 41.8496 20.7959C42.7402 20.7959 43.4229 20.6143 43.8975 20.251C44.3721 19.8877 44.6094 19.3926 44.6094 18.7656C44.6094 18.1387 44.3896 17.6553 43.9502 17.3154C43.5107 16.9697 42.7139 16.6299 41.5596 16.2959ZM56.2725 17.3506C56.2725 18.8037 55.9385 19.9727 55.2705 20.8574C54.6025 21.7363 53.7061 22.1758 52.5811 22.1758C51.3799 22.1758 50.4512 21.751 49.7949 20.9014L49.7158 22H48.2217V8.5H49.8477V13.5361C50.5039 12.7217 51.4092 12.3145 52.5635 12.3145C53.7178 12.3145 54.623 12.751 55.2793 13.624C55.9414 14.4971 56.2725 15.6924 56.2725 17.21V17.3506ZM54.6465 17.166C54.6465 16.0586 54.4326 15.2031 54.0049 14.5996C53.5771 13.9961 52.9619 13.6943 52.1592 13.6943C51.0869 13.6943 50.3164 14.1924 49.8477 15.1885V19.3018C50.3457 20.2979 51.1221 20.7959 52.1768 20.7959C52.9561 20.7959 53.5625 20.4941 53.9961 19.8906C54.4297 19.2871 54.6465 18.3789 54.6465 17.166ZM62.2754 22.1758C60.9863 22.1758 59.9375 21.7539 59.1289 20.9102C58.3203 20.0605 57.916 18.9268 57.916 17.5088V17.21C57.916 16.2666 58.0947 15.4258 58.4521 14.6875C58.8154 13.9434 59.3193 13.3633 59.9639 12.9473C60.6143 12.5254 61.3174 12.3145 62.0732 12.3145C63.3096 12.3145 64.2705 12.7217 64.9561 13.5361C65.6416 14.3506 65.9844 15.5166 65.9844 17.0342V17.7109H59.542C59.5654 18.6484 59.8379 19.4072 60.3594 19.9873C60.8867 20.5615 61.5547 20.8486 62.3633 20.8486C62.9375 20.8486 63.4238 20.7314 63.8223 20.4971C64.2207 20.2627 64.5693 19.9521 64.8682 19.5654L65.8613 20.3389C65.0645 21.5635 63.8691 22.1758 62.2754 22.1758ZM62.0732 13.6504C61.417 13.6504 60.8662 13.8906 60.4209 14.3711C59.9756 14.8457 59.7002 15.5137 59.5947 16.375H64.3584V16.252C64.3115 15.4258 64.0889 14.7871 63.6904 14.3359C63.292 13.8789 62.7529 13.6504 62.0732 13.6504ZM72.4707 13.9492C72.2246 13.9082 71.958 13.8877 71.6709 13.8877C70.6045 13.8877 69.8809 14.3418 69.5 15.25V22H67.874V12.4902H69.4561L69.4824 13.5889C70.0156 12.7393 70.7715 12.3145 71.75 12.3145C72.0664 12.3145 72.3066 12.3555 72.4707 12.4375V13.9492ZM82.0244 17.3506C82.0244 18.8037 81.6904 19.9727 81.0225 20.8574C80.3545 21.7363 79.458 22.1758 78.333 22.1758C77.1318 22.1758 76.2031 21.751 75.5469 20.9014L75.4678 22H73.9736V8.5H75.5996V13.5361C76.2559 12.7217 77.1611 12.3145 78.3154 12.3145C79.4697 12.3145 80.375 12.751 81.0312 13.624C81.6934 14.4971 82.0244 15.6924 82.0244 17.21V17.3506ZM80.3984 17.166C80.3984 16.0586 80.1846 15.2031 79.7568 14.5996C79.3291 13.9961 78.7139 13.6943 77.9111 13.6943C76.8389 13.6943 76.0684 14.1924 75.5996 15.1885V19.3018C76.0977 20.2979 76.874 20.7959 77.9287 20.7959C78.708 20.7959 79.3145 20.4941 79.748 19.8906C80.1816 19.2871 80.3984 18.3789 80.3984 17.166ZM89.9521 22C89.8584 21.8125 89.7822 21.4785 89.7236 20.998C88.9678 21.7832 88.0654 22.1758 87.0166 22.1758C86.0791 22.1758 85.3086 21.9121 84.7051 21.3848C84.1074 20.8516 83.8086 20.1777 83.8086 19.3633C83.8086 18.373 84.1836 17.6055 84.9336 17.0605C85.6895 16.5098 86.75 16.2344 88.1152 16.2344H89.6973V15.4873C89.6973 14.9189 89.5273 14.4678 89.1875 14.1338C88.8477 13.7939 88.3467 13.624 87.6846 13.624C87.1045 13.624 86.6182 13.7705 86.2256 14.0635C85.833 14.3564 85.6367 14.7109 85.6367 15.127H84.002C84.002 14.6523 84.1689 14.1953 84.5029 13.7559C84.8428 13.3105 85.2998 12.959 85.874 12.7012C86.4541 12.4434 87.0898 12.3145 87.7812 12.3145C88.877 12.3145 89.7354 12.5898 90.3564 13.1406C90.9775 13.6855 91.2998 14.4385 91.3232 15.3994V19.7764C91.3232 20.6494 91.4346 21.3438 91.6572 21.8594V22H89.9521ZM87.2539 20.7607C87.7637 20.7607 88.2471 20.6289 88.7041 20.3652C89.1611 20.1016 89.4922 19.7588 89.6973 19.3369V17.3857H88.4229C86.4307 17.3857 85.4346 17.9688 85.4346 19.1348C85.4346 19.6445 85.6045 20.043 85.9443 20.3301C86.2842 20.6172 86.7207 20.7607 87.2539 20.7607ZM95.4102 12.4902L95.4629 13.6855C96.1895 12.7715 97.1387 12.3145 98.3105 12.3145C100.32 12.3145 101.334 13.4482 101.352 15.7158V22H99.7256V15.707C99.7197 15.0215 99.5615 14.5146 99.251 14.1865C98.9463 13.8584 98.4688 13.6943 97.8184 13.6943C97.291 13.6943 96.8281 13.835 96.4297 14.1162C96.0312 14.3975 95.7207 14.7666 95.498 15.2236V22H93.8721V12.4902H95.4102ZM106.458 17.5967L105.438 18.6602V22H103.812V8.5H105.438V16.665L106.309 15.6191L109.271 12.4902H111.248L107.548 16.4629L111.679 22H109.771L106.458 17.5967Z" fill="#BFBFBF"/>
</svg>
