<svg width="856" height="401" viewBox="0 0 856 401" fill="none" xmlns="http://www.w3.org/2000/svg">
<rect x="46" y="334" width="764" height="67" rx="18" fill="#F8F8F8" fill-opacity="0.1"/>
<path d="M96.2314 353.83H92.9062V363H91.0679V353.83H87.772V352.336H96.2314V353.83ZM95.6089 358.964C95.6089 358.188 95.7627 357.49 96.0703 356.87C96.3779 356.245 96.8101 355.766 97.3667 355.434C97.9233 355.097 98.563 354.929 99.2856 354.929C100.355 354.929 101.222 355.273 101.886 355.961C102.555 356.65 102.916 357.563 102.97 358.701L102.977 359.118C102.977 359.899 102.826 360.598 102.523 361.213C102.225 361.828 101.795 362.304 101.234 362.641C100.677 362.978 100.033 363.146 99.3003 363.146C98.1821 363.146 97.2861 362.775 96.6123 362.033C95.9434 361.286 95.6089 360.292 95.6089 359.052V358.964ZM97.3887 359.118C97.3887 359.934 97.5571 360.573 97.894 361.037C98.231 361.496 98.6997 361.726 99.3003 361.726C99.9009 361.726 100.367 361.491 100.699 361.022C101.036 360.554 101.205 359.868 101.205 358.964C101.205 358.164 101.031 357.529 100.685 357.06C100.343 356.591 99.8765 356.357 99.2856 356.357C98.7046 356.357 98.2432 356.589 97.9014 357.053C97.5596 357.512 97.3887 358.2 97.3887 359.118ZM110.836 363H109.056V360.356C108.597 360.463 108.114 360.517 107.606 360.517C106.522 360.517 105.694 360.258 105.123 359.741C104.552 359.218 104.266 358.471 104.266 357.5V355.068H106.046V357.5C106.046 358.076 106.173 358.483 106.427 358.723C106.686 358.962 107.079 359.082 107.606 359.082C108.084 359.082 108.568 359.025 109.056 358.913V355.075H110.836V363ZM119.442 363H117.662V359.799H114.579V363H112.799V355.075H114.579V358.378H117.662V355.075H119.442V363ZM121.009 358.964C121.009 358.188 121.163 357.49 121.471 356.87C121.778 356.245 122.21 355.766 122.767 355.434C123.324 355.097 123.963 354.929 124.686 354.929C125.755 354.929 126.622 355.273 127.286 355.961C127.955 356.65 128.316 357.563 128.37 358.701L128.377 359.118C128.377 359.899 128.226 360.598 127.923 361.213C127.625 361.828 127.196 362.304 126.634 362.641C126.078 362.978 125.433 363.146 124.701 363.146C123.583 363.146 122.687 362.775 122.013 362.033C121.344 361.286 121.009 360.292 121.009 359.052V358.964ZM122.789 359.118C122.789 359.934 122.958 360.573 123.294 361.037C123.631 361.496 124.1 361.726 124.701 361.726C125.301 361.726 125.768 361.491 126.1 361.022C126.437 360.554 126.605 359.868 126.605 358.964C126.605 358.164 126.432 357.529 126.085 357.06C125.743 356.591 125.277 356.357 124.686 356.357C124.105 356.357 123.644 356.589 123.302 357.053C122.96 357.512 122.789 358.2 122.789 359.118ZM133.138 361.726C133.583 361.726 133.951 361.596 134.244 361.337C134.537 361.079 134.693 360.759 134.713 360.378H136.39C136.371 360.871 136.217 361.333 135.929 361.762C135.641 362.187 135.25 362.524 134.757 362.773C134.264 363.022 133.731 363.146 133.16 363.146C132.052 363.146 131.173 362.788 130.523 362.07C129.874 361.352 129.549 360.361 129.549 359.096V358.913C129.549 357.707 129.872 356.743 130.516 356.02C131.161 355.292 132.04 354.929 133.153 354.929C134.095 354.929 134.862 355.205 135.453 355.756C136.048 356.303 136.361 357.023 136.39 357.917H134.713C134.693 357.463 134.537 357.089 134.244 356.796C133.956 356.503 133.587 356.357 133.138 356.357C132.562 356.357 132.118 356.567 131.805 356.987C131.493 357.402 131.334 358.034 131.329 358.884V359.169C131.329 360.029 131.483 360.671 131.791 361.096C132.103 361.516 132.552 361.726 133.138 361.726ZM143.971 356.489H141.4V363H139.62V356.489H137.079V355.075H143.971V356.489ZM147.076 357.595H148.819C149.469 357.595 150.035 357.707 150.519 357.932C151.002 358.156 151.368 358.471 151.617 358.876C151.871 359.282 151.998 359.753 151.998 360.29C151.998 361.105 151.71 361.76 151.134 362.253C150.558 362.746 149.791 362.995 148.834 363H145.296V355.075H147.076V357.595ZM147.076 359.023V361.579H148.812C149.247 361.579 149.588 361.472 149.837 361.257C150.091 361.037 150.218 360.727 150.218 360.327C150.218 359.926 150.094 359.611 149.845 359.382C149.601 359.147 149.269 359.028 148.849 359.023H147.076ZM153.675 365.402L152.716 364.831C152.999 364.387 153.192 363.999 153.294 363.667C153.402 363.339 153.458 363.005 153.463 362.663V361.279H155.067L155.06 362.561C155.055 363.078 154.923 363.596 154.664 364.113C154.41 364.636 154.081 365.065 153.675 365.402ZM160.267 354.387C160.267 353.742 160.475 353.215 160.89 352.805C161.305 352.39 161.849 352.182 162.523 352.182C163.207 352.182 163.753 352.39 164.164 352.805C164.579 353.215 164.786 353.754 164.786 354.423V354.951C164.786 355.59 164.579 356.115 164.164 356.525C163.753 356.936 163.211 357.141 162.538 357.141C161.878 357.141 161.334 356.94 160.904 356.54C160.479 356.135 160.267 355.59 160.267 354.907V354.387ZM161.512 354.951C161.512 355.288 161.605 355.561 161.791 355.771C161.981 355.976 162.23 356.079 162.538 356.079C162.84 356.079 163.084 355.976 163.27 355.771C163.456 355.561 163.548 355.278 163.548 354.921V354.387C163.548 354.05 163.453 353.776 163.263 353.566C163.077 353.356 162.831 353.251 162.523 353.251C162.215 353.251 161.969 353.359 161.783 353.574C161.603 353.784 161.512 354.062 161.512 354.409V354.951ZM165.394 360.385C165.394 359.731 165.606 359.201 166.031 358.796C166.456 358.391 166.998 358.188 167.657 358.188C168.321 358.188 168.863 358.391 169.283 358.796C169.708 359.201 169.92 359.748 169.92 360.437V360.957C169.92 361.591 169.715 362.116 169.305 362.531C168.9 362.941 168.355 363.146 167.672 363.146C166.988 363.146 166.437 362.944 166.017 362.539C165.602 362.128 165.394 361.589 165.394 360.92V360.385ZM166.639 360.957C166.639 361.289 166.734 361.562 166.925 361.777C167.12 361.987 167.369 362.092 167.672 362.092C167.984 362.092 168.229 361.992 168.404 361.792C168.585 361.586 168.675 361.301 168.675 360.935V360.385C168.675 360.043 168.58 359.77 168.39 359.565C168.199 359.36 167.955 359.257 167.657 359.257C167.354 359.257 167.108 359.36 166.917 359.565C166.732 359.77 166.639 360.053 166.639 360.415V360.957ZM162.904 362.202L161.988 361.674L167.196 353.339L168.111 353.867L162.904 362.202Z" fill="white"/>
<path d="M696.231 353.83H692.906V363H691.068V353.83H687.772V352.336H696.231V353.83ZM695.609 358.964C695.609 358.188 695.763 357.49 696.07 356.87C696.378 356.245 696.81 355.766 697.367 355.434C697.923 355.097 698.563 354.929 699.286 354.929C700.355 354.929 701.222 355.273 701.886 355.961C702.555 356.65 702.916 357.563 702.97 358.701L702.977 359.118C702.977 359.899 702.826 360.598 702.523 361.213C702.225 361.828 701.795 362.304 701.234 362.641C700.677 362.978 700.033 363.146 699.3 363.146C698.182 363.146 697.286 362.775 696.612 362.033C695.943 361.286 695.609 360.292 695.609 359.052V358.964ZM697.389 359.118C697.389 359.934 697.557 360.573 697.894 361.037C698.231 361.496 698.7 361.726 699.3 361.726C699.901 361.726 700.367 361.491 700.699 361.022C701.036 360.554 701.205 359.868 701.205 358.964C701.205 358.164 701.031 357.529 700.685 357.06C700.343 356.591 699.876 356.357 699.286 356.357C698.705 356.357 698.243 356.589 697.901 357.053C697.56 357.512 697.389 358.2 697.389 359.118ZM710.836 363H709.056V360.356C708.597 360.463 708.114 360.517 707.606 360.517C706.522 360.517 705.694 360.258 705.123 359.741C704.552 359.218 704.266 358.471 704.266 357.5V355.068H706.046V357.5C706.046 358.076 706.173 358.483 706.427 358.723C706.686 358.962 707.079 359.082 707.606 359.082C708.084 359.082 708.568 359.025 709.056 358.913V355.075H710.836V363ZM719.442 363H717.662V359.799H714.579V363H712.799V355.075H714.579V358.378H717.662V355.075H719.442V363ZM721.009 358.964C721.009 358.188 721.163 357.49 721.471 356.87C721.778 356.245 722.21 355.766 722.767 355.434C723.324 355.097 723.963 354.929 724.686 354.929C725.755 354.929 726.622 355.273 727.286 355.961C727.955 356.65 728.316 357.563 728.37 358.701L728.377 359.118C728.377 359.899 728.226 360.598 727.923 361.213C727.625 361.828 727.196 362.304 726.634 362.641C726.078 362.978 725.433 363.146 724.701 363.146C723.583 363.146 722.687 362.775 722.013 362.033C721.344 361.286 721.009 360.292 721.009 359.052V358.964ZM722.789 359.118C722.789 359.934 722.958 360.573 723.294 361.037C723.631 361.496 724.1 361.726 724.701 361.726C725.301 361.726 725.768 361.491 726.1 361.022C726.437 360.554 726.605 359.868 726.605 358.964C726.605 358.164 726.432 357.529 726.085 357.06C725.743 356.591 725.277 356.357 724.686 356.357C724.105 356.357 723.644 356.589 723.302 357.053C722.96 357.512 722.789 358.2 722.789 359.118ZM733.138 361.726C733.583 361.726 733.951 361.596 734.244 361.337C734.537 361.079 734.693 360.759 734.713 360.378H736.39C736.371 360.871 736.217 361.333 735.929 361.762C735.641 362.187 735.25 362.524 734.757 362.773C734.264 363.022 733.731 363.146 733.16 363.146C732.052 363.146 731.173 362.788 730.523 362.07C729.874 361.352 729.549 360.361 729.549 359.096V358.913C729.549 357.707 729.872 356.743 730.516 356.02C731.161 355.292 732.04 354.929 733.153 354.929C734.095 354.929 734.862 355.205 735.453 355.756C736.048 356.303 736.361 357.023 736.39 357.917H734.713C734.693 357.463 734.537 357.089 734.244 356.796C733.956 356.503 733.587 356.357 733.138 356.357C732.562 356.357 732.118 356.567 731.805 356.987C731.493 357.402 731.334 358.034 731.329 358.884V359.169C731.329 360.029 731.483 360.671 731.791 361.096C732.103 361.516 732.552 361.726 733.138 361.726ZM743.971 356.489H741.4V363H739.62V356.489H737.079V355.075H743.971V356.489ZM747.076 357.595H748.819C749.469 357.595 750.035 357.707 750.519 357.932C751.002 358.156 751.368 358.471 751.617 358.876C751.871 359.282 751.998 359.753 751.998 360.29C751.998 361.105 751.71 361.76 751.134 362.253C750.558 362.746 749.791 362.995 748.834 363H745.296V355.075H747.076V357.595ZM747.076 359.023V361.579H748.812C749.247 361.579 749.588 361.472 749.837 361.257C750.091 361.037 750.218 360.727 750.218 360.327C750.218 359.926 750.094 359.611 749.845 359.382C749.601 359.147 749.269 359.028 748.849 359.023H747.076ZM753.675 365.402L752.716 364.831C752.999 364.387 753.192 363.999 753.294 363.667C753.402 363.339 753.458 363.005 753.463 362.663V361.279H755.067L755.06 362.561C755.055 363.078 754.923 363.596 754.664 364.113C754.41 364.636 754.081 365.065 753.675 365.402ZM760.267 354.387C760.267 353.742 760.475 353.215 760.89 352.805C761.305 352.39 761.849 352.182 762.523 352.182C763.207 352.182 763.753 352.39 764.164 352.805C764.579 353.215 764.786 353.754 764.786 354.423V354.951C764.786 355.59 764.579 356.115 764.164 356.525C763.753 356.936 763.211 357.141 762.538 357.141C761.878 357.141 761.334 356.94 760.904 356.54C760.479 356.135 760.267 355.59 760.267 354.907V354.387ZM761.512 354.951C761.512 355.288 761.605 355.561 761.791 355.771C761.981 355.976 762.23 356.079 762.538 356.079C762.84 356.079 763.084 355.976 763.27 355.771C763.456 355.561 763.548 355.278 763.548 354.921V354.387C763.548 354.05 763.453 353.776 763.263 353.566C763.077 353.356 762.831 353.251 762.523 353.251C762.215 353.251 761.969 353.359 761.783 353.574C761.603 353.784 761.512 354.062 761.512 354.409V354.951ZM765.394 360.385C765.394 359.731 765.606 359.201 766.031 358.796C766.456 358.391 766.998 358.188 767.657 358.188C768.321 358.188 768.863 358.391 769.283 358.796C769.708 359.201 769.92 359.748 769.92 360.437V360.957C769.92 361.591 769.715 362.116 769.305 362.531C768.9 362.941 768.355 363.146 767.672 363.146C766.988 363.146 766.437 362.944 766.017 362.539C765.602 362.128 765.394 361.589 765.394 360.92V360.385ZM766.639 360.957C766.639 361.289 766.734 361.562 766.925 361.777C767.12 361.987 767.369 362.092 767.672 362.092C767.984 362.092 768.229 361.992 768.404 361.792C768.585 361.586 768.675 361.301 768.675 360.935V360.385C768.675 360.043 768.58 359.77 768.39 359.565C768.199 359.36 767.955 359.257 767.657 359.257C767.354 359.257 767.108 359.36 766.917 359.565C766.732 359.77 766.639 360.053 766.639 360.415V360.957ZM762.904 362.202L761.988 361.674L767.196 353.339L768.111 353.867L762.904 362.202Z" fill="white"/>
<path d="M854.719 297.211C854.719 298.846 854.411 300.081 853.797 300.914C853.188 301.742 852.258 302.156 851.008 302.156C849.779 302.156 848.852 301.753 848.227 300.945C847.607 300.133 847.289 298.932 847.273 297.344V295.375C847.273 293.74 847.578 292.513 848.188 291.695C848.802 290.878 849.737 290.469 850.992 290.469C852.237 290.469 853.164 290.867 853.773 291.664C854.388 292.461 854.703 293.654 854.719 295.242V297.211ZM852.82 295.086C852.82 294.018 852.674 293.237 852.383 292.742C852.091 292.242 851.628 291.992 850.992 291.992C850.372 291.992 849.917 292.229 849.625 292.703C849.333 293.172 849.18 293.906 849.164 294.906V297.484C849.164 298.547 849.312 299.339 849.609 299.859C849.906 300.38 850.372 300.641 851.008 300.641C851.617 300.641 852.068 300.401 852.359 299.922C852.651 299.438 852.805 298.682 852.82 297.656V295.086Z" fill="white"/>
<path d="M8.26562 297.211C8.26562 298.846 7.95833 300.081 7.34375 300.914C6.73438 301.742 5.80469 302.156 4.55469 302.156C3.32552 302.156 2.39844 301.753 1.77344 300.945C1.15365 300.133 0.835938 298.932 0.820312 297.344V295.375C0.820312 293.74 1.125 292.513 1.73438 291.695C2.34896 290.878 3.28385 290.469 4.53906 290.469C5.78385 290.469 6.71094 290.867 7.32031 291.664C7.9349 292.461 8.25 293.654 8.26562 295.242V297.211ZM6.36719 295.086C6.36719 294.018 6.22135 293.237 5.92969 292.742C5.63802 292.242 5.17448 291.992 4.53906 291.992C3.91927 291.992 3.46354 292.229 3.17188 292.703C2.88021 293.172 2.72656 293.906 2.71094 294.906V297.484C2.71094 298.547 2.85938 299.339 3.15625 299.859C3.45312 300.38 3.91927 300.641 4.55469 300.641C5.16406 300.641 5.61458 300.401 5.90625 299.922C6.19792 299.438 6.35156 298.682 6.36719 297.656V295.086Z" fill="white"/>
<path d="M834.711 15H832.82V5.86719L830.031 6.82031V5.21875L834.469 3.58594H834.711V15ZM846.078 10.2109C846.078 11.8464 845.771 13.0807 845.156 13.9141C844.547 14.7422 843.617 15.1562 842.367 15.1562C841.138 15.1562 840.211 14.7526 839.586 13.9453C838.966 13.1328 838.648 11.9323 838.633 10.3438V8.375C838.633 6.73958 838.938 5.51302 839.547 4.69531C840.161 3.8776 841.096 3.46875 842.352 3.46875C843.596 3.46875 844.523 3.86719 845.133 4.66406C845.747 5.46094 846.062 6.65365 846.078 8.24219V10.2109ZM844.18 8.08594C844.18 7.01823 844.034 6.23698 843.742 5.74219C843.451 5.24219 842.987 4.99219 842.352 4.99219C841.732 4.99219 841.276 5.22917 840.984 5.70312C840.693 6.17188 840.539 6.90625 840.523 7.90625V10.4844C840.523 11.5469 840.672 12.3385 840.969 12.8594C841.266 13.3802 841.732 13.6406 842.367 13.6406C842.977 13.6406 843.427 13.401 843.719 12.9219C844.01 12.4375 844.164 11.6823 844.18 10.6562V8.08594ZM855.172 10.2109C855.172 11.8464 854.865 13.0807 854.25 13.9141C853.641 14.7422 852.711 15.1562 851.461 15.1562C850.232 15.1562 849.305 14.7526 848.68 13.9453C848.06 13.1328 847.742 11.9323 847.727 10.3438V8.375C847.727 6.73958 848.031 5.51302 848.641 4.69531C849.255 3.8776 850.19 3.46875 851.445 3.46875C852.69 3.46875 853.617 3.86719 854.227 4.66406C854.841 5.46094 855.156 6.65365 855.172 8.24219V10.2109ZM853.273 8.08594C853.273 7.01823 853.128 6.23698 852.836 5.74219C852.544 5.24219 852.081 4.99219 851.445 4.99219C850.826 4.99219 850.37 5.22917 850.078 5.70312C849.786 6.17188 849.633 6.90625 849.617 7.90625V10.4844C849.617 11.5469 849.766 12.3385 850.062 12.8594C850.359 13.3802 850.826 13.6406 851.461 13.6406C852.07 13.6406 852.521 13.401 852.812 12.9219C853.104 12.4375 853.258 11.6823 853.273 10.6562V8.08594Z" fill="white"/>
<path d="M5.99219 15H4.10156V5.86719L1.3125 6.82031V5.21875L5.75 3.58594H5.99219V15ZM17.3594 10.2109C17.3594 11.8464 17.0521 13.0807 16.4375 13.9141C15.8281 14.7422 14.8984 15.1562 13.6484 15.1562C12.4193 15.1562 11.4922 14.7526 10.8672 13.9453C10.2474 13.1328 9.92969 11.9323 9.91406 10.3438V8.375C9.91406 6.73958 10.2188 5.51302 10.8281 4.69531C11.4427 3.8776 12.3776 3.46875 13.6328 3.46875C14.8776 3.46875 15.8047 3.86719 16.4141 4.66406C17.0286 5.46094 17.3438 6.65365 17.3594 8.24219V10.2109ZM15.4609 8.08594C15.4609 7.01823 15.3151 6.23698 15.0234 5.74219C14.7318 5.24219 14.2682 4.99219 13.6328 4.99219C13.013 4.99219 12.5573 5.22917 12.2656 5.70312C11.974 6.17188 11.8203 6.90625 11.8047 7.90625V10.4844C11.8047 11.5469 11.9531 12.3385 12.25 12.8594C12.5469 13.3802 13.013 13.6406 13.6484 13.6406C14.2578 13.6406 14.7083 13.401 15 12.9219C15.2917 12.4375 15.4453 11.6823 15.4609 10.6562V8.08594ZM26.4531 10.2109C26.4531 11.8464 26.1458 13.0807 25.5312 13.9141C24.9219 14.7422 23.9922 15.1562 22.7422 15.1562C21.513 15.1562 20.5859 14.7526 19.9609 13.9453C19.3411 13.1328 19.0234 11.9323 19.0078 10.3438V8.375C19.0078 6.73958 19.3125 5.51302 19.9219 4.69531C20.5365 3.8776 21.4714 3.46875 22.7266 3.46875C23.9714 3.46875 24.8984 3.86719 25.5078 4.66406C26.1224 5.46094 26.4375 6.65365 26.4531 8.24219V10.2109ZM24.5547 8.08594C24.5547 7.01823 24.4089 6.23698 24.1172 5.74219C23.8255 5.24219 23.362 4.99219 22.7266 4.99219C22.1068 4.99219 21.651 5.22917 21.3594 5.70312C21.0677 6.17188 20.9141 6.90625 20.8984 7.90625V10.4844C20.8984 11.5469 21.0469 12.3385 21.3438 12.8594C21.6406 13.3802 22.1068 13.6406 22.7422 13.6406C23.3516 13.6406 23.8021 13.401 24.0938 12.9219C24.3854 12.4375 24.5391 11.6823 24.5547 10.6562V8.08594Z" fill="white"/>
<path d="M839.172 153.359L839.789 147.625H845.898V149.266H841.367L841.055 151.984C841.581 151.682 842.174 151.531 842.836 151.531C843.919 151.531 844.76 151.878 845.359 152.57C845.964 153.263 846.266 154.195 846.266 155.367C846.266 156.523 845.932 157.445 845.266 158.133C844.599 158.815 843.685 159.156 842.523 159.156C841.482 159.156 840.617 158.862 839.93 158.273C839.247 157.68 838.878 156.898 838.82 155.93H840.656C840.729 156.482 840.927 156.906 841.25 157.203C841.573 157.495 841.995 157.641 842.516 157.641C843.099 157.641 843.552 157.432 843.875 157.016C844.203 156.599 844.367 156.031 844.367 155.312C844.367 154.62 844.188 154.073 843.828 153.672C843.469 153.266 842.974 153.062 842.344 153.062C842 153.062 841.708 153.109 841.469 153.203C841.229 153.292 840.969 153.469 840.688 153.734L839.172 153.359ZM855.172 154.211C855.172 155.846 854.865 157.081 854.25 157.914C853.641 158.742 852.711 159.156 851.461 159.156C850.232 159.156 849.305 158.753 848.68 157.945C848.06 157.133 847.742 155.932 847.727 154.344V152.375C847.727 150.74 848.031 149.513 848.641 148.695C849.255 147.878 850.19 147.469 851.445 147.469C852.69 147.469 853.617 147.867 854.227 148.664C854.841 149.461 855.156 150.654 855.172 152.242V154.211ZM853.273 152.086C853.273 151.018 853.128 150.237 852.836 149.742C852.544 149.242 852.081 148.992 851.445 148.992C850.826 148.992 850.37 149.229 850.078 149.703C849.786 150.172 849.633 150.906 849.617 151.906V154.484C849.617 155.547 849.766 156.339 850.062 156.859C850.359 157.38 850.826 157.641 851.461 157.641C852.07 157.641 852.521 157.401 852.812 156.922C853.104 156.438 853.258 155.682 853.273 154.656V152.086Z" fill="white"/>
<path d="M1.35938 153.359L1.97656 147.625H8.08594V149.266H3.55469L3.24219 151.984C3.76823 151.682 4.36198 151.531 5.02344 151.531C6.10677 151.531 6.94792 151.878 7.54688 152.57C8.15104 153.263 8.45312 154.195 8.45312 155.367C8.45312 156.523 8.11979 157.445 7.45312 158.133C6.78646 158.815 5.8724 159.156 4.71094 159.156C3.66927 159.156 2.80469 158.862 2.11719 158.273C1.4349 157.68 1.0651 156.898 1.00781 155.93H2.84375C2.91667 156.482 3.11458 156.906 3.4375 157.203C3.76042 157.495 4.18229 157.641 4.70312 157.641C5.28646 157.641 5.73958 157.432 6.0625 157.016C6.39062 156.599 6.55469 156.031 6.55469 155.312C6.55469 154.62 6.375 154.073 6.01562 153.672C5.65625 153.266 5.16146 153.062 4.53125 153.062C4.1875 153.062 3.89583 153.109 3.65625 153.203C3.41667 153.292 3.15625 153.469 2.875 153.734L1.35938 153.359ZM17.3594 154.211C17.3594 155.846 17.0521 157.081 16.4375 157.914C15.8281 158.742 14.8984 159.156 13.6484 159.156C12.4193 159.156 11.4922 158.753 10.8672 157.945C10.2474 157.133 9.92969 155.932 9.91406 154.344V152.375C9.91406 150.74 10.2188 149.513 10.8281 148.695C11.4427 147.878 12.3776 147.469 13.6328 147.469C14.8776 147.469 15.8047 147.867 16.4141 148.664C17.0286 149.461 17.3438 150.654 17.3594 152.242V154.211ZM15.4609 152.086C15.4609 151.018 15.3151 150.237 15.0234 149.742C14.7318 149.242 14.2682 148.992 13.6328 148.992C13.013 148.992 12.5573 149.229 12.2656 149.703C11.974 150.172 11.8203 150.906 11.8047 151.906V154.484C11.8047 155.547 11.9531 156.339 12.25 156.859C12.5469 157.38 13.013 157.641 13.6484 157.641C14.2578 157.641 14.7083 157.401 15 156.922C15.2917 156.438 15.4453 155.682 15.4609 154.656V152.086Z" fill="white"/>
<path d="M846.234 76.6797L841.688 87H839.695L844.234 77.1484H838.352V75.625H846.234V76.6797ZM848.266 81.3594L848.883 75.625H854.992V77.2656H850.461L850.148 79.9844C850.674 79.6823 851.268 79.5312 851.93 79.5312C853.013 79.5312 853.854 79.8776 854.453 80.5703C855.057 81.263 855.359 82.1953 855.359 83.3672C855.359 84.5234 855.026 85.4453 854.359 86.1328C853.693 86.8151 852.779 87.1562 851.617 87.1562C850.576 87.1562 849.711 86.862 849.023 86.2734C848.341 85.6797 847.971 84.8984 847.914 83.9297H849.75C849.823 84.4818 850.021 84.9062 850.344 85.2031C850.667 85.4948 851.089 85.6406 851.609 85.6406C852.193 85.6406 852.646 85.4323 852.969 85.0156C853.297 84.599 853.461 84.0312 853.461 83.3125C853.461 82.6198 853.281 82.0729 852.922 81.6719C852.562 81.2656 852.068 81.0625 851.438 81.0625C851.094 81.0625 850.802 81.1094 850.562 81.2031C850.323 81.2917 850.062 81.4688 849.781 81.7344L848.266 81.3594Z" fill="white"/>
<path d="M8.42188 76.6797L3.875 87H1.88281L6.42188 77.1484H0.539062V75.625H8.42188V76.6797ZM10.4531 81.3594L11.0703 75.625H17.1797V77.2656H12.6484L12.3359 79.9844C12.862 79.6823 13.4557 79.5312 14.1172 79.5312C15.2005 79.5312 16.0417 79.8776 16.6406 80.5703C17.2448 81.263 17.5469 82.1953 17.5469 83.3672C17.5469 84.5234 17.2135 85.4453 16.5469 86.1328C15.8802 86.8151 14.9661 87.1562 13.8047 87.1562C12.763 87.1562 11.8984 86.862 11.2109 86.2734C10.5286 85.6797 10.1589 84.8984 10.1016 83.9297H11.9375C12.0104 84.4818 12.2083 84.9062 12.5312 85.2031C12.8542 85.4948 13.276 85.6406 13.7969 85.6406C14.3802 85.6406 14.8333 85.4323 15.1562 85.0156C15.4844 84.599 15.6484 84.0312 15.6484 83.3125C15.6484 82.6198 15.4688 82.0729 15.1094 81.6719C14.75 81.2656 14.2552 81.0625 13.625 81.0625C13.2812 81.0625 12.9896 81.1094 12.75 81.2031C12.5104 81.2917 12.25 81.4688 11.9688 81.7344L10.4531 81.3594Z" fill="white"/>
<path d="M846.312 231H838.664V229.695L842.453 225.562C843 224.953 843.388 224.445 843.617 224.039C843.852 223.628 843.969 223.216 843.969 222.805C843.969 222.263 843.815 221.826 843.508 221.492C843.206 221.159 842.797 220.992 842.281 220.992C841.667 220.992 841.19 221.18 840.852 221.555C840.513 221.93 840.344 222.443 840.344 223.094H838.445C838.445 222.401 838.602 221.779 838.914 221.227C839.232 220.669 839.682 220.237 840.266 219.93C840.854 219.622 841.531 219.469 842.297 219.469C843.401 219.469 844.271 219.747 844.906 220.305C845.547 220.857 845.867 221.622 845.867 222.602C845.867 223.169 845.706 223.766 845.383 224.391C845.065 225.01 844.542 225.716 843.812 226.508L841.031 229.484H846.312V231ZM848.266 225.359L848.883 219.625H854.992V221.266H850.461L850.148 223.984C850.674 223.682 851.268 223.531 851.93 223.531C853.013 223.531 853.854 223.878 854.453 224.57C855.057 225.263 855.359 226.195 855.359 227.367C855.359 228.523 855.026 229.445 854.359 230.133C853.693 230.815 852.779 231.156 851.617 231.156C850.576 231.156 849.711 230.862 849.023 230.273C848.341 229.68 847.971 228.898 847.914 227.93H849.75C849.823 228.482 850.021 228.906 850.344 229.203C850.667 229.495 851.089 229.641 851.609 229.641C852.193 229.641 852.646 229.432 852.969 229.016C853.297 228.599 853.461 228.031 853.461 227.312C853.461 226.62 853.281 226.073 852.922 225.672C852.562 225.266 852.068 225.062 851.438 225.062C851.094 225.062 850.802 225.109 850.562 225.203C850.323 225.292 850.062 225.469 849.781 225.734L848.266 225.359Z" fill="white"/>
<path d="M8.5 231H0.851562V229.695L4.64062 225.562C5.1875 224.953 5.57552 224.445 5.80469 224.039C6.03906 223.628 6.15625 223.216 6.15625 222.805C6.15625 222.263 6.0026 221.826 5.69531 221.492C5.39323 221.159 4.98438 220.992 4.46875 220.992C3.85417 220.992 3.3776 221.18 3.03906 221.555C2.70052 221.93 2.53125 222.443 2.53125 223.094H0.632812C0.632812 222.401 0.789062 221.779 1.10156 221.227C1.41927 220.669 1.86979 220.237 2.45312 219.93C3.04167 219.622 3.71875 219.469 4.48438 219.469C5.58854 219.469 6.45833 219.747 7.09375 220.305C7.73438 220.857 8.05469 221.622 8.05469 222.602C8.05469 223.169 7.89323 223.766 7.57031 224.391C7.2526 225.01 6.72917 225.716 6 226.508L3.21875 229.484H8.5V231ZM10.4531 225.359L11.0703 219.625H17.1797V221.266H12.6484L12.3359 223.984C12.862 223.682 13.4557 223.531 14.1172 223.531C15.2005 223.531 16.0417 223.878 16.6406 224.57C17.2448 225.263 17.5469 226.195 17.5469 227.367C17.5469 228.523 17.2135 229.445 16.5469 230.133C15.8802 230.815 14.9661 231.156 13.8047 231.156C12.763 231.156 11.8984 230.862 11.2109 230.273C10.5286 229.68 10.1589 228.898 10.1016 227.93H11.9375C12.0104 228.482 12.2083 228.906 12.5312 229.203C12.8542 229.495 13.276 229.641 13.7969 229.641C14.3802 229.641 14.8333 229.432 15.1562 229.016C15.4844 228.599 15.6484 228.031 15.6484 227.312C15.6484 226.62 15.4688 226.073 15.1094 225.672C14.75 225.266 14.2552 225.062 13.625 225.062C13.2812 225.062 12.9896 225.109 12.75 225.203C12.5104 225.292 12.25 225.469 11.9688 225.734L10.4531 225.359Z" fill="white"/>
<path d="M212.921 363H211.075V353.83H206.38V363H204.535V352.336H212.921V363ZM214.657 358.964C214.657 358.188 214.811 357.49 215.118 356.87C215.426 356.245 215.858 355.766 216.415 355.434C216.971 355.097 217.611 354.929 218.333 354.929C219.403 354.929 220.27 355.273 220.934 355.961C221.603 356.65 221.964 357.563 222.018 358.701L222.025 359.118C222.025 359.899 221.874 360.598 221.571 361.213C221.273 361.828 220.843 362.304 220.282 362.641C219.725 362.978 219.081 363.146 218.348 363.146C217.23 363.146 216.334 362.775 215.66 362.033C214.991 361.286 214.657 360.292 214.657 359.052V358.964ZM216.437 359.118C216.437 359.934 216.605 360.573 216.942 361.037C217.279 361.496 217.748 361.726 218.348 361.726C218.949 361.726 219.415 361.491 219.747 361.022C220.084 360.554 220.252 359.868 220.252 358.964C220.252 358.164 220.079 357.529 219.732 357.06C219.391 356.591 218.924 356.357 218.333 356.357C217.752 356.357 217.291 356.589 216.949 357.053C216.607 357.512 216.437 358.2 216.437 359.118ZM230.25 363H228.47V356.511H225.379V363H223.6V355.075H230.25V363ZM236.878 363C236.8 362.849 236.732 362.602 236.673 362.26C236.107 362.851 235.414 363.146 234.593 363.146C233.797 363.146 233.148 362.919 232.645 362.465C232.142 362.011 231.891 361.45 231.891 360.781C231.891 359.936 232.203 359.289 232.828 358.84C233.458 358.386 234.356 358.159 235.523 358.159H236.615V357.639C236.615 357.229 236.5 356.901 236.271 356.657C236.041 356.408 235.692 356.284 235.223 356.284C234.818 356.284 234.486 356.386 234.227 356.591C233.968 356.792 233.839 357.048 233.839 357.36H232.059C232.059 356.926 232.203 356.521 232.491 356.145C232.779 355.764 233.17 355.466 233.663 355.251C234.161 355.036 234.715 354.929 235.326 354.929C236.253 354.929 236.993 355.163 237.545 355.632C238.097 356.096 238.38 356.75 238.395 357.595V361.169C238.395 361.882 238.495 362.451 238.695 362.875V363H236.878ZM234.923 361.718C235.274 361.718 235.604 361.633 235.912 361.462C236.224 361.291 236.458 361.062 236.615 360.773V359.279H235.655C234.996 359.279 234.5 359.394 234.168 359.624C233.836 359.853 233.67 360.178 233.67 360.598C233.67 360.939 233.783 361.213 234.007 361.418C234.237 361.618 234.542 361.718 234.923 361.718ZM240.292 361.579C240.785 361.027 241.114 360.505 241.28 360.012C241.451 359.514 241.554 358.879 241.588 358.107L241.69 355.075H247.191V361.579H248.29V365.358H246.517V363H241.434V365.358H239.632L239.64 361.579H240.292ZM242.379 361.579H245.418V356.606H243.419L243.368 358.122C243.299 359.577 242.97 360.729 242.379 361.579ZM254.295 363C254.217 362.849 254.149 362.602 254.09 362.26C253.524 362.851 252.831 363.146 252.01 363.146C251.214 363.146 250.565 362.919 250.062 362.465C249.559 362.011 249.308 361.45 249.308 360.781C249.308 359.936 249.62 359.289 250.245 358.84C250.875 358.386 251.773 358.159 252.94 358.159H254.032V357.639C254.032 357.229 253.917 356.901 253.688 356.657C253.458 356.408 253.109 356.284 252.64 356.284C252.235 356.284 251.903 356.386 251.644 356.591C251.385 356.792 251.256 357.048 251.256 357.36H249.476C249.476 356.926 249.62 356.521 249.908 356.145C250.196 355.764 250.587 355.466 251.08 355.251C251.578 355.036 252.132 354.929 252.743 354.929C253.67 354.929 254.41 355.163 254.962 355.632C255.514 356.096 255.797 356.75 255.812 357.595V361.169C255.812 361.882 255.912 362.451 256.112 362.875V363H254.295ZM252.34 361.718C252.691 361.718 253.021 361.633 253.329 361.462C253.641 361.291 253.875 361.062 254.032 360.773V359.279H253.072C252.413 359.279 251.917 359.394 251.585 359.624C251.253 359.853 251.087 360.178 251.087 360.598C251.087 360.939 251.2 361.213 251.424 361.418C251.654 361.618 251.959 361.718 252.34 361.718ZM264.388 363H262.608V359.799H259.525V363H257.745V355.075H259.525V358.378H262.608V355.075H264.388V363ZM271.236 355.075H273.009V363H271.236V357.712L268.131 363H266.358V355.075H268.131V360.363L271.236 355.075ZM281.249 355.075V363H279.476V360.092H277.813L276.122 363H274.276L276.144 359.799C275.655 359.594 275.279 359.301 275.016 358.92C274.757 358.54 274.627 358.103 274.627 357.609C274.627 356.872 274.911 356.269 275.477 355.8C276.048 355.327 276.817 355.085 277.784 355.075H281.249ZM276.407 357.653C276.407 357.985 276.529 358.256 276.773 358.466C277.022 358.671 277.34 358.774 277.726 358.774H279.476V356.489H277.835C277.401 356.489 277.054 356.599 276.795 356.818C276.537 357.038 276.407 357.316 276.407 357.653ZM287.093 363V355.075H290.309C291.393 355.075 292.218 355.266 292.784 355.646C293.351 356.022 293.634 356.564 293.634 357.272C293.634 357.639 293.519 357.968 293.29 358.261C293.065 358.549 292.73 358.771 292.286 358.928C292.804 359.035 293.214 359.252 293.517 359.58C293.819 359.907 293.971 360.292 293.971 360.737C293.971 361.474 293.697 362.036 293.15 362.421C292.608 362.807 291.827 363 290.807 363H287.093ZM288.873 359.624V361.594H290.821C291.734 361.594 292.191 361.267 292.191 360.612C292.191 359.953 291.727 359.624 290.799 359.624H288.873ZM288.873 358.349H290.338C291.349 358.349 291.854 358.051 291.854 357.456C291.854 356.831 291.375 356.508 290.418 356.489H288.873V358.349ZM223.028 374.511H219.586V381H217.813V373.075H223.028V374.511ZM223.556 376.964C223.556 376.188 223.709 375.49 224.017 374.87C224.325 374.245 224.757 373.766 225.313 373.434C225.87 373.097 226.51 372.929 227.232 372.929C228.302 372.929 229.168 373.273 229.833 373.961C230.501 374.65 230.863 375.563 230.917 376.701L230.924 377.118C230.924 377.899 230.772 378.598 230.47 379.213C230.172 379.828 229.742 380.304 229.181 380.641C228.624 380.978 227.979 381.146 227.247 381.146C226.129 381.146 225.233 380.775 224.559 380.033C223.89 379.286 223.556 378.292 223.556 377.052V376.964ZM225.335 377.118C225.335 377.934 225.504 378.573 225.841 379.037C226.178 379.496 226.646 379.726 227.247 379.726C227.848 379.726 228.314 379.491 228.646 379.022C228.983 378.554 229.151 377.868 229.151 376.964C229.151 376.164 228.978 375.529 228.631 375.06C228.29 374.591 227.823 374.357 227.232 374.357C226.651 374.357 226.19 374.589 225.848 375.053C225.506 375.512 225.335 376.2 225.335 377.118ZM239.046 373.075V381H237.267V374.511H235.025L234.879 377.272C234.786 378.6 234.53 379.555 234.11 380.136C233.695 380.712 233.058 381 232.198 381H231.649L231.642 379.521L232.008 379.484C232.398 379.43 232.682 379.193 232.857 378.773C233.038 378.349 233.153 377.577 233.202 376.459L233.348 373.075H239.046ZM240.606 376.964C240.606 376.188 240.76 375.49 241.068 374.87C241.375 374.245 241.808 373.766 242.364 373.434C242.921 373.097 243.561 372.929 244.283 372.929C245.353 372.929 246.219 373.273 246.883 373.961C247.552 374.65 247.914 375.563 247.967 376.701L247.975 377.118C247.975 377.899 247.823 378.598 247.521 379.213C247.223 379.828 246.793 380.304 246.231 380.641C245.675 380.978 245.03 381.146 244.298 381.146C243.18 381.146 242.284 380.775 241.61 380.033C240.941 379.286 240.606 378.292 240.606 377.052V376.964ZM242.386 377.118C242.386 377.934 242.555 378.573 242.892 379.037C243.229 379.496 243.697 379.726 244.298 379.726C244.898 379.726 245.365 379.491 245.697 379.022C246.034 378.554 246.202 377.868 246.202 376.964C246.202 376.164 246.029 375.529 245.682 375.06C245.34 374.591 244.874 374.357 244.283 374.357C243.702 374.357 243.241 374.589 242.899 375.053C242.557 375.512 242.386 376.2 242.386 377.118ZM249.615 381V373.075H252.831C253.915 373.075 254.74 373.266 255.306 373.646C255.873 374.022 256.156 374.564 256.156 375.272C256.156 375.639 256.041 375.968 255.812 376.261C255.587 376.549 255.252 376.771 254.808 376.928C255.326 377.035 255.736 377.252 256.039 377.58C256.341 377.907 256.493 378.292 256.493 378.737C256.493 379.474 256.219 380.036 255.672 380.421C255.13 380.807 254.349 381 253.329 381H249.615ZM251.395 377.624V379.594H253.343C254.256 379.594 254.713 379.267 254.713 378.612C254.713 377.953 254.249 377.624 253.321 377.624H251.395ZM251.395 376.349H252.86C253.871 376.349 254.376 376.051 254.376 375.456C254.376 374.831 253.897 374.508 252.94 374.489H251.395V376.349ZM260.719 378.451L262.33 373.075H264.227L261.078 382.201C260.594 383.534 259.774 384.201 258.617 384.201C258.358 384.201 258.072 384.157 257.76 384.069V382.692L258.097 382.714C258.546 382.714 258.883 382.631 259.107 382.465C259.337 382.304 259.518 382.03 259.649 381.645L259.906 380.963L257.123 373.075H259.042L260.719 378.451ZM264.278 383.402L263.319 382.831C263.602 382.387 263.795 381.999 263.897 381.667C264.005 381.339 264.061 381.005 264.066 380.663V379.279H265.67L265.663 380.561C265.658 381.078 265.526 381.596 265.267 382.113C265.013 382.636 264.684 383.065 264.278 383.402ZM270.87 372.387C270.87 371.742 271.078 371.215 271.493 370.805C271.908 370.39 272.452 370.182 273.126 370.182C273.81 370.182 274.356 370.39 274.767 370.805C275.182 371.215 275.389 371.754 275.389 372.423V372.951C275.389 373.59 275.182 374.115 274.767 374.525C274.356 374.936 273.814 375.141 273.141 375.141C272.481 375.141 271.937 374.94 271.507 374.54C271.083 374.135 270.87 373.59 270.87 372.907V372.387ZM272.115 372.951C272.115 373.288 272.208 373.561 272.394 373.771C272.584 373.976 272.833 374.079 273.141 374.079C273.443 374.079 273.688 373.976 273.873 373.771C274.059 373.561 274.151 373.278 274.151 372.921V372.387C274.151 372.05 274.056 371.776 273.866 371.566C273.68 371.356 273.434 371.251 273.126 371.251C272.818 371.251 272.572 371.359 272.386 371.574C272.206 371.784 272.115 372.062 272.115 372.409V372.951ZM275.997 378.385C275.997 377.731 276.209 377.201 276.634 376.796C277.059 376.391 277.601 376.188 278.26 376.188C278.924 376.188 279.466 376.391 279.886 376.796C280.311 377.201 280.523 377.748 280.523 378.437V378.957C280.523 379.591 280.318 380.116 279.908 380.531C279.503 380.941 278.958 381.146 278.275 381.146C277.591 381.146 277.04 380.944 276.62 380.539C276.205 380.128 275.997 379.589 275.997 378.92V378.385ZM277.242 378.957C277.242 379.289 277.337 379.562 277.528 379.777C277.723 379.987 277.972 380.092 278.275 380.092C278.587 380.092 278.832 379.992 279.007 379.792C279.188 379.586 279.278 379.301 279.278 378.935V378.385C279.278 378.043 279.183 377.77 278.993 377.565C278.802 377.36 278.558 377.257 278.26 377.257C277.958 377.257 277.711 377.36 277.521 377.565C277.335 377.77 277.242 378.053 277.242 378.415V378.957ZM273.507 380.202L272.591 379.674L277.799 371.339L278.714 371.867L273.507 380.202Z" fill="white"/>
<path d="M572.921 363H571.075V353.83H566.38V363H564.535V352.336H572.921V363ZM574.657 358.964C574.657 358.188 574.811 357.49 575.118 356.87C575.426 356.245 575.858 355.766 576.415 355.434C576.971 355.097 577.611 354.929 578.333 354.929C579.403 354.929 580.27 355.273 580.934 355.961C581.603 356.65 581.964 357.563 582.018 358.701L582.025 359.118C582.025 359.899 581.874 360.598 581.571 361.213C581.273 361.828 580.843 362.304 580.282 362.641C579.725 362.978 579.081 363.146 578.348 363.146C577.23 363.146 576.334 362.775 575.66 362.033C574.991 361.286 574.657 360.292 574.657 359.052V358.964ZM576.437 359.118C576.437 359.934 576.605 360.573 576.942 361.037C577.279 361.496 577.748 361.726 578.348 361.726C578.949 361.726 579.415 361.491 579.747 361.022C580.084 360.554 580.252 359.868 580.252 358.964C580.252 358.164 580.079 357.529 579.732 357.06C579.391 356.591 578.924 356.357 578.333 356.357C577.752 356.357 577.291 356.589 576.949 357.053C576.607 357.512 576.437 358.2 576.437 359.118ZM590.25 363H588.47V356.511H585.379V363H583.6V355.075H590.25V363ZM596.878 363C596.8 362.849 596.732 362.602 596.673 362.26C596.107 362.851 595.414 363.146 594.593 363.146C593.797 363.146 593.148 362.919 592.645 362.465C592.142 362.011 591.891 361.45 591.891 360.781C591.891 359.936 592.203 359.289 592.828 358.84C593.458 358.386 594.356 358.159 595.523 358.159H596.615V357.639C596.615 357.229 596.5 356.901 596.271 356.657C596.041 356.408 595.692 356.284 595.223 356.284C594.818 356.284 594.486 356.386 594.227 356.591C593.968 356.792 593.839 357.048 593.839 357.36H592.059C592.059 356.926 592.203 356.521 592.491 356.145C592.779 355.764 593.17 355.466 593.663 355.251C594.161 355.036 594.715 354.929 595.326 354.929C596.253 354.929 596.993 355.163 597.545 355.632C598.097 356.096 598.38 356.75 598.395 357.595V361.169C598.395 361.882 598.495 362.451 598.695 362.875V363H596.878ZM594.923 361.718C595.274 361.718 595.604 361.633 595.912 361.462C596.224 361.291 596.458 361.062 596.615 360.773V359.279H595.655C594.996 359.279 594.5 359.394 594.168 359.624C593.836 359.853 593.67 360.178 593.67 360.598C593.67 360.939 593.783 361.213 594.007 361.418C594.237 361.618 594.542 361.718 594.923 361.718ZM600.292 361.579C600.785 361.027 601.114 360.505 601.28 360.012C601.451 359.514 601.554 358.879 601.588 358.107L601.69 355.075H607.191V361.579H608.29V365.358H606.517V363H601.434V365.358H599.632L599.64 361.579H600.292ZM602.379 361.579H605.418V356.606H603.419L603.368 358.122C603.299 359.577 602.97 360.729 602.379 361.579ZM614.295 363C614.217 362.849 614.149 362.602 614.09 362.26C613.524 362.851 612.831 363.146 612.01 363.146C611.214 363.146 610.565 362.919 610.062 362.465C609.559 362.011 609.308 361.45 609.308 360.781C609.308 359.936 609.62 359.289 610.245 358.84C610.875 358.386 611.773 358.159 612.94 358.159H614.032V357.639C614.032 357.229 613.917 356.901 613.688 356.657C613.458 356.408 613.109 356.284 612.64 356.284C612.235 356.284 611.903 356.386 611.644 356.591C611.385 356.792 611.256 357.048 611.256 357.36H609.476C609.476 356.926 609.62 356.521 609.908 356.145C610.196 355.764 610.587 355.466 611.08 355.251C611.578 355.036 612.132 354.929 612.743 354.929C613.67 354.929 614.41 355.163 614.962 355.632C615.514 356.096 615.797 356.75 615.812 357.595V361.169C615.812 361.882 615.912 362.451 616.112 362.875V363H614.295ZM612.34 361.718C612.691 361.718 613.021 361.633 613.329 361.462C613.641 361.291 613.875 361.062 614.032 360.773V359.279H613.072C612.413 359.279 611.917 359.394 611.585 359.624C611.253 359.853 611.087 360.178 611.087 360.598C611.087 360.939 611.2 361.213 611.424 361.418C611.654 361.618 611.959 361.718 612.34 361.718ZM624.388 363H622.608V359.799H619.525V363H617.745V355.075H619.525V358.378H622.608V355.075H624.388V363ZM631.236 355.075H633.009V363H631.236V357.712L628.131 363H626.358V355.075H628.131V360.363L631.236 355.075ZM641.249 355.075V363H639.476V360.092H637.813L636.122 363H634.276L636.144 359.799C635.655 359.594 635.279 359.301 635.016 358.92C634.757 358.54 634.627 358.103 634.627 357.609C634.627 356.872 634.911 356.269 635.477 355.8C636.048 355.327 636.817 355.085 637.784 355.075H641.249ZM636.407 357.653C636.407 357.985 636.529 358.256 636.773 358.466C637.022 358.671 637.34 358.774 637.726 358.774H639.476V356.489H637.835C637.401 356.489 637.054 356.599 636.795 356.818C636.537 357.038 636.407 357.316 636.407 357.653ZM647.093 363V355.075H650.309C651.393 355.075 652.218 355.266 652.784 355.646C653.351 356.022 653.634 356.564 653.634 357.272C653.634 357.639 653.519 357.968 653.29 358.261C653.065 358.549 652.73 358.771 652.286 358.928C652.804 359.035 653.214 359.252 653.517 359.58C653.819 359.907 653.971 360.292 653.971 360.737C653.971 361.474 653.697 362.036 653.15 362.421C652.608 362.807 651.827 363 650.807 363H647.093ZM648.873 359.624V361.594H650.821C651.734 361.594 652.191 361.267 652.191 360.612C652.191 359.953 651.727 359.624 650.799 359.624H648.873ZM648.873 358.349H650.338C651.349 358.349 651.854 358.051 651.854 357.456C651.854 356.831 651.375 356.508 650.418 356.489H648.873V358.349ZM583.028 374.511H579.586V381H577.813V373.075H583.028V374.511ZM583.556 376.964C583.556 376.188 583.709 375.49 584.017 374.87C584.325 374.245 584.757 373.766 585.313 373.434C585.87 373.097 586.51 372.929 587.232 372.929C588.302 372.929 589.168 373.273 589.833 373.961C590.501 374.65 590.863 375.563 590.917 376.701L590.924 377.118C590.924 377.899 590.772 378.598 590.47 379.213C590.172 379.828 589.742 380.304 589.181 380.641C588.624 380.978 587.979 381.146 587.247 381.146C586.129 381.146 585.233 380.775 584.559 380.033C583.89 379.286 583.556 378.292 583.556 377.052V376.964ZM585.335 377.118C585.335 377.934 585.504 378.573 585.841 379.037C586.178 379.496 586.646 379.726 587.247 379.726C587.848 379.726 588.314 379.491 588.646 379.022C588.983 378.554 589.151 377.868 589.151 376.964C589.151 376.164 588.978 375.529 588.631 375.06C588.29 374.591 587.823 374.357 587.232 374.357C586.651 374.357 586.19 374.589 585.848 375.053C585.506 375.512 585.335 376.2 585.335 377.118ZM599.046 373.075V381H597.267V374.511H595.025L594.879 377.272C594.786 378.6 594.53 379.555 594.11 380.136C593.695 380.712 593.058 381 592.198 381H591.649L591.642 379.521L592.008 379.484C592.398 379.43 592.682 379.193 592.857 378.773C593.038 378.349 593.153 377.577 593.202 376.459L593.348 373.075H599.046ZM600.606 376.964C600.606 376.188 600.76 375.49 601.068 374.87C601.375 374.245 601.808 373.766 602.364 373.434C602.921 373.097 603.561 372.929 604.283 372.929C605.353 372.929 606.219 373.273 606.883 373.961C607.552 374.65 607.914 375.563 607.967 376.701L607.975 377.118C607.975 377.899 607.823 378.598 607.521 379.213C607.223 379.828 606.793 380.304 606.231 380.641C605.675 380.978 605.03 381.146 604.298 381.146C603.18 381.146 602.284 380.775 601.61 380.033C600.941 379.286 600.606 378.292 600.606 377.052V376.964ZM602.386 377.118C602.386 377.934 602.555 378.573 602.892 379.037C603.229 379.496 603.697 379.726 604.298 379.726C604.898 379.726 605.365 379.491 605.697 379.022C606.034 378.554 606.202 377.868 606.202 376.964C606.202 376.164 606.029 375.529 605.682 375.06C605.34 374.591 604.874 374.357 604.283 374.357C603.702 374.357 603.241 374.589 602.899 375.053C602.557 375.512 602.386 376.2 602.386 377.118ZM609.615 381V373.075H612.831C613.915 373.075 614.74 373.266 615.306 373.646C615.873 374.022 616.156 374.564 616.156 375.272C616.156 375.639 616.041 375.968 615.812 376.261C615.587 376.549 615.252 376.771 614.808 376.928C615.326 377.035 615.736 377.252 616.039 377.58C616.341 377.907 616.493 378.292 616.493 378.737C616.493 379.474 616.219 380.036 615.672 380.421C615.13 380.807 614.349 381 613.329 381H609.615ZM611.395 377.624V379.594H613.343C614.256 379.594 614.713 379.267 614.713 378.612C614.713 377.953 614.249 377.624 613.321 377.624H611.395ZM611.395 376.349H612.86C613.871 376.349 614.376 376.051 614.376 375.456C614.376 374.831 613.897 374.508 612.94 374.489H611.395V376.349ZM620.719 378.451L622.33 373.075H624.227L621.078 382.201C620.594 383.534 619.774 384.201 618.617 384.201C618.358 384.201 618.072 384.157 617.76 384.069V382.692L618.097 382.714C618.546 382.714 618.883 382.631 619.107 382.465C619.337 382.304 619.518 382.03 619.649 381.645L619.906 380.963L617.123 373.075H619.042L620.719 378.451ZM624.278 383.402L623.319 382.831C623.602 382.387 623.795 381.999 623.897 381.667C624.005 381.339 624.061 381.005 624.066 380.663V379.279H625.67L625.663 380.561C625.658 381.078 625.526 381.596 625.267 382.113C625.013 382.636 624.684 383.065 624.278 383.402ZM630.87 372.387C630.87 371.742 631.078 371.215 631.493 370.805C631.908 370.39 632.452 370.182 633.126 370.182C633.81 370.182 634.356 370.39 634.767 370.805C635.182 371.215 635.389 371.754 635.389 372.423V372.951C635.389 373.59 635.182 374.115 634.767 374.525C634.356 374.936 633.814 375.141 633.141 375.141C632.481 375.141 631.937 374.94 631.507 374.54C631.083 374.135 630.87 373.59 630.87 372.907V372.387ZM632.115 372.951C632.115 373.288 632.208 373.561 632.394 373.771C632.584 373.976 632.833 374.079 633.141 374.079C633.443 374.079 633.688 373.976 633.873 373.771C634.059 373.561 634.151 373.278 634.151 372.921V372.387C634.151 372.05 634.056 371.776 633.866 371.566C633.68 371.356 633.434 371.251 633.126 371.251C632.818 371.251 632.572 371.359 632.386 371.574C632.206 371.784 632.115 372.062 632.115 372.409V372.951ZM635.997 378.385C635.997 377.731 636.209 377.201 636.634 376.796C637.059 376.391 637.601 376.188 638.26 376.188C638.924 376.188 639.466 376.391 639.886 376.796C640.311 377.201 640.523 377.748 640.523 378.437V378.957C640.523 379.591 640.318 380.116 639.908 380.531C639.503 380.941 638.958 381.146 638.275 381.146C637.591 381.146 637.04 380.944 636.62 380.539C636.205 380.128 635.997 379.589 635.997 378.92V378.385ZM637.242 378.957C637.242 379.289 637.337 379.562 637.528 379.777C637.723 379.987 637.972 380.092 638.275 380.092C638.587 380.092 638.832 379.992 639.007 379.792C639.188 379.586 639.278 379.301 639.278 378.935V378.385C639.278 378.043 639.183 377.77 638.993 377.565C638.802 377.36 638.558 377.257 638.26 377.257C637.958 377.257 637.711 377.36 637.521 377.565C637.335 377.77 637.242 378.053 637.242 378.415V378.957ZM633.507 380.202L632.591 379.674L637.799 371.339L638.714 371.867L633.507 380.202Z" fill="white"/>
<path d="M330.072 358.4H328.878V363H327.032V358.4H325.787L323.172 363H320.865L324.3 357.324L321.092 352.336H323.333L325.882 356.789H327.032V352.336H328.878V356.789H329.977L332.503 352.336H334.737L331.559 357.309L334.964 363H332.665L330.072 358.4ZM340.875 355.075H342.647V363H340.875V357.712L337.77 363H335.997V355.075H337.77V360.363L340.875 355.075ZM344.676 363V355.075H347.892C348.976 355.075 349.801 355.266 350.367 355.646C350.934 356.022 351.217 356.564 351.217 357.272C351.217 357.639 351.102 357.968 350.873 358.261C350.648 358.549 350.313 358.771 349.869 358.928C350.387 359.035 350.797 359.252 351.1 359.58C351.402 359.907 351.554 360.292 351.554 360.737C351.554 361.474 351.28 362.036 350.733 362.421C350.191 362.807 349.41 363 348.39 363H344.676ZM346.456 359.624V361.594H348.404C349.317 361.594 349.774 361.267 349.774 360.612C349.774 359.953 349.31 359.624 348.382 359.624H346.456ZM346.456 358.349H347.921C348.932 358.349 349.437 358.051 349.437 357.456C349.437 356.831 348.958 356.508 348.001 356.489H346.456V358.349ZM355.78 360.451L357.391 355.075H359.288L356.139 364.201C355.655 365.534 354.835 366.201 353.678 366.201C353.419 366.201 353.133 366.157 352.821 366.069V364.692L353.158 364.714C353.607 364.714 353.944 364.631 354.168 364.465C354.398 364.304 354.579 364.03 354.71 363.645L354.967 362.963L352.184 355.075H354.103L355.78 360.451ZM366.671 363H364.891V360.356C364.432 360.463 363.949 360.517 363.441 360.517C362.357 360.517 361.529 360.258 360.958 359.741C360.387 359.218 360.101 358.471 360.101 357.5V355.068H361.881V357.5C361.881 358.076 362.008 358.483 362.262 358.723C362.521 358.962 362.914 359.082 363.441 359.082C363.919 359.082 364.403 359.025 364.891 358.913V355.075H366.671V363ZM372.054 363.146C370.926 363.146 370.011 362.792 369.308 362.084C368.609 361.372 368.26 360.424 368.26 359.243V359.023C368.26 358.232 368.412 357.526 368.714 356.906C369.022 356.281 369.452 355.795 370.003 355.449C370.555 355.102 371.17 354.929 371.849 354.929C372.928 354.929 373.761 355.273 374.347 355.961C374.938 356.65 375.233 357.624 375.233 358.884V359.602H370.055C370.108 360.256 370.326 360.773 370.707 361.154C371.092 361.535 371.576 361.726 372.157 361.726C372.972 361.726 373.636 361.396 374.149 360.737L375.108 361.652C374.791 362.126 374.366 362.495 373.834 362.758C373.307 363.017 372.713 363.146 372.054 363.146ZM371.842 356.357C371.354 356.357 370.958 356.528 370.655 356.87C370.357 357.211 370.167 357.688 370.084 358.298H373.475V358.166C373.436 357.57 373.277 357.121 372.999 356.818C372.721 356.511 372.335 356.357 371.842 356.357ZM379.876 361.726C380.321 361.726 380.689 361.596 380.982 361.337C381.275 361.079 381.432 360.759 381.451 360.378H383.128C383.109 360.871 382.955 361.333 382.667 361.762C382.379 362.187 381.988 362.524 381.495 362.773C381.002 363.022 380.47 363.146 379.898 363.146C378.79 363.146 377.911 362.788 377.262 362.07C376.612 361.352 376.288 360.361 376.288 359.096V358.913C376.288 357.707 376.61 356.743 377.254 356.02C377.899 355.292 378.778 354.929 379.891 354.929C380.833 354.929 381.6 355.205 382.191 355.756C382.787 356.303 383.099 357.023 383.128 357.917H381.451C381.432 357.463 381.275 357.089 380.982 356.796C380.694 356.503 380.326 356.357 379.876 356.357C379.3 356.357 378.856 356.567 378.543 356.987C378.231 357.402 378.072 358.034 378.067 358.884V359.169C378.067 360.029 378.221 360.671 378.529 361.096C378.841 361.516 379.291 361.726 379.876 361.726ZM390.709 356.489H388.138V363H386.358V356.489H383.817V355.075H390.709V356.489ZM393.814 357.595H395.558C396.207 357.595 396.773 357.707 397.257 357.932C397.74 358.156 398.106 358.471 398.355 358.876C398.609 359.282 398.736 359.753 398.736 360.29C398.736 361.105 398.448 361.76 397.872 362.253C397.296 362.746 396.529 362.995 395.572 363H392.035V355.075H393.814V357.595ZM393.814 359.023V361.579H395.55C395.985 361.579 396.327 361.472 396.576 361.257C396.83 361.037 396.957 360.727 396.957 360.327C396.957 359.926 396.832 359.611 396.583 359.382C396.339 359.147 396.007 359.028 395.587 359.023H393.814ZM400.414 365.402L399.454 364.831C399.737 364.387 399.93 363.999 400.033 363.667C400.14 363.339 400.196 363.005 400.201 362.663V361.279H401.805L401.798 362.561C401.793 363.078 401.661 363.596 401.402 364.113C401.148 364.636 400.819 365.065 400.414 365.402ZM407.005 354.387C407.005 353.742 407.213 353.215 407.628 352.805C408.043 352.39 408.587 352.182 409.261 352.182C409.945 352.182 410.492 352.39 410.902 352.805C411.317 353.215 411.524 353.754 411.524 354.423V354.951C411.524 355.59 411.317 356.115 410.902 356.525C410.492 356.936 409.95 357.141 409.276 357.141C408.617 357.141 408.072 356.94 407.643 356.54C407.218 356.135 407.005 355.59 407.005 354.907V354.387ZM408.25 354.951C408.25 355.288 408.343 355.561 408.529 355.771C408.719 355.976 408.968 356.079 409.276 356.079C409.579 356.079 409.823 355.976 410.008 355.771C410.194 355.561 410.287 355.278 410.287 354.921V354.387C410.287 354.05 410.191 353.776 410.001 353.566C409.815 353.356 409.569 353.251 409.261 353.251C408.954 353.251 408.707 353.359 408.521 353.574C408.341 353.784 408.25 354.062 408.25 354.409V354.951ZM412.132 360.385C412.132 359.731 412.345 359.201 412.77 358.796C413.194 358.391 413.736 358.188 414.396 358.188C415.06 358.188 415.602 358.391 416.021 358.796C416.446 359.201 416.659 359.748 416.659 360.437V360.957C416.659 361.591 416.454 362.116 416.043 362.531C415.638 362.941 415.094 363.146 414.41 363.146C413.727 363.146 413.175 362.944 412.755 362.539C412.34 362.128 412.132 361.589 412.132 360.92V360.385ZM413.377 360.957C413.377 361.289 413.473 361.562 413.663 361.777C413.858 361.987 414.107 362.092 414.41 362.092C414.723 362.092 414.967 361.992 415.143 361.792C415.323 361.586 415.414 361.301 415.414 360.935V360.385C415.414 360.043 415.318 359.77 415.128 359.565C414.938 359.36 414.693 359.257 414.396 359.257C414.093 359.257 413.846 359.36 413.656 359.565C413.47 359.77 413.377 360.053 413.377 360.415V360.957ZM409.642 362.202L408.727 361.674L413.934 353.339L414.85 353.867L409.642 362.202Z" fill="white"/>
<path d="M450.072 358.4H448.878V363H447.032V358.4H445.787L443.172 363H440.865L444.3 357.324L441.092 352.336H443.333L445.882 356.789H447.032V352.336H448.878V356.789H449.977L452.503 352.336H454.737L451.559 357.309L454.964 363H452.665L450.072 358.4ZM460.875 355.075H462.647V363H460.875V357.712L457.77 363H455.997V355.075H457.77V360.363L460.875 355.075ZM464.676 363V355.075H467.892C468.976 355.075 469.801 355.266 470.367 355.646C470.934 356.022 471.217 356.564 471.217 357.272C471.217 357.639 471.102 357.968 470.873 358.261C470.648 358.549 470.313 358.771 469.869 358.928C470.387 359.035 470.797 359.252 471.1 359.58C471.402 359.907 471.554 360.292 471.554 360.737C471.554 361.474 471.28 362.036 470.733 362.421C470.191 362.807 469.41 363 468.39 363H464.676ZM466.456 359.624V361.594H468.404C469.317 361.594 469.774 361.267 469.774 360.612C469.774 359.953 469.31 359.624 468.382 359.624H466.456ZM466.456 358.349H467.921C468.932 358.349 469.437 358.051 469.437 357.456C469.437 356.831 468.958 356.508 468.001 356.489H466.456V358.349ZM475.78 360.451L477.391 355.075H479.288L476.139 364.201C475.655 365.534 474.835 366.201 473.678 366.201C473.419 366.201 473.133 366.157 472.821 366.069V364.692L473.158 364.714C473.607 364.714 473.944 364.631 474.168 364.465C474.398 364.304 474.579 364.03 474.71 363.645L474.967 362.963L472.184 355.075H474.103L475.78 360.451ZM486.671 363H484.891V360.356C484.432 360.463 483.949 360.517 483.441 360.517C482.357 360.517 481.529 360.258 480.958 359.741C480.387 359.218 480.101 358.471 480.101 357.5V355.068H481.881V357.5C481.881 358.076 482.008 358.483 482.262 358.723C482.521 358.962 482.914 359.082 483.441 359.082C483.919 359.082 484.403 359.025 484.891 358.913V355.075H486.671V363ZM492.054 363.146C490.926 363.146 490.011 362.792 489.308 362.084C488.609 361.372 488.26 360.424 488.26 359.243V359.023C488.26 358.232 488.412 357.526 488.714 356.906C489.022 356.281 489.452 355.795 490.003 355.449C490.555 355.102 491.17 354.929 491.849 354.929C492.928 354.929 493.761 355.273 494.347 355.961C494.938 356.65 495.233 357.624 495.233 358.884V359.602H490.055C490.108 360.256 490.326 360.773 490.707 361.154C491.092 361.535 491.576 361.726 492.157 361.726C492.972 361.726 493.636 361.396 494.149 360.737L495.108 361.652C494.791 362.126 494.366 362.495 493.834 362.758C493.307 363.017 492.713 363.146 492.054 363.146ZM491.842 356.357C491.354 356.357 490.958 356.528 490.655 356.87C490.357 357.211 490.167 357.688 490.084 358.298H493.475V358.166C493.436 357.57 493.277 357.121 492.999 356.818C492.721 356.511 492.335 356.357 491.842 356.357ZM499.876 361.726C500.321 361.726 500.689 361.596 500.982 361.337C501.275 361.079 501.432 360.759 501.451 360.378H503.128C503.109 360.871 502.955 361.333 502.667 361.762C502.379 362.187 501.988 362.524 501.495 362.773C501.002 363.022 500.47 363.146 499.898 363.146C498.79 363.146 497.911 362.788 497.262 362.07C496.612 361.352 496.288 360.361 496.288 359.096V358.913C496.288 357.707 496.61 356.743 497.254 356.02C497.899 355.292 498.778 354.929 499.891 354.929C500.833 354.929 501.6 355.205 502.191 355.756C502.787 356.303 503.099 357.023 503.128 357.917H501.451C501.432 357.463 501.275 357.089 500.982 356.796C500.694 356.503 500.326 356.357 499.876 356.357C499.3 356.357 498.856 356.567 498.543 356.987C498.231 357.402 498.072 358.034 498.067 358.884V359.169C498.067 360.029 498.221 360.671 498.529 361.096C498.841 361.516 499.291 361.726 499.876 361.726ZM510.709 356.489H508.138V363H506.358V356.489H503.817V355.075H510.709V356.489ZM513.814 357.595H515.558C516.207 357.595 516.773 357.707 517.257 357.932C517.74 358.156 518.106 358.471 518.355 358.876C518.609 359.282 518.736 359.753 518.736 360.29C518.736 361.105 518.448 361.76 517.872 362.253C517.296 362.746 516.529 362.995 515.572 363H512.035V355.075H513.814V357.595ZM513.814 359.023V361.579H515.55C515.985 361.579 516.327 361.472 516.576 361.257C516.83 361.037 516.957 360.727 516.957 360.327C516.957 359.926 516.832 359.611 516.583 359.382C516.339 359.147 516.007 359.028 515.587 359.023H513.814ZM520.414 365.402L519.454 364.831C519.737 364.387 519.93 363.999 520.033 363.667C520.14 363.339 520.196 363.005 520.201 362.663V361.279H521.805L521.798 362.561C521.793 363.078 521.661 363.596 521.402 364.113C521.148 364.636 520.819 365.065 520.414 365.402ZM527.005 354.387C527.005 353.742 527.213 353.215 527.628 352.805C528.043 352.39 528.587 352.182 529.261 352.182C529.945 352.182 530.492 352.39 530.902 352.805C531.317 353.215 531.524 353.754 531.524 354.423V354.951C531.524 355.59 531.317 356.115 530.902 356.525C530.492 356.936 529.95 357.141 529.276 357.141C528.617 357.141 528.072 356.94 527.643 356.54C527.218 356.135 527.005 355.59 527.005 354.907V354.387ZM528.25 354.951C528.25 355.288 528.343 355.561 528.529 355.771C528.719 355.976 528.968 356.079 529.276 356.079C529.579 356.079 529.823 355.976 530.008 355.771C530.194 355.561 530.287 355.278 530.287 354.921V354.387C530.287 354.05 530.191 353.776 530.001 353.566C529.815 353.356 529.569 353.251 529.261 353.251C528.954 353.251 528.707 353.359 528.521 353.574C528.341 353.784 528.25 354.062 528.25 354.409V354.951ZM532.132 360.385C532.132 359.731 532.345 359.201 532.77 358.796C533.194 358.391 533.736 358.188 534.396 358.188C535.06 358.188 535.602 358.391 536.021 358.796C536.446 359.201 536.659 359.748 536.659 360.437V360.957C536.659 361.591 536.454 362.116 536.043 362.531C535.638 362.941 535.094 363.146 534.41 363.146C533.727 363.146 533.175 362.944 532.755 362.539C532.34 362.128 532.132 361.589 532.132 360.92V360.385ZM533.377 360.957C533.377 361.289 533.473 361.562 533.663 361.777C533.858 361.987 534.107 362.092 534.41 362.092C534.723 362.092 534.967 361.992 535.143 361.792C535.323 361.586 535.414 361.301 535.414 360.935V360.385C535.414 360.043 535.318 359.77 535.128 359.565C534.938 359.36 534.693 359.257 534.396 359.257C534.093 359.257 533.846 359.36 533.656 359.565C533.47 359.77 533.377 360.053 533.377 360.415V360.957ZM529.642 362.202L528.727 361.674L533.934 353.339L534.85 353.867L529.642 362.202Z" fill="white"/>
<path d="M119 26C119 22.6863 121.686 20 125 20H134C137.314 20 140 22.6863 140 26V306H119V26Z" fill="url(#paint0_linear)"/>
<path d="M239 156C239 152.686 241.686 150 245 150H254C257.314 150 260 152.686 260 156V306H239V156Z" fill="url(#paint1_linear)"/>
<path d="M359 73C359 69.6863 361.686 67 365 67H374C377.314 67 380 69.6863 380 73V306H359V73Z" fill="url(#paint2_linear)"/>
<path d="M479 108C479 104.686 481.686 102 485 102H494C497.314 102 500 104.686 500 108V306H479V108Z" fill="url(#paint3_linear)"/>
<path d="M599 169C599 165.686 601.686 163 605 163H614C617.314 163 620 165.686 620 169V306H599V169Z" fill="url(#paint4_linear)"/>
<path d="M719 209C719 205.686 721.686 203 725 203H734C737.314 203 740 205.686 740 209V306H719V209Z" fill="url(#paint5_linear)"/>
<line x1="810" y1="296.5" x2="46" y2="296.5" stroke="#F8F8F8" stroke-opacity="0.2"/>
<line x1="810" y1="223.5" x2="46" y2="223.5" stroke="#F8F8F8" stroke-opacity="0.2"/>
<line x1="728.5" y1="296" x2="728.5" y2="15" stroke="url(#paint6_linear)" stroke-opacity="0.2"/>
<line x1="489.5" y1="296" x2="489.5" y2="15" stroke="url(#paint7_linear)" stroke-opacity="0.2"/>
<line x1="609.5" y1="296" x2="609.5" y2="15" stroke="url(#paint8_linear)" stroke-opacity="0.2"/>
<line x1="369.5" y1="296" x2="369.5" y2="15" stroke="url(#paint9_linear)" stroke-opacity="0.2"/>
<line x1="249.5" y1="296" x2="249.5" y2="15" stroke="url(#paint10_linear)" stroke-opacity="0.2"/>
<line x1="129.5" y1="296" x2="129.5" y2="15" stroke="url(#paint11_linear)" stroke-opacity="0.2"/>
<line x1="810" y1="154.5" x2="46" y2="154.5" stroke="#F8F8F8" stroke-opacity="0.2"/>
<line x1="810" y1="85.5" x2="46" y2="85.5" stroke="#F8F8F8" stroke-opacity="0.2"/>
<line x1="810" y1="11.5" x2="46" y2="11.5" stroke="#F8F8F8" stroke-opacity="0.2"/>
<defs>
<linearGradient id="paint0_linear" x1="129.5" y1="20" x2="129.5" y2="306" gradientUnits="userSpaceOnUse">
<stop stop-color="#FAC704"/>
<stop offset="1" stop-color="#C4C4C4" stop-opacity="0"/>
</linearGradient>
<linearGradient id="paint1_linear" x1="249.5" y1="150" x2="249.5" y2="306" gradientUnits="userSpaceOnUse">
<stop stop-color="#FAC704"/>
<stop offset="1" stop-color="#C4C4C4" stop-opacity="0"/>
</linearGradient>
<linearGradient id="paint2_linear" x1="369.5" y1="67" x2="369.5" y2="306" gradientUnits="userSpaceOnUse">
<stop stop-color="#FAC704"/>
<stop offset="1" stop-color="#C4C4C4" stop-opacity="0"/>
</linearGradient>
<linearGradient id="paint3_linear" x1="489.5" y1="102" x2="489.5" y2="306" gradientUnits="userSpaceOnUse">
<stop stop-color="#FAC704"/>
<stop offset="1" stop-color="#C4C4C4" stop-opacity="0"/>
</linearGradient>
<linearGradient id="paint4_linear" x1="609.5" y1="163" x2="609.5" y2="306" gradientUnits="userSpaceOnUse">
<stop stop-color="#FAC704"/>
<stop offset="1" stop-color="#C4C4C4" stop-opacity="0"/>
</linearGradient>
<linearGradient id="paint5_linear" x1="729.5" y1="203" x2="729.5" y2="306" gradientUnits="userSpaceOnUse">
<stop stop-color="#FAC704"/>
<stop offset="1" stop-color="#C4C4C4" stop-opacity="0"/>
</linearGradient>
<linearGradient id="paint6_linear" x1="729" y1="296" x2="729" y2="24.6897" gradientUnits="userSpaceOnUse">
<stop stop-color="#F8F8F8"/>
<stop offset="1" stop-color="#F8F8F8" stop-opacity="0"/>
</linearGradient>
<linearGradient id="paint7_linear" x1="490" y1="296" x2="490" y2="24.6897" gradientUnits="userSpaceOnUse">
<stop stop-color="#F8F8F8"/>
<stop offset="1" stop-color="#F8F8F8" stop-opacity="0"/>
</linearGradient>
<linearGradient id="paint8_linear" x1="610" y1="296" x2="610" y2="24.6897" gradientUnits="userSpaceOnUse">
<stop stop-color="#F8F8F8"/>
<stop offset="1" stop-color="#F8F8F8" stop-opacity="0"/>
</linearGradient>
<linearGradient id="paint9_linear" x1="370" y1="296" x2="370" y2="24.6897" gradientUnits="userSpaceOnUse">
<stop stop-color="#F8F8F8"/>
<stop offset="1" stop-color="#F8F8F8" stop-opacity="0"/>
</linearGradient>
<linearGradient id="paint10_linear" x1="250" y1="296" x2="250" y2="24.6897" gradientUnits="userSpaceOnUse">
<stop stop-color="#F8F8F8"/>
<stop offset="1" stop-color="#F8F8F8" stop-opacity="0"/>
</linearGradient>
<linearGradient id="paint11_linear" x1="130" y1="296" x2="130" y2="24.6897" gradientUnits="userSpaceOnUse">
<stop stop-color="#F8F8F8"/>
<stop offset="1" stop-color="#F8F8F8" stop-opacity="0"/>
</linearGradient>
</defs>
</svg>
