<svg width="674" height="522" viewBox="0 0 674 522" fill="none" xmlns="http://www.w3.org/2000/svg">
<path d="M339.37 41.4326L567.553 207.217L480.395 475.461H198.346L111.188 207.217L339.37 41.4326Z" fill="#F8F8F8" fill-opacity="0.1"/>
<path d="M138.034 215.74L339.076 69.6747L540.118 215.74L463.327 452.079H214.826L138.034 215.74Z" stroke="#23252C"/>
<path d="M173.498 227.263L339.075 106.965L504.651 227.263L441.406 421.909H236.743L173.498 227.263Z" stroke="#23252C"/>
<path d="M210.277 239.214L339.074 145.638L467.871 239.214L418.675 390.624H259.473L210.277 239.214Z" stroke="#23252C"/>
<path d="M243.081 250.787L338.382 181.547L433.684 250.787L397.282 362.821H279.483L243.081 250.787Z" stroke="#23252C"/>
<path d="M285.381 266.955L339.509 186.155L439.119 251.254L451.685 436.604L257.883 395.804L285.381 266.955Z" fill="url(#paint0_radial)" fill-opacity="0.5" stroke="#FAC704"/>
<path d="M339.371 285.697V41.0361" stroke="#BFBFBF"/>
<path d="M339.371 285.697L567.458 206.774" stroke="#BFBFBF"/>
<path d="M339.371 285.695L479.854 474.321" stroke="#BFBFBF"/>
<path d="M339.368 285.697L111.281 206.774" stroke="#BFBFBF"/>
<path d="M339.369 285.695L198.887 474.321" stroke="#BFBFBF"/>
<mask id="mask0" mask-type="alpha" maskUnits="userSpaceOnUse" x="257" y="185" width="196" height="253">
<path d="M285.381 266.955L339.509 186.155L439.119 251.254L451.685 436.604L257.883 395.804L285.381 266.955Z" fill="url(#paint1_radial)" fill-opacity="0.3" stroke="#FAC704"/>
</mask>
<g mask="url(#mask0)">
<path d="M339.371 285.7V41.04" stroke="#FAC704"/>
<path d="M339.371 285.701L567.458 206.778" stroke="#FAC704"/>
<path d="M339.371 285.699L479.854 474.325" stroke="#FAC704"/>
<path d="M339.368 285.701L111.281 206.778" stroke="#FAC704"/>
<path d="M339.369 285.699L198.887 474.325" stroke="#FAC704"/>
</g>
<circle cx="339.368" cy="186.256" r="4.73536" fill="#FAC704"/>
<circle cx="438.81" cy="250.973" r="4.73536" fill="#FAC704"/>
<circle cx="451.442" cy="435.65" r="4.73536" fill="#FAC704"/>
<circle cx="257.286" cy="396.19" r="4.73536" fill="#FAC704"/>
<circle cx="198.891" cy="475.112" r="3.15691" fill="#BFBFBF"/>
<circle cx="479.852" cy="475.112" r="3.15691" fill="#BFBFBF"/>
<circle cx="566.669" cy="206.776" r="3.15691" fill="#BFBFBF"/>
<circle cx="339.372" cy="41.0378" r="3.15691" fill="#BFBFBF"/>
<circle cx="112.071" cy="206.776" r="3.15691" fill="#BFBFBF"/>
<circle cx="285.704" cy="266.758" r="4.73536" fill="#FAC704"/>
<path d="M512.546 503.163H511.227V494.29H506.319V503.163H505.006V493.21H512.546V503.163ZM517.161 501.311L518.883 495.767H520.237L517.263 504.305C516.803 505.535 516.071 506.15 515.069 506.15L514.83 506.13L514.358 506.041V505.016L514.7 505.043C515.128 505.043 515.461 504.956 515.698 504.783C515.939 504.61 516.137 504.293 516.292 503.833L516.573 503.081L513.934 495.767H515.315L517.161 501.311ZM522.752 495.767V502.131H525.459V495.767H526.724V502.131H529.424V495.767H530.696V503.163H521.481V495.767H522.752ZM537.477 495.767H538.742V503.163H537.477V497.77L534.066 503.163H532.801V495.767H534.066V501.167L537.477 495.767ZM546.815 503.163H545.55V500.005H542.153V503.163H540.881V495.767H542.153V498.973H545.55V495.767H546.815V503.163ZM553.63 496.812H550.219V503.163H548.948V495.767H553.63V496.812Z" fill="#989898"/>
<path d="M113.024 503.163H111.705V494.29H106.797V503.163H105.484V493.21H113.024V503.163ZM114.884 499.396C114.884 498.672 115.025 498.02 115.307 497.441C115.595 496.863 115.991 496.416 116.497 496.102C117.007 495.787 117.588 495.63 118.24 495.63C119.247 495.63 120.061 495.979 120.68 496.676C121.305 497.373 121.617 498.3 121.617 499.458V499.547C121.617 500.267 121.478 500.914 121.2 501.488C120.927 502.058 120.532 502.502 120.017 502.821C119.507 503.14 118.919 503.3 118.254 503.3C117.251 503.3 116.438 502.951 115.813 502.254C115.194 501.557 114.884 500.634 114.884 499.485V499.396ZM116.155 499.547C116.155 500.367 116.344 501.026 116.722 501.522C117.105 502.019 117.616 502.268 118.254 502.268C118.896 502.268 119.407 502.017 119.785 501.516C120.163 501.01 120.352 500.303 120.352 499.396C120.352 498.585 120.159 497.929 119.771 497.428C119.388 496.922 118.878 496.669 118.24 496.669C117.616 496.669 117.112 496.917 116.729 497.414C116.347 497.911 116.155 498.622 116.155 499.547ZM122.649 502.131L123.087 501.591C123.579 500.953 123.859 499.996 123.928 498.72L124.044 495.767H128.808V502.131H129.759V505.337H128.494V503.163H123.333V505.337H122.068L122.075 502.131H122.649ZM124.146 502.131H127.544V496.936H125.267L125.192 498.699C125.115 500.171 124.766 501.315 124.146 502.131ZM131.235 502.131L131.673 501.591C132.165 500.953 132.445 499.996 132.513 498.72L132.63 495.767H137.394V502.131H138.345V505.337H137.08V503.163H131.919V505.337H130.654L130.661 502.131H131.235ZM132.732 502.131H136.13V496.936H133.853L133.778 498.699C133.701 500.171 133.352 501.315 132.732 502.131ZM142.815 503.3C141.813 503.3 140.997 502.972 140.368 502.315C139.739 501.655 139.425 500.773 139.425 499.67V499.438C139.425 498.704 139.564 498.05 139.842 497.476C140.124 496.897 140.516 496.446 141.017 496.122C141.523 495.794 142.07 495.63 142.658 495.63C143.62 495.63 144.367 495.947 144.9 496.58C145.433 497.214 145.7 498.12 145.7 499.301V499.827H140.689C140.708 500.556 140.919 501.146 141.325 501.598C141.735 502.044 142.255 502.268 142.884 502.268C143.33 502.268 143.708 502.176 144.018 501.994C144.328 501.812 144.599 501.57 144.832 501.27L145.604 501.871C144.985 502.824 144.055 503.3 142.815 503.3ZM142.658 496.669C142.148 496.669 141.719 496.856 141.373 497.229C141.027 497.599 140.812 498.118 140.73 498.788H144.435V498.692C144.399 498.05 144.226 497.553 143.916 497.202C143.606 496.847 143.187 496.669 142.658 496.669ZM153.418 499.547C153.418 500.673 153.16 501.579 152.645 502.268C152.13 502.956 151.433 503.3 150.554 503.3C149.656 503.3 148.949 503.015 148.434 502.445V506.007H147.17V495.767H148.325L148.387 496.587C148.902 495.949 149.617 495.63 150.533 495.63C151.422 495.63 152.124 495.965 152.638 496.635C153.158 497.305 153.418 498.237 153.418 499.431V499.547ZM152.153 499.403C152.153 498.569 151.975 497.911 151.62 497.428C151.264 496.945 150.777 496.703 150.157 496.703C149.391 496.703 148.817 497.043 148.434 497.722V501.256C148.813 501.93 149.391 502.268 150.171 502.268C150.777 502.268 151.258 502.028 151.613 501.55C151.973 501.067 152.153 500.351 152.153 499.403ZM160.821 499.95H159.932V503.163H158.668V499.95H157.779L155.708 503.163H154.108L156.754 499.335L154.361 495.767H155.892L157.8 498.829H158.668V495.767H159.932V498.829H160.794L162.715 495.767H164.246L161.846 499.342L164.492 503.163H162.892L160.821 499.95ZM167.944 500.012H167.021V503.163H165.75V495.767H167.021V498.897H167.848L170.337 495.767H171.868L168.942 499.321L172.114 503.163H170.508L167.944 500.012ZM177.767 503.163C177.694 503.017 177.635 502.757 177.59 502.384C177.002 502.994 176.3 503.3 175.484 503.3C174.755 503.3 174.156 503.095 173.686 502.685C173.221 502.27 172.989 501.746 172.989 501.112C172.989 500.342 173.281 499.745 173.864 499.321C174.452 498.893 175.277 498.679 176.339 498.679H177.569V498.098C177.569 497.656 177.437 497.305 177.173 497.045C176.908 496.781 176.519 496.648 176.004 496.648C175.553 496.648 175.174 496.762 174.869 496.99C174.564 497.218 174.411 497.494 174.411 497.817H173.139C173.139 497.448 173.269 497.093 173.529 496.751C173.793 496.405 174.149 496.131 174.596 495.931C175.047 495.73 175.541 495.63 176.079 495.63C176.931 495.63 177.599 495.844 178.082 496.272C178.565 496.696 178.816 497.282 178.834 498.029V501.434C178.834 502.113 178.92 502.653 179.094 503.054V503.163H177.767ZM175.669 502.199C176.065 502.199 176.441 502.097 176.797 501.892C177.152 501.687 177.41 501.42 177.569 501.092V499.574H176.578C175.028 499.574 174.254 500.028 174.254 500.935C174.254 501.331 174.386 501.641 174.65 501.864C174.915 502.088 175.254 502.199 175.669 502.199Z" fill="#989898"/>
<path d="M23.2812 192.726H23.4931C24.2451 192.73 24.9309 192.906 25.5507 193.252C26.1705 193.598 26.6513 194.077 26.9931 194.688C27.3395 195.294 27.5126 195.973 27.5126 196.725C27.5126 197.481 27.3395 198.167 26.9931 198.782C26.6468 199.397 26.1682 199.878 25.5576 200.225C24.9469 200.566 24.2679 200.742 23.5205 200.751H23.2812V202.091H22.0097V200.751H21.8183C21.0572 200.751 20.3645 200.578 19.7402 200.231C19.1204 199.885 18.6373 199.407 18.291 198.796C17.9492 198.185 17.7783 197.499 17.7783 196.738C17.7783 195.977 17.9492 195.291 18.291 194.681C18.6373 194.07 19.1204 193.591 19.7402 193.245C20.3645 192.899 21.0572 192.726 21.8183 192.726H22.0097V191.317H23.2812V192.726ZM21.8183 193.758C20.9615 193.758 20.2825 194.022 19.7812 194.551C19.2845 195.075 19.0361 195.804 19.0361 196.738C19.0361 197.677 19.2845 198.409 19.7812 198.933C20.2779 199.452 20.9615 199.712 21.832 199.712H22.0097V193.758H21.8183ZM23.2812 193.758V199.712H23.4726C24.343 199.712 25.0221 199.445 25.5097 198.912C26.0019 198.374 26.248 197.645 26.248 196.725C26.248 195.813 26.0019 195.091 25.5097 194.558C25.0221 194.024 24.3339 193.758 23.4453 193.758H23.2812ZM33.5351 201.681C33.4622 201.535 33.4029 201.275 33.3574 200.901C32.7695 201.512 32.0677 201.817 31.2519 201.817C30.5227 201.817 29.9235 201.612 29.4541 201.202C28.9892 200.787 28.7568 200.263 28.7568 199.63C28.7568 198.86 29.0485 198.263 29.6318 197.839C30.2197 197.41 31.0445 197.196 32.1064 197.196H33.3369V196.615C33.3369 196.173 33.2047 195.822 32.9404 195.562C32.6761 195.298 32.2864 195.166 31.7714 195.166C31.3203 195.166 30.942 195.28 30.6367 195.508C30.3313 195.736 30.1787 196.011 30.1787 196.335H28.9072C28.9072 195.966 29.0371 195.61 29.2968 195.269C29.5611 194.922 29.9166 194.649 30.3632 194.448C30.8144 194.248 31.3089 194.147 31.8466 194.147C32.6988 194.147 33.3665 194.362 33.8496 194.79C34.3326 195.214 34.5833 195.799 34.6015 196.547V199.951C34.6015 200.63 34.6881 201.17 34.8613 201.571V201.681H33.5351ZM31.4365 200.717C31.833 200.717 32.2089 200.614 32.5644 200.409C32.9199 200.204 33.1774 199.938 33.3369 199.609V198.092H32.3457C30.7962 198.092 30.0214 198.545 30.0214 199.452C30.0214 199.849 30.1536 200.159 30.4179 200.382C30.6822 200.605 31.0218 200.717 31.4365 200.717ZM42.832 198.064C42.832 199.19 42.5745 200.097 42.0595 200.785C41.5445 201.473 40.8473 201.817 39.9677 201.817C39.0699 201.817 38.3636 201.533 37.8486 200.963V204.524H36.5839V194.284H37.7392L37.8007 195.104C38.3157 194.466 39.0312 194.147 39.9472 194.147C40.8359 194.147 41.5377 194.482 42.0527 195.152C42.5722 195.822 42.832 196.754 42.832 197.948V198.064ZM41.5673 197.921C41.5673 197.087 41.3896 196.428 41.0341 195.945C40.6787 195.462 40.191 195.221 39.5712 195.221C38.8056 195.221 38.2314 195.56 37.8486 196.239V199.773C38.2268 200.448 38.8056 200.785 39.5849 200.785C40.191 200.785 40.6718 200.546 41.0273 200.067C41.3873 199.584 41.5673 198.869 41.5673 197.921ZM48.7041 200.006L51.2197 194.284H52.7988V201.681H51.5341V196.301L49.1416 201.681H48.2666L45.8261 196.185V201.681H44.5615V194.284H46.2021L48.7041 200.006ZM59.621 194.284H60.8857V201.681H59.621V196.287L56.2099 201.681H54.9453V194.284H56.2099V199.685L59.621 194.284ZM68.9589 201.681H67.6943V198.522H64.2968V201.681H63.0253V194.284H64.2968V197.49H67.6943V194.284H68.9589V201.681ZM75.7744 195.33H72.3632V201.681H71.0918V194.284H75.7744V195.33Z" fill="#989898"/>
<path d="M608.242 192.726H608.454C609.206 192.73 609.891 192.906 610.511 193.252C611.131 193.598 611.612 194.077 611.954 194.688C612.3 195.294 612.473 195.973 612.473 196.725C612.473 197.481 612.3 198.167 611.954 198.782C611.607 199.397 611.129 199.878 610.518 200.225C609.907 200.566 609.228 200.742 608.481 200.751H608.242V202.091H606.97V200.751H606.779C606.018 200.751 605.325 200.578 604.701 200.231C604.081 199.885 603.598 199.407 603.251 198.796C602.91 198.185 602.739 197.499 602.739 196.738C602.739 195.977 602.91 195.291 603.251 194.681C603.598 194.07 604.081 193.591 604.701 193.245C605.325 192.899 606.018 192.726 606.779 192.726H606.97V191.317H608.242V192.726ZM606.779 193.758C605.922 193.758 605.243 194.022 604.742 194.551C604.245 195.075 603.997 195.804 603.997 196.738C603.997 197.677 604.245 198.409 604.742 198.933C605.238 199.452 605.922 199.712 606.792 199.712H606.97V193.758H606.779ZM608.242 193.758V199.712H608.433C609.303 199.712 609.983 199.445 610.47 198.912C610.962 198.374 611.208 197.645 611.208 196.725C611.208 195.813 610.962 195.091 610.47 194.558C609.983 194.024 609.294 193.758 608.406 193.758H608.242ZM618.496 201.681C618.423 201.535 618.363 201.275 618.318 200.901C617.73 201.512 617.028 201.817 616.212 201.817C615.483 201.817 614.884 201.612 614.415 201.202C613.95 200.787 613.717 200.263 613.717 199.63C613.717 198.86 614.009 198.263 614.592 197.839C615.18 197.41 616.005 197.196 617.067 197.196H618.297V196.615C618.297 196.173 618.165 195.822 617.901 195.562C617.637 195.298 617.247 195.166 616.732 195.166C616.281 195.166 615.902 195.28 615.597 195.508C615.292 195.736 615.139 196.011 615.139 196.335H613.868C613.868 195.966 613.998 195.61 614.257 195.269C614.522 194.922 614.877 194.649 615.324 194.448C615.775 194.248 616.269 194.147 616.807 194.147C617.659 194.147 618.327 194.362 618.81 194.79C619.293 195.214 619.544 195.799 619.562 196.547V199.951C619.562 200.63 619.649 201.17 619.822 201.571V201.681H618.496ZM616.397 200.717C616.793 200.717 617.169 200.614 617.525 200.409C617.88 200.204 618.138 199.938 618.297 199.609V198.092H617.306C615.757 198.092 614.982 198.545 614.982 199.452C614.982 199.849 615.114 200.159 615.378 200.382C615.643 200.605 615.982 200.717 616.397 200.717ZM626.33 194.284H627.594V201.681H626.33V196.287L622.918 201.681H621.654V194.284H622.918V199.685L626.33 194.284ZM626.671 191.591C626.671 192.142 626.482 192.587 626.104 192.924C625.73 193.257 625.238 193.423 624.627 193.423C624.017 193.423 623.522 193.254 623.144 192.917C622.766 192.58 622.577 192.138 622.577 191.591H623.609C623.609 191.91 623.695 192.16 623.869 192.343C624.042 192.521 624.295 192.609 624.627 192.609C624.946 192.609 625.195 192.521 625.373 192.343C625.555 192.165 625.646 191.914 625.646 191.591H626.671ZM635.121 195.31H632.639V201.681H631.374V195.31H628.941V194.284H635.121V195.31ZM641.136 194.284H642.401V201.681H641.136V196.287L637.725 201.681H636.46V194.284H637.725V199.685L641.136 194.284ZM650.474 201.681H649.209V198.522H645.812V201.681H644.54V194.284H645.812V197.49H649.209V194.284H650.474V201.681ZM657.29 195.33H653.878V201.681H652.607V194.284H657.29V195.33Z" fill="#989898"/>
<path d="M317.133 8.12695H312.335V17H311.015V7.04688H317.133V8.12695ZM321.932 9.60352H323.197V17H321.932V11.6064L318.521 17H317.256V9.60352H318.521V15.0039L321.932 9.60352ZM328.474 10.0273C329.404 10.0273 330.147 10.3395 330.703 10.9639C331.263 11.5837 331.544 12.4017 331.544 13.418V13.5342C331.544 14.2314 331.409 14.8558 331.14 15.4072C330.871 15.9541 330.484 16.3802 329.978 16.6855C329.477 16.9863 328.898 17.1367 328.242 17.1367C327.248 17.1367 326.448 16.8063 325.842 16.1455C325.236 15.4801 324.933 14.5892 324.933 13.4727V12.8574C324.933 11.3034 325.22 10.0684 325.795 9.15234C326.373 8.23633 327.225 7.67806 328.351 7.47754C328.989 7.36361 329.42 7.22461 329.643 7.06055C329.866 6.89648 329.978 6.6709 329.978 6.38379H331.017C331.017 6.95345 330.887 7.39779 330.628 7.7168C330.372 8.03581 329.962 8.26139 329.397 8.39355L328.454 8.60547C327.702 8.7832 327.137 9.08398 326.758 9.50781C326.385 9.92708 326.141 10.4876 326.027 11.1895C326.697 10.4147 327.513 10.0273 328.474 10.0273ZM328.228 11.0664C327.608 11.0664 327.116 11.276 326.752 11.6953C326.387 12.11 326.205 12.6865 326.205 13.4248V13.5342C326.205 14.3271 326.387 14.9561 326.752 15.4209C327.121 15.8812 327.617 16.1113 328.242 16.1113C328.871 16.1113 329.367 15.8789 329.732 15.4141C330.097 14.9492 330.279 14.2702 330.279 13.377C330.279 12.6797 330.094 12.1214 329.725 11.7021C329.361 11.2783 328.862 11.0664 328.228 11.0664ZM335.146 13.8486H334.223V17H332.952V9.60352H334.223V12.7344H335.05L337.539 9.60352H339.07L336.144 13.1582L339.316 17H337.71L335.146 13.8486ZM339.918 13.2334C339.918 12.5088 340.059 11.8571 340.341 11.2783C340.628 10.6995 341.025 10.2529 341.531 9.93848C342.041 9.62402 342.622 9.4668 343.274 9.4668C344.281 9.4668 345.095 9.81543 345.714 10.5127C346.339 11.21 346.651 12.1374 346.651 13.2949V13.3838C346.651 14.1038 346.512 14.751 346.234 15.3252C345.961 15.8949 345.566 16.3392 345.051 16.6582C344.541 16.9772 343.953 17.1367 343.288 17.1367C342.285 17.1367 341.472 16.7881 340.847 16.0908C340.227 15.3936 339.918 14.4707 339.918 13.3223V13.2334ZM341.189 13.3838C341.189 14.2041 341.378 14.8626 341.756 15.3594C342.139 15.8561 342.65 16.1045 343.288 16.1045C343.93 16.1045 344.441 15.8538 344.819 15.3525C345.197 14.8467 345.386 14.1403 345.386 13.2334C345.386 12.4222 345.193 11.766 344.805 11.2646C344.422 10.7588 343.912 10.5059 343.274 10.5059C342.65 10.5059 342.146 10.7542 341.763 11.251C341.38 11.7477 341.189 12.4587 341.189 13.3838ZM351.204 16.1045C351.655 16.1045 352.049 15.9678 352.386 15.6943C352.724 15.4209 352.91 15.0791 352.947 14.6689H354.143C354.12 15.0928 353.975 15.4961 353.706 15.8789C353.437 16.2617 353.077 16.5671 352.626 16.7949C352.179 17.0228 351.705 17.1367 351.204 17.1367C350.197 17.1367 349.394 16.8018 348.797 16.1318C348.205 15.4574 347.909 14.5368 347.909 13.3701V13.1582C347.909 12.4382 348.041 11.7979 348.305 11.2373C348.57 10.6768 348.948 10.2415 349.44 9.93164C349.937 9.62174 350.522 9.4668 351.197 9.4668C352.026 9.4668 352.714 9.71517 353.261 10.2119C353.813 10.7087 354.107 11.3535 354.143 12.1465H352.947C352.91 11.668 352.728 11.276 352.4 10.9707C352.076 10.6608 351.675 10.5059 351.197 10.5059C350.554 10.5059 350.055 10.7383 349.7 11.2031C349.349 11.6634 349.173 12.3311 349.173 13.2061V13.4453C349.173 14.2975 349.349 14.9538 349.7 15.4141C350.051 15.8743 350.552 16.1045 351.204 16.1045ZM361.061 10.6289H358.58V17H357.315V10.6289H354.881V9.60352H361.061V10.6289ZM363.672 12.1533H365.593C366.432 12.1624 367.095 12.3812 367.583 12.8096C368.07 13.238 368.314 13.819 368.314 14.5527C368.314 15.291 368.063 15.8835 367.562 16.3301C367.061 16.7767 366.386 17 365.539 17H362.408V9.60352H363.672V12.1533ZM363.672 13.1855V15.9678H365.552C366.026 15.9678 366.393 15.847 366.653 15.6055C366.913 15.3594 367.043 15.0244 367.043 14.6006C367.043 14.1904 366.915 13.8555 366.66 13.5957C366.409 13.3314 366.056 13.1947 365.6 13.1855H363.672Z" fill="#989898"/>
<defs>
<radialGradient id="paint0_radial" cx="0" cy="0" r="1" gradientUnits="userSpaceOnUse" gradientTransform="translate(339.369 285.698) rotate(90) scale(118.384 91.6642)">
<stop stop-color="#FA7A04"/>
<stop offset="1" stop-color="#FAC704"/>
</radialGradient>
<radialGradient id="paint1_radial" cx="0" cy="0" r="1" gradientUnits="userSpaceOnUse" gradientTransform="translate(339.369 285.698) rotate(84.2008) scale(152.311 117.934)">
<stop stop-color="#FAC704"/>
<stop offset="1" stop-color="#FAC704" stop-opacity="0.86"/>
</radialGradient>
</defs>
</svg>
