<svg width="26" height="26" viewBox="0 0 26 26" fill="none" xmlns="http://www.w3.org/2000/svg">
<path d="M19.8889 5.11111H17.7778V3H7.22222V5.11111H5.11111C3.95 5.11111 3 6.06111 3 7.22222V8.27778C3 10.9694 5.02667 13.165 7.63389 13.4922C7.96771 14.2832 8.4891 14.981 9.15301 15.5254C9.81691 16.0698 10.6034 16.4443 11.4444 16.6167V19.8889H7.22222V22H17.7778V19.8889H13.5556V16.6167C14.3966 16.4443 15.1831 16.0698 15.847 15.5254C16.5109 14.981 17.0323 14.2832 17.3661 13.4922C19.9733 13.165 22 10.9694 22 8.27778V7.22222C22 6.06111 21.05 5.11111 19.8889 5.11111ZM5.11111 8.27778V7.22222H7.22222V11.2544C5.99778 10.8111 5.11111 9.65 5.11111 8.27778ZM19.8889 8.27778C19.8889 9.65 19.0022 10.8111 17.7778 11.2544V7.22222H19.8889V8.27778Z" fill="#FAC704"/>
</svg>
