<svg width="26" height="26" viewBox="0 0 26 26" fill="none" xmlns="http://www.w3.org/2000/svg">
<path d="M14.5963 2C16.5177 1.99908 18.3814 2.65708 19.8764 3.86425C21.3715 5.07142 22.4076 6.75479 22.8119 8.63361C23.2162 10.5124 22.9644 12.4731 22.0983 14.1887C21.2323 15.9042 19.8044 17.2709 18.0528 18.0608C17.4929 19.2989 16.6411 20.3827 15.5706 21.2193C14.5 22.0558 13.2425 22.6201 11.906 22.8638C10.5695 23.1075 9.1938 23.0233 7.89696 22.6184C6.60013 22.2135 5.42083 21.5001 4.4602 20.5392C3.49957 19.5783 2.78628 18.3988 2.3815 17.1016C1.97672 15.8045 1.89254 14.4285 2.13617 13.0916C2.3798 11.7548 2.94398 10.497 3.78031 9.42617C4.61664 8.35532 5.70017 7.50335 6.93797 6.94333C7.60379 5.46977 8.68046 4.21962 10.0389 3.3428C11.3972 2.46599 12.9797 1.99975 14.5963 2ZM11.4465 9.35146H9.34657V10.4017C8.66422 10.4 8.00804 10.6642 7.51711 11.1382C7.02619 11.6123 6.7391 12.2589 6.71671 12.941C6.69432 13.6232 6.93838 14.2872 7.39716 14.7925C7.85594 15.2977 8.49339 15.6043 9.17438 15.6475L9.34657 15.6527H11.4465L11.541 15.6611C11.662 15.683 11.7715 15.7468 11.8504 15.8412C11.9292 15.9356 11.9724 16.0548 11.9724 16.1778C11.9724 16.3009 11.9292 16.42 11.8504 16.5144C11.7715 16.6089 11.662 16.6726 11.541 16.6945L11.4465 16.7029H7.24666V18.8033H9.34657V19.8535H11.4465V18.8033C12.1288 18.805 12.785 18.5408 13.2759 18.0668C13.7669 17.5927 14.0539 16.9461 14.0763 16.264C14.0987 15.5818 13.8547 14.9178 13.3959 14.4125C12.9371 13.9073 12.2997 13.6007 11.6187 13.5575L11.4465 13.5523H9.34657L9.25207 13.5439C9.13103 13.522 9.02153 13.4582 8.94268 13.3638C8.86383 13.2694 8.82063 13.1502 8.82063 13.0272C8.82063 12.9041 8.86383 12.785 8.94268 12.6906C9.02153 12.5961 9.13103 12.5324 9.25207 12.5105L9.34657 12.5021H13.5464V10.4017H11.4465V9.35146ZM14.5963 4.10042C13.7067 4.09938 12.827 4.28729 12.0154 4.65174C11.2038 5.01618 10.4788 5.54884 9.88835 6.21449C11.0751 6.14243 12.2636 6.32318 13.3753 6.74479C14.4869 7.16639 15.4965 7.81925 16.3371 8.66019C17.1777 9.50113 17.8303 10.511 18.2517 11.623C18.6731 12.735 18.8536 13.9238 18.7815 15.1108C19.7361 14.2618 20.4102 13.1427 20.7142 11.9017C21.0183 10.6607 20.9381 9.35662 20.4841 8.16233C20.0301 6.96804 19.2239 5.94 18.1724 5.21456C17.1209 4.48913 15.8737 4.10057 14.5963 4.10042Z" fill="#6171FF"/>
</svg>
