<svg width="26" height="26" viewBox="0 0 26 26" fill="none" xmlns="http://www.w3.org/2000/svg">
<path d="M8.2685 17.1111L5.15 20.4444C4.8035 20.7778 4.3415 21 3.8375 21C3.35016 21 2.88279 20.7951 2.53819 20.4305C2.19359 20.0658 2 19.5713 2 19.0556V18.7778L3.05 10.5778C3.15585 9.32848 3.69926 8.16619 4.57351 7.31918C5.44776 6.47217 6.58968 6.00164 7.775 6H17.225C19.703 6 21.7295 8.01111 21.95 10.5778L23 18.7778V19.0556C23 19.5713 22.8064 20.0658 22.4618 20.4305C22.1172 20.7951 21.6498 21 21.1625 21C20.6585 21 20.1965 20.7778 19.85 20.4444L16.7315 17.1111H8.2685ZM7.25 8.22222V10.4444H5.15V11.5556H7.25V13.7778H8.3V11.5556H10.4V10.4444H8.3V8.22222H7.25ZM17.225 8.22222C17.0161 8.22222 16.8158 8.31002 16.6682 8.4663C16.5205 8.62258 16.4375 8.83454 16.4375 9.05556C16.4375 9.27657 16.5205 9.48853 16.6682 9.64481C16.8158 9.80109 17.0161 9.88889 17.225 9.88889C17.4339 9.88889 17.6342 9.80109 17.7818 9.64481C17.9295 9.48853 18.0125 9.27657 18.0125 9.05556C18.0125 8.83454 17.9295 8.62258 17.7818 8.4663C17.6342 8.31002 17.4339 8.22222 17.225 8.22222ZM15.3875 10.1667C15.1786 10.1667 14.9783 10.2545 14.8307 10.4107C14.683 10.567 14.6 10.779 14.6 11C14.6 11.221 14.683 11.433 14.8307 11.5893C14.9783 11.7455 15.1786 11.8333 15.3875 11.8333C15.5964 11.8333 15.7967 11.7455 15.9443 11.5893C16.092 11.433 16.175 11.221 16.175 11C16.175 10.779 16.092 10.567 15.9443 10.4107C15.7967 10.2545 15.5964 10.1667 15.3875 10.1667ZM19.0625 10.1667C18.8536 10.1667 18.6533 10.2545 18.5057 10.4107C18.358 10.567 18.275 10.779 18.275 11C18.275 11.221 18.358 11.433 18.5057 11.5893C18.6533 11.7455 18.8536 11.8333 19.0625 11.8333C19.2714 11.8333 19.4717 11.7455 19.6193 11.5893C19.767 11.433 19.85 11.221 19.85 11C19.85 10.779 19.767 10.567 19.6193 10.4107C19.4717 10.2545 19.2714 10.1667 19.0625 10.1667ZM17.225 12.1111C17.0161 12.1111 16.8158 12.1989 16.6682 12.3552C16.5205 12.5115 16.4375 12.7234 16.4375 12.9444C16.4375 13.1655 16.5205 13.3774 16.6682 13.5337C16.8158 13.69 17.0161 13.7778 17.225 13.7778C17.4339 13.7778 17.6342 13.69 17.7818 13.5337C17.9295 13.3774 18.0125 13.1655 18.0125 12.9444C18.0125 12.7234 17.9295 12.5115 17.7818 12.3552C17.6342 12.1989 17.4339 12.1111 17.225 12.1111Z" fill="#84FF4A"/>
</svg>
