<svg width="24" height="24" viewBox="0 0 24 24" fill="none" xmlns="http://www.w3.org/2000/svg">
<path fill-rule="evenodd" clip-rule="evenodd" d="M17 13C18.2986 13.9476 19.2085 15.2314 19.2085 16.9432V20H23V16.9432C23 14.722 19.6161 13.4076 17 13Z" fill="#F45C3B"/>
<path d="M9 12C11.2091 12 13 10.2091 13 8C13 5.79086 11.2091 4 9 4C6.79086 4 5 5.79086 5 8C5 10.2091 6.79086 12 9 12Z" fill="#F45C3B"/>
<path fill-rule="evenodd" clip-rule="evenodd" d="M15 12C17.21 12 19 10.21 19 8C19 5.79 17.21 4 15 4C14.53 4 14.09 4.1 13.67 4.24C14.5305 5.30422 15 6.6314 15 8C15 9.3686 14.5305 10.6958 13.67 11.76C14.09 11.9 14.53 12 15 12ZM9 13C6.33 13 1 14.34 1 17V20H17V17C17 14.34 11.67 13 9 13Z" fill="#F45C3B"/>
</svg>
