<?xml version="1.0" encoding="utf-8"?>
<!-- Generator: Adobe Illustrator 24.0.3, SVG Export Plug-In . SVG Version: 6.00 Build 0)  -->
<svg version="1.1" id="Слой_1" xmlns="http://www.w3.org/2000/svg" xmlns:xlink="http://www.w3.org/1999/xlink" x="0px" y="0px"
	 viewBox="0 0 352 223" style="enable-background:new 0 0 352 223;" xml:space="preserve">
<style type="text/css">
	.st0{fill:#3F3D46;}
	.st1{fill:#FAC704;filter:url(#Adobe_OpacityMaskFilter);}
	.st2{fill:#FAC704;}
	.st3{mask:url(#mask0_1_);}
	.st4{fill:#47454D;}
	.st5{fill:#CBBC8A;stroke:#29292E;}
	.st6{fill:#C7BA90;stroke:#29292E;}
	.st7{fill:#AAAAAA;}
	.st8{clip-path:url(#SVGID_2_);}
</style>
<g>
	<path class="st0" d="M10,0h332c5.5,0,10,4.5,10,10v203c0,5.5-4.5,10-10,10H10c-5.5,0-10-4.5-10-10V10C0,4.5,4.5,0,10,0z"/>
</g>
<defs>
	<filter id="Adobe_OpacityMaskFilter" filterUnits="userSpaceOnUse" x="0" y="0" width="352" height="223">
		<feColorMatrix  type="matrix" values="1 0 0 0 0  0 1 0 0 0  0 0 1 0 0  0 0 0 1 0"/>
	</filter>
</defs>
<mask maskUnits="userSpaceOnUse" x="0" y="0" width="352" height="223" id="mask0_1_">
	<path class="st1" d="M15.1-11.5l82.1,73.2L82.9,95.9L49.7,55.2l0.9,4.3L28.9,79.6L15.1-11.5z"/>
	<path class="st2" d="M51.7,64.9l20.2,25.7L0.6,169.4l-59.6,0.3L51.7,64.9z"/>
	<path class="st2" d="M109,49.8l-8.7,8L79.3,38.4L168.9-46L57.7,264L38,135.6l22.4-23.4l7.2,34.2L109,49.8z"/>
	<path class="st2" d="M127.3,89.6L112.7,131l31.2,37.9l72.1,0.1L127.3,89.6z"/>
</mask>
<g class="st3">
	<path class="st4" d="M10,0h332c5.5,0,10,4.5,10,10v203c0,5.5-4.5,10-10,10H10c-5.5,0-10-4.5-10-10V10C0,4.5,4.5,0,10,0z"/>
</g>
<path class="st5" d="M32,84.5h38c4.1,0,7.5,3.4,7.5,7.5v22c0,4.1-3.4,7.5-7.5,7.5H32c-4.1,0-7.5-3.4-7.5-7.5V92
	C24.5,87.9,27.9,84.5,32,84.5z"/>
<path class="st6" d="M73.5,92L73.5,92c0,1.9-1.6,3.5-3.5,3.5H56c-1.9,0-3.5-1.6-3.5-3.5l0,0c0-1.9,1.6-3.5,3.5-3.5h14
	C71.9,88.5,73.5,90.1,73.5,92z"/>
<path class="st6" d="M73.5,103L73.5,103c0,1.9-1.6,3.5-3.5,3.5H56c-1.9,0-3.5-1.6-3.5-3.5l0,0c0-1.9,1.6-3.5,3.5-3.5h14
	C71.9,99.5,73.5,101.1,73.5,103z"/>
<path class="st6" d="M73.5,114L73.5,114c0,1.9-1.6,3.5-3.5,3.5H56c-1.9,0-3.5-1.6-3.5-3.5l0,0c0-1.9,1.6-3.5,3.5-3.5h14
	C71.9,110.5,73.5,112.1,73.5,114z"/>
<path class="st6" d="M49.5,103L49.5,103c0,1.9-1.6,3.5-3.5,3.5H32c-1.9,0-3.5-1.6-3.5-3.5l0,0c0-1.9,1.6-3.5,3.5-3.5h14
	C47.9,99.5,49.5,101.1,49.5,103z"/>
<path class="st6" d="M49.5,114L49.5,114c0,1.9-1.6,3.5-3.5,3.5H32c-1.9,0-3.5-1.6-3.5-3.5l0,0c0-1.9,1.6-3.5,3.5-3.5h14
	C47.9,110.5,49.5,112.1,49.5,114z"/>
<path class="st6" d="M49.5,92L49.5,92c0,1.9-1.6,3.5-3.5,3.5H32c-1.9,0-3.5-1.6-3.5-3.5l0,0c0-1.9,1.6-3.5,3.5-3.5h14
	C47.9,88.5,49.5,90.1,49.5,92z"/>
<path class="st7" d="M297.3,14.2l12.5,11.1l-2.2,5.2l-5.1-6.2l0.1,0.7l-3.3,3L297.3,14.2z"/>
<path class="st7" d="M302.9,25.8l3.1,3.9l-10.9,11.9l-9.1,0L302.9,25.8z"/>
<path class="st7" d="M311.7,23.5l-1.3,1.2l-3.2-2.9L320.8,9l-17,47l-3-19.5l3.4-3.6l1.1,5.2L311.7,23.5z"/>
<path class="st7" d="M314.5,29.6l-2.2,6.3l4.8,5.7l11,0L314.5,29.6z"/>
<g>
	<defs>
		<rect id="SVGID_1_" x="277" y="62" width="61" height="5"/>
	</defs>
	<clipPath id="SVGID_2_">
		<use xlink:href="#SVGID_1_"  style="overflow:visible;"/>
	</clipPath>
	<g class="st8">
		<path class="st7" d="M277,67v-5h4.8l0.7,0.7V67H277z M280.8,65.2h-2.1v0.5h2.3v-2.3h-2.3v0.5h2.1V65.2z M283.1,62.8V67h1.7v-1.8
			h2.1v-1.3h-2.1v-0.5h2.3V67h1.7v-4.2l-0.8-0.8h-4L283.1,62.8z M289.2,62.8L290,62h4.8v1.3h-1.9V67h-1.7v-3.6h-2V62.8z M295.3,62.8
			l0.8-0.8h4.8v1.3h-1.9V67h-1.7v-3.6h-2V62.8z M301.4,62h1.7v3.6h3.8V67h-4.6l-0.8-0.8V62z M307.3,66.2l0.8,0.8h4.8v-1.3H309v-0.5
			h2.1v-1.3H309v-0.5h3.9V62h-4.8l-0.8,0.8V66.2z M313.4,65.2v-2.4l0.8-0.8h4.8v1.3H315v0.5h2.2v1.4H313.4z M319,66.2l-0.8,0.8h-4.8
			v-1.3h3.9v-1.8h1.7V66.2z M319.5,62.8l0.8-0.8h4.8v1.3h-1.9V67h-1.7v-3.6h-2V62.8z M325.6,62.8V67h1.7v-1.8h2.1v-1.3h-2.1v-0.5
			h2.3V67h1.7v-4.2l-0.8-0.8h-4L325.6,62.8z M331.7,62v5h1.7v-1.8h2.1v-1.4h-2.1v-0.5h2.3v1.8l0.7,1.9h1.7l-0.7-2v-2.2l-0.7-0.7
			H331.7z"/>
	</g>
</g>
</svg>
