<svg width="126" height="32" viewBox="0 0 126 32" fill="none" xmlns="http://www.w3.org/2000/svg">
<path d="M40.6406 17.9658L40.8867 19.6533L41.2471 18.1328L43.7783 9.20312H45.2021L47.6719 18.1328L48.0234 19.6797L48.2959 17.957L50.2822 9.20312H51.9785L48.876 22H47.3379L44.7012 12.6748L44.499 11.6992L44.2969 12.6748L41.5635 22H40.0254L36.9316 9.20312H38.6191L40.6406 17.9658ZM57.2695 22.1758C55.9805 22.1758 54.9316 21.7539 54.123 20.9102C53.3145 20.0605 52.9102 18.9268 52.9102 17.5088V17.21C52.9102 16.2666 53.0889 15.4258 53.4463 14.6875C53.8096 13.9434 54.3135 13.3633 54.958 12.9473C55.6084 12.5254 56.3115 12.3145 57.0674 12.3145C58.3037 12.3145 59.2646 12.7217 59.9502 13.5361C60.6357 14.3506 60.9785 15.5166 60.9785 17.0342V17.7109H54.5361C54.5596 18.6484 54.832 19.4072 55.3535 19.9873C55.8809 20.5615 56.5488 20.8486 57.3574 20.8486C57.9316 20.8486 58.418 20.7314 58.8164 20.4971C59.2148 20.2627 59.5635 19.9521 59.8623 19.5654L60.8555 20.3389C60.0586 21.5635 58.8633 22.1758 57.2695 22.1758ZM57.0674 13.6504C56.4111 13.6504 55.8604 13.8906 55.415 14.3711C54.9697 14.8457 54.6943 15.5137 54.5889 16.375H59.3525V16.252C59.3057 15.4258 59.083 14.7871 58.6846 14.3359C58.2861 13.8789 57.7471 13.6504 57.0674 13.6504ZM70.9189 17.3506C70.9189 18.8037 70.585 19.9727 69.917 20.8574C69.249 21.7363 68.3525 22.1758 67.2275 22.1758C66.0264 22.1758 65.0977 21.751 64.4414 20.9014L64.3623 22H62.8682V8.5H64.4941V13.5361C65.1504 12.7217 66.0557 12.3145 67.21 12.3145C68.3643 12.3145 69.2695 12.751 69.9258 13.624C70.5879 14.4971 70.9189 15.6924 70.9189 17.21V17.3506ZM69.293 17.166C69.293 16.0586 69.0791 15.2031 68.6514 14.5996C68.2236 13.9961 67.6084 13.6943 66.8057 13.6943C65.7334 13.6943 64.9629 14.1924 64.4941 15.1885V19.3018C64.9922 20.2979 65.7686 20.7959 66.8232 20.7959C67.6025 20.7959 68.209 20.4941 68.6426 19.8906C69.0762 19.2871 69.293 18.3789 69.293 17.166ZM75.4102 9.20312L79.5938 19.6445L83.7773 9.20312H85.9658V22H84.2783V17.0166L84.4365 11.6377L80.2354 22H78.9434L74.751 11.6641L74.918 17.0166V22H73.2305V9.20312H75.4102ZM88.2598 17.1572C88.2598 16.2256 88.4414 15.3877 88.8047 14.6436C89.1738 13.8994 89.6836 13.3252 90.334 12.9209C90.9902 12.5166 91.7373 12.3145 92.5752 12.3145C93.8701 12.3145 94.916 12.7627 95.7129 13.6592C96.5156 14.5557 96.917 15.748 96.917 17.2363V17.3506C96.917 18.2764 96.7383 19.1084 96.3809 19.8467C96.0293 20.5791 95.5225 21.1504 94.8604 21.5605C94.2041 21.9707 93.4482 22.1758 92.5928 22.1758C91.3037 22.1758 90.2578 21.7275 89.4551 20.8311C88.6582 19.9346 88.2598 18.748 88.2598 17.2715V17.1572ZM89.8945 17.3506C89.8945 18.4053 90.1377 19.252 90.624 19.8906C91.1162 20.5293 91.7725 20.8486 92.5928 20.8486C93.4189 20.8486 94.0752 20.5264 94.5615 19.8818C95.0479 19.2314 95.291 18.3232 95.291 17.1572C95.291 16.1143 95.042 15.2705 94.5439 14.626C94.0518 13.9756 93.3955 13.6504 92.5752 13.6504C91.7725 13.6504 91.125 13.9697 90.6328 14.6084C90.1406 15.2471 89.8945 16.1611 89.8945 17.3506ZM100.494 12.4902L100.547 13.6855C101.273 12.7715 102.223 12.3145 103.395 12.3145C105.404 12.3145 106.418 13.4482 106.436 15.7158V22H104.81V15.707C104.804 15.0215 104.646 14.5146 104.335 14.1865C104.03 13.8584 103.553 13.6943 102.902 13.6943C102.375 13.6943 101.912 13.835 101.514 14.1162C101.115 14.3975 100.805 14.7666 100.582 15.2236V22H98.9561V12.4902H100.494ZM112.834 22.1758C111.545 22.1758 110.496 21.7539 109.688 20.9102C108.879 20.0605 108.475 18.9268 108.475 17.5088V17.21C108.475 16.2666 108.653 15.4258 109.011 14.6875C109.374 13.9434 109.878 13.3633 110.522 12.9473C111.173 12.5254 111.876 12.3145 112.632 12.3145C113.868 12.3145 114.829 12.7217 115.515 13.5361C116.2 14.3506 116.543 15.5166 116.543 17.0342V17.7109H110.101C110.124 18.6484 110.396 19.4072 110.918 19.9873C111.445 20.5615 112.113 20.8486 112.922 20.8486C113.496 20.8486 113.982 20.7314 114.381 20.4971C114.779 20.2627 115.128 19.9521 115.427 19.5654L116.42 20.3389C115.623 21.5635 114.428 22.1758 112.834 22.1758ZM112.632 13.6504C111.976 13.6504 111.425 13.8906 110.979 14.3711C110.534 14.8457 110.259 15.5137 110.153 16.375H114.917V16.252C114.87 15.4258 114.647 14.7871 114.249 14.3359C113.851 13.8789 113.312 13.6504 112.632 13.6504ZM121.421 19.6182L123.636 12.4902H125.376L121.553 23.4678C120.961 25.0498 120.021 25.8408 118.731 25.8408L118.424 25.8145L117.817 25.7002V24.3818L118.257 24.417C118.808 24.417 119.235 24.3057 119.54 24.083C119.851 23.8604 120.105 23.4531 120.305 22.8613L120.665 21.8945L117.272 12.4902H119.048L121.421 19.6182Z" fill="#BFBFBF"/>
<g clip-path="url(#clip0)">
<path d="M15.9241 0.242676C18.4201 0.242676 20.7961 0.816009 22.9268 1.83868C23.2614 1.98934 23.5974 2.16934 23.9308 2.35068L22.4694 3.64401L20.2788 1.38801L16.5028 4.69868L14.2801 2.32001L7.33743 8.49067L11.7828 13.3373L10.0468 14.8413L14.4334 19.688L12.6974 21.192L18.9694 28.0853L22.6828 24.7133L25.9108 28.3267C25.2708 28.808 24.5708 29.2907 23.8108 29.712C21.4105 31.0555 18.7054 31.7597 15.9548 31.7573C7.15476 31.756 9.82168e-05 24.6827 9.82168e-05 15.9867C-0.0305684 7.34667 7.1241 0.242676 15.9241 0.242676ZM13.0001 15.024L16.8068 11.652L20.2174 15.4147L16.4108 18.7867L13.0001 15.024ZM15.7108 21.5253L19.4868 18.1253L22.9268 21.8867L19.1201 25.2587L15.7108 21.5253ZM10.2934 8.61334L14.0988 5.24134L17.5081 9.00401L13.7028 12.3747L10.2934 8.61334ZM17.2641 6.80668L20.0961 4.27868L22.6548 7.07734L19.8228 9.63601L17.2641 6.80668ZM22.3201 18.3947L25.1508 15.8667L27.7081 18.6947L24.8761 21.2253L22.3201 18.3947ZM24.8161 24.084L27.6481 21.5547L30.2041 24.3547L27.3734 26.912L24.8161 24.084ZM25.9734 11.08L27.8601 9.39468L29.5654 11.2613L27.6774 12.9467L25.9734 11.08ZM23.5374 5.51201L25.4254 3.79734L27.1321 5.69334L25.2414 7.37867L23.5374 5.51201ZM28.3774 16.6493L30.2654 14.964L32.0014 16.8307L30.0841 18.516L28.3774 16.6493ZM19.8841 12.4653L22.7161 9.93734L25.2734 12.736L22.4414 15.2653L19.8841 12.4653Z" fill="#BFBFBF"/>
</g>
<defs>
<clipPath id="clip0">
<rect width="32" height="32" fill="white"/>
</clipPath>
</defs>
</svg>
